<svg width="216" height="216" viewBox="0 0 216 216" fill="none" xmlns="http://www.w3.org/2000/svg">
<path d="M108 15.4286C76.0487 15.4286 50.1428 41.3287 50.1428 73.2857C50.1428 82.2355 52.1769 90.722 55.8099 98.2819C56.0131 98.7114 108 200.571 108 200.571L159.563 99.5475C163.586 91.6713 165.857 82.7439 165.857 73.2857C165.857 41.3287 139.957 15.4286 108 15.4286ZM108 108C88.829 108 73.2857 92.451 73.2857 73.2857C73.2857 54.1205 88.829 38.5714 108 38.5714C127.165 38.5714 142.714 54.1205 142.714 73.2857C142.714 92.451 127.165 108 108 108Z" fill="#EA7E00"/>
</svg>
