<svg width="26" height="26" viewBox="0 0 26 26" fill="none" xmlns="http://www.w3.org/2000/svg">
<path d="M11.9708 16.1958L9.96666 18.2C9.54416 18.6225 8.87249 18.6225 8.43916 18.2108C8.31999 18.0916 8.20082 17.9833 8.08166 17.8641C6.96582 16.7375 5.95832 15.5566 5.05916 14.3216C4.17082 13.0866 3.45582 11.8516 2.93582 10.6275C2.42666 9.39246 2.16666 8.21163 2.16666 7.08496C2.16666 6.34829 2.29666 5.64413 2.55666 4.99413C2.81666 4.33329 3.22832 3.72663 3.80249 3.18496C4.49582 2.50246 5.25416 2.16663 6.05582 2.16663C6.35916 2.16663 6.66249 2.23163 6.93332 2.36163C7.21499 2.49163 7.46416 2.68663 7.65916 2.96829L10.1725 6.51079C10.3675 6.78163 10.5083 7.03079 10.6058 7.26913C10.7033 7.49663 10.7575 7.72413 10.7575 7.92996C10.7575 8.18996 10.6817 8.44996 10.53 8.69913C10.3892 8.94829 10.1833 9.20829 9.92332 9.46829L9.09999 10.3241C8.98082 10.4433 8.92666 10.5841 8.92666 10.7575C8.92666 10.8441 8.93749 10.92 8.95916 11.0066C8.99166 11.0933 9.02416 11.1583 9.04582 11.2233C9.24082 11.5808 9.57666 12.0466 10.0533 12.61C10.5408 13.1733 11.0608 13.7475 11.6242 14.3216C11.7325 14.43 11.8517 14.5383 11.96 14.6466C12.3933 15.0691 12.4042 15.7625 11.9708 16.1958Z" fill="white"/>
<path d="M23.8008 19.8575C23.8008 20.1608 23.7467 20.475 23.6383 20.7783C23.6058 20.865 23.5733 20.9516 23.53 21.0383C23.3458 21.4283 23.1075 21.7966 22.7933 22.1433C22.2625 22.7283 21.6775 23.1508 21.0167 23.4216C21.0058 23.4216 20.995 23.4325 20.9842 23.4325C20.345 23.6925 19.6517 23.8333 18.9042 23.8333C17.7992 23.8333 16.6183 23.5733 15.3725 23.0425C14.1267 22.5116 12.8808 21.7966 11.6458 20.8975C11.2233 20.5833 10.8008 20.2691 10.4 19.9333L13.9425 16.3908C14.2458 16.6183 14.5167 16.7916 14.7442 16.9108C14.7983 16.9325 14.8633 16.965 14.9392 16.9975C15.0258 17.03 15.1125 17.0408 15.21 17.0408C15.3942 17.0408 15.535 16.9758 15.6542 16.8566L16.4775 16.0441C16.7483 15.7733 17.0083 15.5675 17.2575 15.4375C17.5067 15.2858 17.7558 15.21 18.0267 15.21C18.2325 15.21 18.4492 15.2533 18.6875 15.3508C18.9258 15.4483 19.175 15.5891 19.4458 15.7733L23.0317 18.3191C23.3133 18.5141 23.5083 18.7416 23.6275 19.0125C23.7358 19.2833 23.8008 19.5541 23.8008 19.8575Z" fill="white"/>
</svg>
