<svg width="1322" height="637" viewBox="0 0 1322 637" fill="none" xmlns="http://www.w3.org/2000/svg">
<mask id="mask0_1_540" style="mask-type:luminance" maskUnits="userSpaceOnUse" x="0" y="0" width="1322" height="637">
<path d="M1321.58 0H0V637H1321.58V0Z" fill="white"/>
</mask>
<g mask="url(#mask0_1_540)">
<path d="M350.359 637C322.613 614.671 296.8 603.748 284.908 598.819C249.234 583.836 228.449 540.822 227.579 539.082L227.289 538.599L227.095 538.018C226.419 535.794 160.291 318.596 146.66 277.031C133.415 236.723 120.267 226.864 94.1638 207.242C68.0609 187.524 1.06345 151.565 0 150.985V133.296C4.35049 135.616 76.3752 174.571 103.542 194.87C130.418 215.072 146.66 227.251 161.451 272.199C174.793 312.797 237.923 520.136 241.79 532.895C244.014 537.343 262.479 572.624 290.902 584.609C305.404 590.699 327.35 600.849 350.939 618.151C358.963 624.047 366.698 630.427 373.948 637.097L350.359 637Z" fill="#41434B"/>
</g>
</svg>
