<svg width="1322" height="637" viewBox="0 0 1322 637" fill="none" xmlns="http://www.w3.org/2000/svg">
<mask id="mask0_1_736" style="mask-type:luminance" maskUnits="userSpaceOnUse" x="0" y="0" width="1322" height="637">
<path d="M1321.58 0H0V637H1321.58V0Z" fill="white"/>
</mask>
<g mask="url(#mask0_1_736)">
<path d="M747.607 198.156L759.595 205.502H759.691V205.405L765.685 192.743L768.586 202.506L769.069 202.409L763.849 184.913L757.565 198.542L744.9 190.616L750.12 208.112L750.604 208.015L747.607 198.156ZM745.577 191.486L757.564 199.026H757.661V198.929L763.559 186.073L763.752 186.75L757.758 199.702L745.673 192.163L745.577 191.486ZM745.963 192.743L757.951 200.282H758.048V200.186L763.946 187.33L764.236 188.2L758.242 200.959L746.255 193.516L745.963 192.743ZM746.447 194.289L758.435 201.636H758.531V201.539L764.525 188.876L764.719 189.553L758.725 202.312L746.738 194.869L746.447 194.289ZM746.833 195.546L758.821 202.892H758.918V202.796L764.912 190.133L765.105 190.81L759.111 203.569L747.123 196.126L746.833 195.546ZM747.22 196.803L759.207 204.149H759.305V204.052L765.299 191.39L765.492 192.066L759.498 204.825L747.511 197.383L747.22 196.803Z" fill="white"/>
</g>
</svg>
