<svg width="1322" height="637" viewBox="0 0 1322 637" fill="none" xmlns="http://www.w3.org/2000/svg">
<mask id="mask0_1_500" style="mask-type:luminance" maskUnits="userSpaceOnUse" x="0" y="0" width="1322" height="637">
<path d="M1321.58 0H0V637H1321.58V0Z" fill="white"/>
</mask>
<g mask="url(#mask0_1_500)">
<path d="M680.706 289.695L665.818 237.788L637.491 246.294C620.476 251.417 602.494 241.654 597.273 224.738L570.3 135.616C565.176 118.7 574.264 101.108 591.086 95.5016L597.95 93.2784C606.361 90.4752 615.352 91.2485 623.183 95.405C631.014 99.5614 636.718 106.521 639.135 115.027L688.537 287.472L680.706 289.695ZM608.101 99.8514C605.588 99.8514 602.977 100.238 600.464 101.108L593.6 103.331C581.031 107.488 574.264 120.634 578.035 133.296L605.007 222.418C608.875 235.081 622.313 242.331 635.074 238.561L663.497 230.055L631.207 117.347C629.37 110.967 625.116 105.748 619.316 102.655C615.739 100.721 611.968 99.8514 608.101 99.8514Z" fill="#EDEDED"/>
</g>
</svg>
