<svg width="32" height="7" viewBox="0 0 32 7" fill="none" xmlns="http://www.w3.org/2000/svg">
<path d="M2.48376 6.07853C2.04158 6.07853 1.65467 5.98835 1.32303 5.80799C0.997214 5.62181 0.744123 5.35708 0.563759 5.01381C0.389214 4.66471 0.301941 4.25162 0.301941 3.77453C0.301941 3.30326 0.392123 2.8989 0.572486 2.56144C0.75285 2.22399 1.00594 1.96799 1.33176 1.79344C1.65758 1.61308 2.04158 1.5229 2.48376 1.5229C2.76885 1.5229 3.04521 1.57235 3.31285 1.67126C3.58049 1.76435 3.80158 1.89817 3.97612 2.07271L3.68812 2.69235C3.52521 2.53526 3.34194 2.4189 3.1383 2.34326C2.93467 2.26181 2.73685 2.22108 2.54485 2.22108C2.12594 2.22108 1.79721 2.3549 1.55867 2.62253C1.32012 2.89017 1.20085 3.27708 1.20085 3.78326C1.20085 4.29526 1.32012 4.68799 1.55867 4.96144C1.79721 5.2349 2.12594 5.37162 2.54485 5.37162C2.73103 5.37162 2.92594 5.33671 3.12958 5.2669C3.33321 5.19126 3.5194 5.07199 3.68812 4.90908L3.97612 5.52871C3.79576 5.70326 3.56885 5.83999 3.2954 5.9389C3.02776 6.03199 2.75721 6.07853 2.48376 6.07853Z" fill="white"/>
<path d="M6.71001 6.07853C6.27365 6.07853 5.89546 5.98835 5.57546 5.80799C5.25546 5.62181 5.00819 5.35999 4.83365 5.02253C4.6591 4.67926 4.57183 4.27199 4.57183 3.80071C4.57183 3.32944 4.6591 2.92508 4.83365 2.58762C5.00819 2.24435 5.25546 1.98253 5.57546 1.80217C5.89546 1.61599 6.27365 1.5229 6.71001 1.5229C7.14637 1.5229 7.52455 1.61599 7.84455 1.80217C8.17037 1.98253 8.42055 2.24435 8.5951 2.58762C8.77546 2.92508 8.86565 3.32944 8.86565 3.80071C8.86565 4.27199 8.77546 4.67926 8.5951 5.02253C8.42055 5.35999 8.17037 5.62181 7.84455 5.80799C7.52455 5.98835 7.14637 6.07853 6.71001 6.07853ZM6.71001 5.38908C7.09401 5.38908 7.39946 5.25526 7.62637 4.98762C7.85328 4.71999 7.96674 4.32435 7.96674 3.80071C7.96674 3.27708 7.85328 2.88435 7.62637 2.62253C7.39946 2.3549 7.09401 2.22108 6.71001 2.22108C6.33183 2.22108 6.02928 2.3549 5.80237 2.62253C5.57546 2.88435 5.46201 3.27708 5.46201 3.80071C5.46201 4.32435 5.57255 4.71999 5.79365 4.98762C6.02055 5.25526 6.32601 5.38908 6.71001 5.38908Z" fill="white"/>
<path d="M9.89594 5.99999V2.65744C9.89594 2.48871 9.88721 2.31708 9.86976 2.14253C9.85812 1.96217 9.84358 1.78181 9.82612 1.60144H10.6814L10.7599 2.52653H10.6552C10.789 2.20071 10.9956 1.95344 11.2749 1.78471C11.5541 1.61017 11.877 1.5229 12.2436 1.5229C12.7614 1.5229 13.1512 1.66544 13.413 1.95053C13.6807 2.23562 13.8145 2.67781 13.8145 3.27708V5.99999H12.933V3.32944C12.933 2.93962 12.8545 2.66035 12.6974 2.49162C12.5461 2.31708 12.3134 2.22981 11.9992 2.22981C11.6269 2.22981 11.3301 2.34617 11.109 2.5789C10.8879 2.80581 10.7774 3.11417 10.7774 3.50399V5.99999H9.89594Z" fill="white"/>
<path d="M15.0692 5.99999V2.65744C15.0692 2.48871 15.0605 2.31708 15.0431 2.14253C15.0314 1.96217 15.0169 1.78181 14.9994 1.60144H15.8547L15.9332 2.52653H15.8285C15.9623 2.20071 16.1689 1.95344 16.4481 1.78471C16.7274 1.61017 17.0503 1.5229 17.4169 1.5229C17.9347 1.5229 18.3245 1.66544 18.5863 1.95053C18.854 2.23562 18.9878 2.67781 18.9878 3.27708V5.99999H18.1063V3.32944C18.1063 2.93962 18.0278 2.66035 17.8707 2.49162C17.7194 2.31708 17.4867 2.22981 17.1725 2.22981C16.8001 2.22981 16.5034 2.34617 16.2823 2.5789C16.0612 2.80581 15.9507 3.11417 15.9507 3.50399V5.99999H15.0692Z" fill="white"/>
<path d="M22.276 6.07853C21.5662 6.07853 21.0076 5.87781 20.6003 5.47635C20.1931 5.0749 19.9894 4.51926 19.9894 3.80944C19.9894 3.34981 20.0767 2.94835 20.2513 2.60508C20.4316 2.26181 20.6789 1.99708 20.9931 1.8109C21.3131 1.6189 21.6825 1.5229 22.1014 1.5229C22.5145 1.5229 22.8607 1.61017 23.14 1.78471C23.4193 1.95926 23.6316 2.20653 23.7771 2.52653C23.9225 2.84071 23.9953 3.21308 23.9953 3.64362V3.9229H20.6789V3.41671H23.3931L23.2447 3.53017C23.2447 3.09381 23.1458 2.75635 22.948 2.51781C22.756 2.27344 22.4767 2.15126 22.1102 2.15126C21.7029 2.15126 21.3887 2.29381 21.1676 2.5789C20.9465 2.85817 20.836 3.24508 20.836 3.73962V3.8269C20.836 4.34471 20.9611 4.73453 21.2113 4.99635C21.4673 5.25817 21.828 5.38908 22.2934 5.38908C22.5494 5.38908 22.788 5.35417 23.0091 5.28435C23.236 5.20871 23.4513 5.08653 23.6549 4.91781L23.9429 5.51999C23.7393 5.70035 23.492 5.83999 23.2011 5.9389C22.9102 6.03199 22.6018 6.07853 22.276 6.07853Z" fill="white"/>
<path d="M26.9355 6.07853C26.4933 6.07853 26.1064 5.98835 25.7747 5.80799C25.4489 5.62181 25.1958 5.35708 25.0155 5.01381C24.8409 4.66471 24.7536 4.25162 24.7536 3.77453C24.7536 3.30326 24.8438 2.8989 25.0242 2.56144C25.2046 2.22399 25.4576 1.96799 25.7835 1.79344C26.1093 1.61308 26.4933 1.5229 26.9355 1.5229C27.2206 1.5229 27.4969 1.57235 27.7646 1.67126C28.0322 1.76435 28.2533 1.89817 28.4278 2.07271L28.1398 2.69235C27.9769 2.53526 27.7936 2.4189 27.59 2.34326C27.3864 2.26181 27.1886 2.22108 26.9966 2.22108C26.5776 2.22108 26.2489 2.3549 26.0104 2.62253C25.7718 2.89017 25.6526 3.27708 25.6526 3.78326C25.6526 4.29526 25.7718 4.68799 26.0104 4.96144C26.2489 5.2349 26.5776 5.37162 26.9966 5.37162C27.1827 5.37162 27.3776 5.33671 27.5813 5.2669C27.7849 5.19126 27.9711 5.07199 28.1398 4.90908L28.4278 5.52871C28.2475 5.70326 28.0206 5.83999 27.7471 5.9389C27.4795 6.03199 27.2089 6.07853 26.9355 6.07853Z" fill="white"/>
<path d="M31.0809 6.07853C30.6038 6.07853 30.2431 5.95053 29.9987 5.69453C29.7544 5.43271 29.6322 5.0429 29.6322 4.52508V2.28217H28.7769V1.60144H29.6322V0.440715L30.5136 0.205078V1.60144H31.7355V2.28217H30.5136V4.44653C30.5136 4.77235 30.5718 5.00508 30.6882 5.14471C30.8046 5.28435 30.9733 5.35417 31.1944 5.35417C31.3049 5.35417 31.4009 5.34544 31.4824 5.32799C31.5696 5.30471 31.6482 5.27853 31.718 5.24944V5.96508C31.6307 5.99999 31.5289 6.02617 31.4126 6.04362C31.2962 6.0669 31.1856 6.07853 31.0809 6.07853Z" fill="white"/>
</svg>
