<svg width="95" height="95" viewBox="0 0 95 95" fill="none" xmlns="http://www.w3.org/2000/svg">
<g filter="url(#filter0_d_1_505)">
<path fill-rule="evenodd" clip-rule="evenodd" d="M47.5 87C71.5244 87 91 67.5244 91 43.5C91 19.4756 71.5244 0 47.5 0C23.4756 0 4 19.4756 4 43.5C4 67.5244 23.4756 87 47.5 87ZM58.4793 41.894C58.4793 44.1032 56.6885 45.894 54.4793 45.894H49.6665C46.4848 45.894 43.9403 41.735 43.9403 38.5533V38.5533V31.9499C43.9403 29.7408 45.7311 27.9499 47.9402 27.9499H54.4793C56.6885 27.9499 58.4793 29.7408 58.4793 31.9499V41.894ZM70.4595 27.9499C71.8314 27.9499 72.9435 26.8378 72.9435 25.4659V25.4659C72.9435 24.0941 71.8314 22.9819 70.4595 22.9819H24.5407C23.1688 22.9819 22.0567 24.0941 22.0567 25.4659V25.4659C22.0567 26.8378 23.1688 27.9499 24.5407 27.9499H34.0946C36.3038 27.9499 38.0946 29.7408 38.0946 31.9499V38.1084C38.0946 40.5306 37.57 42.3102 36.5208 43.4471C35.5216 44.5346 33.598 45.0784 30.7502 45.0784H29.329C27.3821 45.0784 25.8039 46.6567 25.8039 48.6036V48.6036C25.8039 49.3025 26.0116 49.9856 26.4007 50.5662L38.9447 69.2821C39.4907 70.0968 40.4069 70.5857 41.3876 70.5857V70.5857C43.7476 70.5857 45.1463 67.9459 43.821 65.9932L38.2838 57.8351C36.3248 54.9488 38.7766 50.8286 42.2642 50.9008C43.4035 50.9244 44.6117 50.9362 45.8888 50.9362H54.4793C56.6885 50.9362 58.4793 52.727 58.4793 54.9362V67.6629C58.4793 69.2771 59.7879 70.5857 61.4021 70.5857V70.5857C63.0164 70.5857 64.3249 69.2771 64.3249 67.6629V31.9499C64.3249 29.7408 66.1158 27.9499 68.3249 27.9499H70.4595Z" fill="#90A955"/>
</g>
<defs>
<filter id="filter0_d_1_505" x="0" y="0" width="95" height="95" filterUnits="userSpaceOnUse" color-interpolation-filters="sRGB">
<feFlood flood-opacity="0" result="BackgroundImageFix"/>
<feColorMatrix in="SourceAlpha" type="matrix" values="0 0 0 0 0 0 0 0 0 0 0 0 0 0 0 0 0 0 127 0" result="hardAlpha"/>
<feOffset dy="4"/>
<feGaussianBlur stdDeviation="2"/>
<feComposite in2="hardAlpha" operator="out"/>
<feColorMatrix type="matrix" values="0 0 0 0 0 0 0 0 0 0 0 0 0 0 0 0 0 0 0.25 0"/>
<feBlend mode="normal" in2="BackgroundImageFix" result="effect1_dropShadow_1_505"/>
<feBlend mode="normal" in="SourceGraphic" in2="effect1_dropShadow_1_505" result="shape"/>
</filter>
</defs>
</svg>
