<svg width="83" height="82" viewBox="0 0 83 82" fill="none" xmlns="http://www.w3.org/2000/svg">
<g filter="url(#filter0_d_30_583)">
<path fill-rule="evenodd" clip-rule="evenodd" d="M41.1007 73.9655C61.5148 73.9655 78.0637 57.4154 78.0637 36.9999C78.0637 16.5845 61.5148 0.0344238 41.1007 0.0344238C20.6866 0.0344238 4.1377 16.5845 4.1377 36.9999C4.1377 57.4154 20.6866 73.9655 41.1007 73.9655ZM50.4301 34.5532C50.4301 37.0276 48.4242 39.0335 45.9497 39.0335H42.942C40.2382 39.0335 38.0759 35.4993 38.0759 32.7955V28.2653C38.0759 25.7909 40.0819 23.7849 42.5562 23.7849H45.9498C48.4242 23.7849 50.4301 25.7909 50.4301 28.2653V34.5532ZM60.6097 23.7849C61.7755 23.7849 62.7205 22.8399 62.7205 21.6741C62.7205 20.5084 61.7755 19.5634 60.6097 19.5634H21.5917C20.4259 19.5634 19.4809 20.5084 19.4809 21.6741C19.4809 22.8399 20.4259 23.7849 21.5917 23.7849H28.6284C31.1028 23.7849 33.1087 25.7909 33.1087 28.2653V32.4174C33.1087 34.4758 32.6629 35.9881 31.7715 36.9541C30.9224 37.8784 29.2879 38.3404 26.868 38.3404H25.6607C24.0062 38.3404 22.665 39.6817 22.665 41.3361C22.665 41.93 22.8416 42.5105 23.1722 43.0039L33.8309 58.9084C34.295 59.6007 35.0735 60.0161 35.907 60.0161C37.9123 60.0161 39.1008 57.7731 37.9747 56.1138L34.6575 51.226C32.4633 47.993 35.2164 43.3033 39.1235 43.3172C39.3241 43.318 39.5268 43.3183 39.7316 43.3183H45.9498C48.4242 43.3183 50.4301 45.3241 50.4301 47.7987V57.5325C50.4301 58.9042 51.5421 60.0161 52.9138 60.0161C54.2853 60.0161 55.3973 58.9042 55.3973 57.5325V27.4466C55.3973 25.4244 57.0367 23.7849 59.0589 23.7849H60.6097Z" fill="#90A955"/>
<path d="M9.87371 42.26C9.816 41.948 9.80221 41.6581 9.83255 41.3904C9.86643 41.1222 9.93947 40.8808 10.0517 40.6664L10.539 40.7758C10.4666 40.9183 10.4114 41.0613 10.3735 41.205C10.3362 41.3524 10.3149 41.5044 10.3097 41.6611C10.3088 41.8207 10.325 41.9904 10.3583 42.1702C10.4153 42.4788 10.5122 42.6944 10.6488 42.8172C10.786 42.9436 10.9447 42.9902 11.1246 42.9569C11.2787 42.9285 11.3886 42.855 11.4541 42.7366C11.5201 42.6218 11.5555 42.4331 11.56 42.1701L11.5701 41.5476C11.5777 41.1778 11.6478 40.8896 11.7805 40.6828C11.9174 40.4791 12.1309 40.3502 12.421 40.2966C12.6559 40.2532 12.8731 40.2776 13.0724 40.3698C13.2717 40.462 13.4395 40.6094 13.5756 40.8122C13.7125 41.0183 13.8085 41.2703 13.8634 41.5676C13.9143 41.8429 13.9208 42.1038 13.8829 42.3501C13.8484 42.5956 13.7688 42.8116 13.6437 42.9979L13.1741 42.8912C13.2867 42.6996 13.3588 42.5038 13.3903 42.3045C13.4254 42.1044 13.4209 41.8849 13.3767 41.6463C13.3244 41.3636 13.2247 41.1523 13.0773 41.0125C12.9306 40.8763 12.7564 40.827 12.5544 40.8643C12.3929 40.8942 12.2754 40.9671 12.2019 41.0832C12.129 41.2031 12.0906 41.3849 12.0863 41.6287L12.0817 42.2502C12.0732 42.6353 12.0045 42.9309 11.8755 43.1371C11.7501 43.3424 11.548 43.471 11.269 43.5226C11.0451 43.564 10.8375 43.5397 10.6461 43.4499C10.4556 43.3636 10.2921 43.2192 10.156 43.0165C10.0234 42.8132 9.92932 42.561 9.87371 42.26Z" fill="white"/>
<path d="M13.456 52.5606C13.3275 52.346 13.2648 52.129 13.2682 51.9093C13.2715 51.6897 13.3408 51.4784 13.4761 51.2755C13.6131 51.0758 13.8115 50.8982 14.071 50.7428C14.3335 50.5855 14.5836 50.4944 14.8212 50.4696C15.0606 50.448 15.278 50.4875 15.4733 50.5881C15.6716 50.6869 15.8353 50.8436 15.9638 51.0582C16.0904 51.2695 16.1479 51.4853 16.1362 51.7056C16.1245 51.9259 16.0427 52.1163 15.8909 52.2769L15.8592 52.2241L16.4356 51.944L16.7177 52.4149C16.6126 52.4646 16.5077 52.5146 16.4027 52.5645C16.3027 52.6157 16.2062 52.669 16.1134 52.7246L14.2734 53.8272L13.9827 53.3418L14.5208 53.0195L14.5525 53.0723C14.3424 53.1286 14.1366 53.1083 13.935 53.0114C13.7384 52.9158 13.5788 52.7657 13.456 52.5606ZM13.9074 52.4534C14.0322 52.6616 14.2056 52.784 14.4278 52.8206C14.6518 52.8603 14.908 52.794 15.1963 52.6212C15.4845 52.4486 15.6622 52.255 15.7297 52.0406C15.8022 51.8273 15.7761 51.6166 15.6514 51.4085C15.5248 51.197 15.3494 51.0715 15.1253 51.0316C14.9063 50.9931 14.6527 51.0602 14.3645 51.2329C14.0763 51.4056 13.8958 51.5985 13.8235 51.8116C13.7508 52.0249 13.779 52.2388 13.9074 52.4534Z" fill="white"/>
<path d="M19.731 60.5487L21.0364 58.8467C21.1023 58.7609 21.165 58.6699 21.2243 58.5744C21.2887 58.4779 21.3518 58.3804 21.4133 58.2817L21.8488 58.6158L21.5275 59.1176L21.4742 59.0766C21.6613 58.9615 21.8527 58.9083 22.0483 58.9171C22.2468 58.9281 22.4364 59.003 22.6171 59.1417C22.8009 59.2826 22.9163 59.4417 22.9637 59.6192C23.0163 59.796 22.9955 59.9918 22.9013 60.2066L22.8302 60.1521C23.0145 60.0346 23.214 59.983 23.4288 59.9973C23.6461 60.0086 23.848 60.0859 24.0346 60.229C24.2835 60.4199 24.4144 60.6356 24.4276 60.8763C24.4407 61.1168 24.3301 61.3898 24.0961 61.6949L23.0327 63.0813L22.5839 62.7371L23.6303 61.3728C23.7803 61.1773 23.8541 61.0105 23.8518 60.8723C23.8549 60.7334 23.7823 60.6071 23.6342 60.4935C23.4624 60.3617 23.2805 60.3164 23.0891 60.3577C22.8974 60.3989 22.7244 60.5203 22.5698 60.7218L21.6019 61.9838L21.1531 61.6395L22.1994 60.2752C22.3493 60.0797 22.4233 59.9129 22.4211 59.7746C22.4239 59.6359 22.3514 59.5097 22.2032 59.3959C22.0314 59.264 21.8512 59.22 21.6627 59.2635C21.474 59.307 21.3024 59.4295 21.1478 59.6309L20.1798 60.893L19.731 60.5487Z" fill="white"/>
<path d="M31.3581 67.2153C31.0331 67.1157 30.8155 66.9532 30.7049 66.728C30.599 66.5003 30.6024 66.2026 30.715 65.8349L31.2254 64.1697L31.7663 64.3354L31.259 65.9899C31.1902 66.2148 31.1857 66.395 31.2458 66.5305C31.3057 66.6661 31.4303 66.7629 31.6195 66.8209C31.8337 66.8865 32.0287 66.8683 32.2046 66.7659C32.3803 66.6636 32.5044 66.4948 32.5766 66.2591L33.0459 64.7277L33.5867 64.8934L32.7596 67.5921L32.2349 67.4314L32.4121 66.853L32.4817 66.8743C32.3456 67.0513 32.1783 67.17 31.9801 67.2302C31.7832 67.2869 31.5758 67.2821 31.3581 67.2153Z" fill="white"/>
<path d="M41.2975 68.7395C41.0513 68.7492 40.8307 68.7001 40.6358 68.5919C40.4447 68.4837 40.2927 68.3216 40.1794 68.1055C40.07 67.8895 40.0093 67.6303 39.9973 67.3282C39.985 67.0223 40.0251 66.7591 40.1172 66.5386C40.2131 66.3182 40.352 66.1465 40.5339 66.0233C40.7195 65.8964 40.9353 65.8281 41.1816 65.8182C41.424 65.8086 41.6392 65.8618 41.8268 65.9777C42.0181 66.0897 42.1478 66.2489 42.2158 66.4554L42.1487 66.4582L42.0723 64.533L42.6375 64.5106L42.8009 68.6293L42.2412 68.6515L42.216 68.0136L42.2831 68.011C42.2281 68.2261 42.1117 68.3988 41.9337 68.5293C41.7558 68.6596 41.5436 68.7297 41.2975 68.7395ZM41.4199 68.2918C41.6624 68.2821 41.8548 68.1886 41.9972 68.0111C42.1397 67.8335 42.2042 67.5769 42.1909 67.2411C42.1776 66.9053 42.0929 66.6565 41.937 66.4946C41.781 66.3288 41.5817 66.2509 41.3393 66.2605C41.0931 66.2702 40.8988 66.3639 40.7562 66.5414C40.6175 66.715 40.5547 66.9697 40.5681 67.3055C40.5813 67.6413 40.6642 67.8921 40.8165 68.0579C40.9725 68.2236 41.1737 68.3016 41.4199 68.2918Z" fill="white"/>
<path d="M52.3053 66.6524C52.0746 66.7491 51.8508 66.78 51.6339 66.7453C51.4171 66.7107 51.2179 66.6119 51.0363 66.4491C50.8582 66.2848 50.7109 66.0633 50.594 65.7843C50.4758 65.5019 50.4214 65.2414 50.4307 65.0027C50.4435 64.7625 50.5137 64.553 50.6411 64.3742C50.7671 64.1919 50.9456 64.0525 51.1763 63.9558C51.4036 63.8606 51.6254 63.8344 51.8418 63.8774C52.0581 63.9205 52.2349 64.0286 52.3722 64.2017L52.3154 64.2256L52.1204 63.615L52.6268 63.403C52.6611 63.5141 52.6954 63.6252 52.7297 63.7363C52.7661 63.8426 52.8053 63.9455 52.847 64.0454L53.6755 66.024L53.1538 66.2425L52.9116 65.6639L52.9684 65.6401C52.994 65.856 52.9445 66.0569 52.82 66.2427C52.6973 66.4234 52.5258 66.56 52.3053 66.6524ZM52.2637 66.1903C52.4875 66.0965 52.6335 65.9422 52.7015 65.7275C52.7728 65.5114 52.7436 65.2485 52.6139 64.9385C52.484 64.6284 52.3179 64.4249 52.1152 64.3276C51.9146 64.2255 51.7023 64.2213 51.4785 64.315C51.2511 64.4102 51.1018 64.5658 51.0304 64.7819C50.961 64.993 50.9911 65.2538 51.121 65.5636C51.2507 65.8736 51.416 66.0797 51.6167 66.1819C51.8173 66.2839 52.033 66.2868 52.2637 66.1903Z" fill="white"/>
<path d="M61.8911 60.8502C61.7086 61.0214 61.5099 61.1287 61.2945 61.172C61.0792 61.2152 60.858 61.1923 60.631 61.1031C60.4068 61.0115 60.1913 60.8554 59.9844 60.6348C59.7749 60.4115 59.6329 60.1864 59.5582 59.9594C59.4863 59.73 59.4789 59.5092 59.5358 59.297C59.5902 59.0822 59.7086 58.8892 59.8911 58.718C60.0709 58.5494 60.2696 58.4476 60.4873 58.4121C60.7049 58.3768 60.9085 58.4164 61.0975 58.5308L61.0526 58.5729L60.6567 58.069L61.057 57.6934C61.128 57.7855 61.1991 57.8775 61.27 57.9697C61.3413 58.0564 61.4139 58.1394 61.4879 58.2184L62.9553 59.7829L62.5428 60.1698L62.1137 59.7122L62.1586 59.6701C62.2581 59.8635 62.282 60.069 62.2301 60.2866C62.1785 60.4989 62.0654 60.6868 61.8911 60.8502ZM61.6905 60.4318C61.8676 60.2658 61.9504 60.0703 61.939 59.8454C61.9305 59.6179 61.8112 59.3816 61.5814 59.1366C61.3514 58.8915 61.1247 58.7589 60.9008 58.7384C60.677 58.7127 60.4767 58.783 60.2997 58.949C60.12 59.1176 60.0345 59.3156 60.0431 59.5431C60.0518 59.7652 60.1711 59.9989 60.4009 60.244C60.6309 60.4891 60.8576 60.6244 61.0814 60.65C61.3051 60.6758 61.5081 60.6029 61.6905 60.4318Z" fill="white"/>
<path d="M69.3737 53.6649L68.9044 53.5719C68.9523 53.3989 68.9799 53.2491 68.9869 53.1223C68.9957 52.9923 68.9803 52.8725 68.9404 52.7633C68.9037 52.6559 68.8404 52.5472 68.7503 52.4371L68.522 52.1601L68.7204 52.2762L65.606 52.0365L65.8852 51.5001L68.4113 51.7424L68.3414 51.8766L66.6953 49.9454L66.9643 49.4288L69.0486 51.9735C69.1763 52.1327 69.2748 52.2829 69.3442 52.4244C69.4137 52.5658 69.4582 52.7028 69.4776 52.8348C69.4973 52.9672 69.4967 53.1016 69.476 53.2383C69.4553 53.3748 69.4213 53.517 69.3737 53.6649Z" fill="white"/>
<path d="M72.1222 42.4263C72.0482 42.8756 71.8631 43.2084 71.5665 43.4244C71.2699 43.6405 70.8967 43.7117 70.4472 43.6377C70.1563 43.5897 69.9112 43.4928 69.7119 43.3464C69.5133 43.1965 69.3715 43.0123 69.2863 42.7939C69.1981 42.5714 69.1757 42.3274 69.2194 42.0622C69.2624 41.8005 69.3537 41.5905 69.4933 41.4318C69.6329 41.2732 69.8117 41.1645 70.0295 41.1057C70.2434 41.0463 70.4869 41.039 70.7595 41.0839L70.9364 41.1131L70.5909 43.2129L70.2704 43.1602L70.5531 41.4416L70.6096 41.5473C70.3333 41.5019 70.1091 41.5294 69.9376 41.6297C69.7629 41.7258 69.6563 41.89 69.6181 42.1222C69.5758 42.3799 69.6332 42.5938 69.7907 42.7635C69.9446 42.9325 70.1781 43.0429 70.4913 43.0944L70.5464 43.1035C70.8744 43.1574 71.1342 43.1188 71.326 42.9876C71.5185 42.8529 71.639 42.638 71.6875 42.3433C71.7141 42.1813 71.7169 42.0266 71.6957 41.8793C71.6715 41.7278 71.6165 41.5786 71.5309 41.4322L71.9422 41.3126C72.0352 41.4603 72.0978 41.6315 72.1301 41.8259C72.1588 42.0198 72.1561 42.2199 72.1222 42.4263Z" fill="white"/>
</g>
<defs>
<filter id="filter0_d_30_583" x="0.137695" y="0.0344238" width="81.9258" height="81.931" filterUnits="userSpaceOnUse" color-interpolation-filters="sRGB">
<feFlood flood-opacity="0" result="BackgroundImageFix"/>
<feColorMatrix in="SourceAlpha" type="matrix" values="0 0 0 0 0 0 0 0 0 0 0 0 0 0 0 0 0 0 127 0" result="hardAlpha"/>
<feOffset dy="4"/>
<feGaussianBlur stdDeviation="2"/>
<feComposite in2="hardAlpha" operator="out"/>
<feColorMatrix type="matrix" values="0 0 0 0 0 0 0 0 0 0 0 0 0 0 0 0 0 0 0.25 0"/>
<feBlend mode="normal" in2="BackgroundImageFix" result="effect1_dropShadow_30_583"/>
<feBlend mode="normal" in="SourceGraphic" in2="effect1_dropShadow_30_583" result="shape"/>
</filter>
</defs>
</svg>
