<svg width="70" height="70" viewBox="0 0 70 70" fill="none" xmlns="http://www.w3.org/2000/svg">
<g filter="url(#filter0_d_30_1625)">
<path fill-rule="evenodd" clip-rule="evenodd" d="M34.8025 61.6092C51.8143 61.6092 65.605 47.8175 65.605 30.8046C65.605 13.7917 51.8143 0 34.8025 0C17.7907 0 4 13.7917 4 30.8046C4 47.8175 17.7907 61.6092 34.8025 61.6092ZM42.577 28.7656C42.577 30.8277 40.9054 32.4992 38.8433 32.4992H36.3369C34.0838 32.4992 32.2818 29.554 32.2818 27.3009V23.5257C32.2818 21.4637 33.9535 19.7921 36.0154 19.7921H38.8434C40.9054 19.7921 42.577 21.4637 42.577 23.5257V28.7656ZM51.06 19.7921C52.0315 19.7921 52.819 19.0046 52.819 18.0331C52.819 17.0616 52.0315 16.2741 51.06 16.2741H18.545C17.5735 16.2741 16.786 17.0616 16.786 18.0331C16.786 19.0046 17.5735 19.7921 18.545 19.7921H24.4089C26.4709 19.7921 28.1425 21.4637 28.1425 23.5257V26.9858C28.1425 28.7011 27.771 29.9614 27.0281 30.7664C26.3206 31.5366 24.9585 31.9217 22.9419 31.9217H21.9358C20.5571 31.9217 19.4394 33.0394 19.4394 34.418C19.4394 34.913 19.5866 35.3967 19.8621 35.8079L28.7444 49.0616C29.1311 49.6385 29.7799 49.9847 30.4744 49.9847C32.1455 49.9847 33.1359 48.1156 32.1975 46.7328L29.4332 42.6597C27.6047 39.9655 29.8989 36.0574 33.1548 36.069C33.322 36.0696 33.4909 36.0699 33.6616 36.0699H38.8434C40.9054 36.0699 42.577 37.7414 42.577 39.8036V47.915C42.577 49.0581 43.5036 49.9847 44.6467 49.9847C45.7897 49.9847 46.7163 49.0581 46.7163 47.915V22.8435C46.7163 21.1583 48.0825 19.7921 49.7676 19.7921H51.06Z" fill="#90A955"/>
<path d="M8.77989 35.188C8.7318 34.928 8.7203 34.6864 8.74559 34.4633C8.77382 34.2398 8.83469 34.0387 8.92821 33.86L9.33428 33.9511C9.27396 34.0698 9.22798 34.189 9.19635 34.3088C9.16527 34.4316 9.14752 34.5583 9.1432 34.6889C9.14246 34.8218 9.15598 34.9633 9.18375 35.1131C9.2312 35.3703 9.31193 35.5499 9.42577 35.6523C9.54016 35.7577 9.67239 35.7965 9.82228 35.7687C9.95074 35.7451 10.0423 35.6838 10.0969 35.5851C10.1518 35.4894 10.1814 35.3322 10.1851 35.1131L10.1936 34.5943C10.1998 34.2861 10.2583 34.0459 10.3689 33.8736C10.483 33.7039 10.6609 33.5965 10.9026 33.5518C11.0984 33.5156 11.2794 33.536 11.4455 33.6128C11.6115 33.6896 11.7514 33.8125 11.8648 33.9815C11.9789 34.1532 12.0589 34.3632 12.1047 34.611C12.1471 34.8404 12.1525 35.0578 12.1209 35.263C12.0922 35.4676 12.0258 35.6476 11.9216 35.8029L11.5302 35.714C11.624 35.5543 11.6842 35.3911 11.7104 35.2251C11.7396 35.0583 11.7358 34.8754 11.6991 34.6766C11.6555 34.441 11.5723 34.2649 11.4496 34.1484C11.3273 34.0349 11.1821 33.9938 11.0138 34.0249C10.8792 34.0498 10.7813 34.1106 10.72 34.2073C10.6593 34.3072 10.6273 34.4587 10.6238 34.6618L10.6199 35.1798C10.6128 35.5007 10.5555 35.7471 10.448 35.9188C10.3436 36.09 10.1751 36.1971 9.94265 36.2401C9.75607 36.2746 9.58301 36.2544 9.42357 36.1795C9.26476 36.1076 9.12858 35.9873 9.01511 35.8183C8.90467 35.649 8.82623 35.4388 8.77989 35.188Z" fill="white"/>
<path d="M11.765 43.7718C11.6579 43.593 11.6057 43.4121 11.6085 43.229C11.6113 43.0461 11.669 42.87 11.7818 42.7009C11.896 42.5345 12.0613 42.3865 12.2775 42.257C12.4962 42.1259 12.7047 42.05 12.9027 42.0293C13.1022 42.0113 13.2834 42.0442 13.4461 42.1281C13.6114 42.2104 13.7477 42.3409 13.8549 42.5198C13.9603 42.6959 14.0082 42.8758 13.9985 43.0593C13.9887 43.2429 13.9206 43.4015 13.7941 43.5354L13.7677 43.4914L14.248 43.258L14.4831 43.6504C14.3955 43.6918 14.3081 43.7335 14.2206 43.7751C14.1372 43.8177 14.0569 43.8621 13.9795 43.9085L12.4462 44.8273L12.2039 44.4228L12.6524 44.1542L12.6788 44.1982C12.5037 44.2451 12.3322 44.2282 12.1642 44.1475C12.0003 44.0678 11.8674 43.9427 11.765 43.7718ZM12.1412 43.6825C12.2452 43.856 12.3897 43.958 12.5749 43.9885C12.7615 44.0216 12.975 43.9663 13.2152 43.8223C13.4554 43.6785 13.6035 43.5171 13.6597 43.3385C13.7201 43.1607 13.6984 42.9852 13.5945 42.8118C13.489 42.6355 13.3429 42.5309 13.1561 42.4976C12.9736 42.4655 12.7623 42.5215 12.5221 42.6654C12.2819 42.8093 12.1315 42.9701 12.0712 43.1477C12.0107 43.3254 12.0342 43.5036 12.1412 43.6825Z" fill="white"/>
<path d="M16.9943 50.4285L18.0822 49.0102C18.1371 48.9387 18.1893 48.8629 18.2387 48.7833C18.2924 48.7029 18.345 48.6216 18.3962 48.5394L18.7591 48.8178L18.4914 49.236L18.447 49.2018C18.6029 49.1059 18.7624 49.0615 18.9254 49.0689C19.0908 49.0781 19.2488 49.1404 19.3994 49.256C19.5525 49.3735 19.6487 49.5061 19.6882 49.654C19.732 49.8013 19.7147 49.9644 19.6362 50.1435L19.577 50.098C19.7305 50.0001 19.8968 49.9572 20.0758 49.969C20.2569 49.9785 20.4252 50.0429 20.5807 50.1621C20.788 50.3212 20.8972 50.501 20.9081 50.7015C20.919 50.902 20.8269 51.1295 20.6319 51.3838L19.7457 52.5391L19.3717 52.2523L20.2437 51.1153C20.3687 50.9524 20.4302 50.8134 20.4283 50.6982C20.4309 50.5825 20.3704 50.4773 20.247 50.3826C20.1038 50.2728 19.9522 50.235 19.7927 50.2694C19.633 50.3038 19.4888 50.4049 19.36 50.5728L18.5533 51.6245L18.1794 51.3376L19.0513 50.2007C19.1762 50.0377 19.2378 49.8987 19.236 49.7835C19.2384 49.6679 19.178 49.5627 19.0545 49.4679C18.9113 49.358 18.7612 49.3213 18.604 49.3575C18.4468 49.3938 18.3038 49.4959 18.175 49.6638L17.3683 50.7155L16.9943 50.4285Z" fill="white"/>
<path d="M26.6839 55.9841C26.4131 55.901 26.2318 55.7657 26.1395 55.578C26.0514 55.3882 26.0541 55.1401 26.148 54.8337L26.5733 53.446L27.0241 53.5842L26.6013 54.9629C26.544 55.1503 26.5403 55.3005 26.5903 55.4134C26.6402 55.5264 26.7441 55.6071 26.9018 55.6554C27.0802 55.71 27.2427 55.6949 27.3893 55.6095C27.5358 55.5243 27.6391 55.3836 27.6994 55.1872L28.0904 53.9111L28.5411 54.0492L27.8518 56.2981L27.4146 56.1641L27.5623 55.6822L27.6203 55.6999C27.5068 55.8474 27.3674 55.9463 27.2023 55.9965C27.0381 56.0438 26.8653 56.0397 26.6839 55.9841Z" fill="white"/>
<path d="M34.9666 57.2543C34.7615 57.2624 34.5777 57.2214 34.4153 57.1313C34.256 57.0411 34.1293 56.906 34.035 56.726C33.9437 56.5459 33.8932 56.3299 33.8831 56.0782C33.8729 55.8233 33.9063 55.604 33.9831 55.4202C34.063 55.2365 34.1788 55.0934 34.3303 54.9908C34.485 54.8851 34.6648 54.8282 34.8701 54.8199C35.0721 54.8119 35.2514 54.8562 35.4077 54.9528C35.5672 55.0461 35.6752 55.1788 35.7319 55.3509L35.676 55.3532L35.6123 53.7489L36.0833 53.7302L36.2195 57.1625L35.7531 57.181L35.7321 56.6494L35.788 56.6472C35.7422 56.8265 35.6452 56.9704 35.4968 57.0791C35.3486 57.1877 35.1718 57.2461 34.9666 57.2543ZM35.0687 56.8812C35.2707 56.8731 35.4311 56.7952 35.5497 56.6473C35.6685 56.4993 35.7222 56.2854 35.7112 56.0056C35.7001 55.7258 35.6295 55.5185 35.4996 55.3836C35.3696 55.2453 35.2035 55.1804 35.0015 55.1884C34.7963 55.1965 34.6344 55.2746 34.5156 55.4225C34.4 55.5672 34.3477 55.7794 34.3588 56.0593C34.3699 56.3391 34.4389 56.5482 34.5658 56.6863C34.6958 56.8244 34.8635 56.8894 35.0687 56.8812Z" fill="white"/>
<path d="M44.1398 55.515C43.9476 55.5955 43.7611 55.6213 43.5803 55.5924C43.3996 55.5635 43.2336 55.4812 43.0823 55.3456C42.9339 55.2087 42.8111 55.0241 42.7137 54.7916C42.6152 54.5563 42.5699 54.3392 42.5776 54.1403C42.5883 53.9401 42.6468 53.7655 42.753 53.6165C42.858 53.4646 43.0067 53.3484 43.199 53.2678C43.3884 53.1885 43.5732 53.1667 43.7535 53.2025C43.9338 53.2384 44.0812 53.3285 44.1956 53.4728L44.1482 53.4927L43.9857 52.9839L44.4077 52.8071C44.4363 52.8997 44.4649 52.9923 44.4935 53.0849C44.5238 53.1735 44.5565 53.2593 44.5912 53.3425L45.2816 54.9913L44.8469 55.1734L44.645 54.6913L44.6924 54.6714C44.7137 54.8514 44.6724 55.0187 44.5687 55.1736C44.4665 55.3242 44.3236 55.438 44.1398 55.515ZM44.1052 55.1299C44.2916 55.0517 44.4133 54.9232 44.4699 54.7442C44.5293 54.5642 44.5051 54.3451 44.3969 54.0868C44.2887 53.8284 44.1503 53.6587 43.9814 53.5777C43.8142 53.4926 43.6373 53.4891 43.4508 53.5671C43.2613 53.6465 43.1369 53.7761 43.0774 53.9563C43.0196 54.1322 43.0447 54.3495 43.1529 54.6077C43.2609 54.866 43.3987 55.0378 43.5659 55.1229C43.7331 55.208 43.9129 55.2103 44.1052 55.1299Z" fill="white"/>
<path d="M52.1278 50.6798C51.9757 50.8224 51.8101 50.9119 51.6306 50.9479C51.4512 50.984 51.2668 50.9648 51.0777 50.8905C50.8908 50.8142 50.7112 50.6841 50.5388 50.5003C50.3643 50.3142 50.2459 50.1266 50.1837 49.9374C50.1237 49.7463 50.1176 49.5623 50.165 49.3854C50.2104 49.2064 50.309 49.0456 50.4611 48.903C50.6109 48.7625 50.7765 48.6776 50.9579 48.6481C51.1393 48.6186 51.3089 48.6516 51.4665 48.7469L51.429 48.782L51.0991 48.3621L51.4327 48.0491C51.4918 48.1259 51.551 48.2025 51.6102 48.2793C51.6696 48.3516 51.7301 48.4208 51.7918 48.4866L53.0146 49.7903L52.6709 50.1128L52.3133 49.7315L52.3507 49.6963C52.4336 49.8575 52.4535 50.0288 52.4103 50.2101C52.3672 50.387 52.273 50.5436 52.1278 50.6798ZM51.9606 50.3311C52.1082 50.1928 52.1772 50.0299 52.1677 49.8425C52.1606 49.6528 52.0612 49.456 51.8697 49.2517C51.678 49.0475 51.4891 48.937 51.3025 48.92C51.116 48.8985 50.9491 48.9571 50.8016 49.0954C50.6518 49.2359 50.5806 49.401 50.5877 49.5905C50.595 49.7756 50.6944 49.9704 50.8859 50.1746C51.0776 50.3788 51.2665 50.4916 51.453 50.513C51.6394 50.5344 51.8086 50.4737 51.9606 50.3311Z" fill="white"/>
<path d="M58.3634 44.692L57.9723 44.6146C58.0122 44.4704 58.0352 44.3455 58.0411 44.2399C58.0485 44.1316 58.0356 44.0317 58.0023 43.9407C57.9718 43.8512 57.919 43.7606 57.8439 43.6688L57.6537 43.438L57.819 43.5348L55.2236 43.335L55.4564 42.8881L57.5614 43.09L57.5032 43.2018L56.1314 41.5924L56.3556 41.162L58.0925 43.2825C58.1989 43.4152 58.281 43.5404 58.3388 43.6583C58.3968 43.7762 58.4338 43.8903 58.45 44.0003C58.4664 44.1106 58.4659 44.2226 58.4486 44.3365C58.4314 44.4503 58.4031 44.5688 58.3634 44.692Z" fill="white"/>
<path d="M60.6539 35.3265C60.5923 35.7009 60.438 35.9783 60.1908 36.1583C59.9437 36.3384 59.6327 36.3977 59.2582 36.3361C59.0157 36.2961 58.8114 36.2152 58.6454 36.0933C58.4799 35.9683 58.3617 35.8149 58.2907 35.6329C58.2172 35.4474 58.1986 35.2441 58.235 35.0231C58.2708 34.805 58.3469 34.63 58.4632 34.4978C58.5795 34.3656 58.7285 34.275 58.91 34.226C59.0883 34.1765 59.2912 34.1705 59.5184 34.2079L59.6658 34.2322L59.3779 35.982L59.1108 35.9381L59.3463 34.5059L59.3934 34.594C59.1632 34.5562 58.9764 34.5791 58.8334 34.6627C58.6879 34.7428 58.599 34.8796 58.5672 35.0731C58.532 35.2879 58.5798 35.4661 58.711 35.6075C58.8393 35.7484 59.0339 35.8403 59.2948 35.8833L59.3408 35.8908C59.6141 35.9358 59.8307 35.9036 59.9905 35.7943C60.1508 35.682 60.2513 35.503 60.2917 35.2573C60.3139 35.1224 60.3162 34.9934 60.2985 34.8707C60.2784 34.7444 60.2325 34.6201 60.1612 34.4981L60.5039 34.3984C60.5815 34.5215 60.6336 34.6642 60.6605 34.8262C60.6845 34.9877 60.6822 35.1545 60.6539 35.3265Z" fill="white"/>
</g>
<defs>
<filter id="filter0_d_30_1625" x="0" y="0" width="69.605" height="69.6093" filterUnits="userSpaceOnUse" color-interpolation-filters="sRGB">
<feFlood flood-opacity="0" result="BackgroundImageFix"/>
<feColorMatrix in="SourceAlpha" type="matrix" values="0 0 0 0 0 0 0 0 0 0 0 0 0 0 0 0 0 0 127 0" result="hardAlpha"/>
<feOffset dy="4"/>
<feGaussianBlur stdDeviation="2"/>
<feComposite in2="hardAlpha" operator="out"/>
<feColorMatrix type="matrix" values="0 0 0 0 0 0 0 0 0 0 0 0 0 0 0 0 0 0 0.25 0"/>
<feBlend mode="normal" in2="BackgroundImageFix" result="effect1_dropShadow_30_1625"/>
<feBlend mode="normal" in="SourceGraphic" in2="effect1_dropShadow_30_1625" result="shape"/>
</filter>
</defs>
</svg>
