<svg width="43" height="41" viewBox="0 0 43 41" fill="none" xmlns="http://www.w3.org/2000/svg">
<path d="M42.4415 20.9067C42.4415 19.5333 42.3009 18.1156 42.0666 16.7864H21.7718V24.6284H33.3956C32.9269 27.1537 31.3802 29.369 29.0835 30.7867L36.0203 35.8818C40.098 32.2931 42.4415 27.0651 42.4415 20.9067Z" fill="#4280EF"/>
<path d="M21.7723 40.7564C27.5842 40.7564 32.4587 38.9399 36.0208 35.8386L29.0841 30.7878C27.1624 32.0284 24.6783 32.7372 21.7723 32.7372C16.1479 32.7372 11.414 29.1485 9.67981 24.3636L2.55554 29.5473C6.21142 36.4145 13.6169 40.7564 21.7723 40.7564Z" fill="#34A353"/>
<path d="M9.67982 24.3181C8.78928 21.7928 8.78928 19.0459 9.67982 16.5205L2.55555 11.2925C-0.491011 17.0522 -0.491011 23.8308 2.55555 29.5461L9.67982 24.3181Z" fill="#F6B704"/>
<path d="M21.7723 8.14754C24.8189 8.10323 27.8186 9.21085 30.0215 11.2046L36.1615 5.35634C32.2712 1.90057 27.1155 0.0397662 21.7723 0.084071C13.6169 0.084071 6.21142 4.42594 2.55554 11.2932L9.67981 16.5211C11.414 11.6919 16.1479 8.14754 21.7723 8.14754Z" fill="#E54335"/>
</svg>
