<svg width="71" height="111" viewBox="0 0 71 111" fill="none" xmlns="http://www.w3.org/2000/svg">
<path d="M43 9L62 68.4626C47.1595 74.2658 38.842 74.7542 24 68.4626L43 9Z" fill="#96B64B"/>
<line x1="43.5" y1="27" x2="43.5" y2="107" stroke="#31572C"/>
<line x1="39.2325" y1="38.8984" x2="43.111" y2="42.7769" stroke="#31572C"/>
<line y1="-0.5" x2="5.48503" y2="-0.5" transform="matrix(-0.707107 0.707107 0.707107 0.707107 47.4121 42.3555)" stroke="#31572C"/>
<line x1="50.0714" y1="51.2614" x2="43.0901" y2="57.467" stroke="#31572C"/>
<path d="M43 9L62 68.4626C47.1595 74.2658 38.842 74.7542 24 68.4626L43 9Z" fill="white" fill-opacity="0.2"/>
<line x1="43.5" y1="27" x2="43.5" y2="107" stroke="#31572C"/>
<line x1="39.2325" y1="38.8984" x2="43.111" y2="42.7769" stroke="#31572C"/>
<line y1="-0.5" x2="5.48503" y2="-0.5" transform="matrix(-0.707107 0.707107 0.707107 0.707107 47.4121 42.3555)" stroke="#31572C"/>
<line x1="50.0714" y1="51.2614" x2="43.0901" y2="57.467" stroke="#31572C"/>
<path d="M24.6817 0L49.3634 77.25C30.085 84.7891 19.2804 85.4237 0 77.25L24.6817 0Z" fill="#31572C"/>
<line x1="24.6816" y1="23" x2="24.6816" y2="107" stroke="#4F772D"/>
<line x1="19.5352" y1="38.6464" x2="24.5352" y2="43.6464" stroke="#4F772D"/>
<line y1="-0.5" x2="7.07107" y2="-0.5" transform="matrix(-0.707107 0.707107 0.707107 0.707107 30.1816 43)" stroke="#4F772D"/>
<line x1="33.5138" y1="54.3737" x2="24.5138" y2="62.3737" stroke="#4F772D"/>
<path d="M24.6817 0L49.3634 77.25C30.085 84.7891 19.2804 85.4237 0 77.25L24.6817 0Z" fill="white" fill-opacity="0.3"/>
<path d="M52 27L71 86.4626C56.1595 92.2658 47.842 92.7542 33 86.4626L52 27Z" fill="#4F772D"/>
<path d="M52.5 45L52.5 110.5" stroke="#31572C"/>
<line x1="48.2325" y1="56.8984" x2="52.111" y2="60.7769" stroke="#31572C"/>
<line y1="-0.5" x2="5.48503" y2="-0.5" transform="matrix(-0.707107 0.707107 0.707107 0.707107 56.4121 60.3555)" stroke="#31572C"/>
<line x1="59.0714" y1="69.2614" x2="52.0901" y2="75.467" stroke="#31572C"/>
<path d="M52 27L71 86.4626C56.1595 92.2658 47.842 92.7542 33 86.4626L52 27Z" fill="white" fill-opacity="0.2"/>
</svg>
