<svg width="75" height="75" viewBox="0 0 75 75" fill="none" xmlns="http://www.w3.org/2000/svg">
<g filter="url(#filter0_d_4_1585)">
<path fill-rule="evenodd" clip-rule="evenodd" d="M37.3599 66.5C55.7831 66.5 70.7181 51.7674 70.7181 33.5937C70.7181 15.4201 55.7831 0.6875 37.3599 0.6875C18.9366 0.6875 4.00163 15.4201 4.00163 33.5937C4.00163 51.7674 18.9366 66.5 37.3599 66.5ZM45.7799 31.4045C45.7799 33.6136 43.989 35.4045 41.7799 35.4045H38.9493C36.5502 35.4045 34.6305 32.2505 34.6305 29.8514V25.8304C34.6305 23.6212 36.4214 21.8304 38.6305 21.8304H41.7799C43.989 21.8304 45.7799 23.6212 45.7799 25.8304V31.4045ZM54.9928 21.8304C56.0305 21.8304 56.8718 20.9891 56.8718 19.9513C56.8718 18.9135 56.0305 18.0723 54.9928 18.0723H19.728C18.6902 18.0723 17.849 18.9135 17.849 19.9513C17.849 20.9891 18.6902 21.8304 19.728 21.8304H26.1478C28.3569 21.8304 30.1478 23.6212 30.1478 25.8304V29.5149C30.1478 31.3472 29.7455 32.6934 28.9409 33.5535C28.1746 34.3761 26.6995 34.7875 24.5156 34.7875H23.3821C21.9133 34.7875 20.7225 35.9782 20.7225 37.4471C20.7225 37.9801 20.8827 38.5009 21.1822 38.9418L30.8014 53.0993C31.2194 53.7146 31.9149 54.0829 32.6587 54.0829C34.4671 54.0829 35.5336 52.0544 34.5086 50.5646L31.569 46.2922C29.587 43.4116 32.0354 39.2043 35.532 39.2176C35.7274 39.2183 35.925 39.2187 36.1248 39.2187H41.7799C43.989 39.2187 45.7799 41.0095 45.7799 43.2187V51.8415C45.7799 53.0794 46.7834 54.0829 48.0213 54.0829C49.2592 54.0829 50.2626 53.0794 50.2626 51.8415V25.135C50.2626 23.3099 51.7422 21.8304 53.5672 21.8304H54.9928Z" fill="#90A955"/>
</g>
<defs>
<filter id="filter0_d_4_1585" x="0.00163269" y="0.6875" width="74.7165" height="73.8125" filterUnits="userSpaceOnUse" color-interpolation-filters="sRGB">
<feFlood flood-opacity="0" result="BackgroundImageFix"/>
<feColorMatrix in="SourceAlpha" type="matrix" values="0 0 0 0 0 0 0 0 0 0 0 0 0 0 0 0 0 0 127 0" result="hardAlpha"/>
<feOffset dy="4"/>
<feGaussianBlur stdDeviation="2"/>
<feComposite in2="hardAlpha" operator="out"/>
<feColorMatrix type="matrix" values="0 0 0 0 0 0 0 0 0 0 0 0 0 0 0 0 0 0 0.25 0"/>
<feBlend mode="normal" in2="BackgroundImageFix" result="effect1_dropShadow_4_1585"/>
<feBlend mode="normal" in="SourceGraphic" in2="effect1_dropShadow_4_1585" result="shape"/>
</filter>
</defs>
</svg>
