<svg width="163" height="71" viewBox="0 0 163 71" fill="none" xmlns="http://www.w3.org/2000/svg">
<path d="M55.7496 27.6636C54.6386 31.4102 53.4314 35.4636 52.5829 38.2647C52.2753 39.3743 53.0224 40.4989 54.1645 40.6455L54.6059 40.7021C55.6874 40.8409 56.7156 40.1934 57.0575 39.158L61.3908 26.0381C61.4679 25.8047 61.686 25.6471 61.9319 25.6471C62.31 25.6471 62.5832 26.0086 62.48 26.3723L55.6914 50.3088H61.52V66.8914C61.52 68.6082 62.9118 70 64.6286 70C66.3454 70 67.7371 68.6082 67.7371 66.8914V51.1831C67.7371 50.7003 68.1286 50.3088 68.6114 50.3088C69.0943 50.3088 69.4857 50.7003 69.4857 51.1831V67.0857C69.4857 68.6952 70.7905 70 72.4 70C74.0095 70 75.3143 68.6952 75.3143 67.0857V50.3088H81.3371L74.8013 26.6051C74.6684 26.1232 75.031 25.6471 75.5309 25.6471C75.8639 25.6471 76.1578 25.8647 76.2549 26.1832L80.2209 39.1917C80.5378 40.231 81.4967 40.9412 82.5833 40.9412C84.2662 40.9412 85.4562 39.2948 84.9284 37.6969L81.0232 25.8732C79.4712 21.174 75.0803 18 70.1314 18H68.6838C62.7084 18 57.4485 21.9348 55.7496 27.6636Z" fill="#0075BB"/>
<path d="M89.7496 27.6636C88.6386 31.4102 87.4314 35.4636 86.5829 38.2647C86.2753 39.3743 87.0224 40.4989 88.1645 40.6455L88.6059 40.7021C89.6874 40.8409 90.7156 40.1934 91.0575 39.158L95.3908 26.0381C95.4679 25.8047 95.686 25.6471 95.9319 25.6471C96.31 25.6471 96.5832 26.0086 96.48 26.3723L89.6914 50.3088H95.52V66.8914C95.52 68.6082 96.9118 70 98.6286 70C100.345 70 101.737 68.6082 101.737 66.8914V51.1831C101.737 50.7003 102.129 50.3088 102.611 50.3088C103.094 50.3088 103.486 50.7003 103.486 51.1831V67.0857C103.486 68.6952 104.79 70 106.4 70C108.01 70 109.314 68.6952 109.314 67.0857V50.3088H115.337L108.801 26.6051C108.668 26.1232 109.031 25.6471 109.531 25.6471C109.864 25.6471 110.158 25.8647 110.255 26.1832L114.221 39.1917C114.538 40.231 115.497 40.9412 116.583 40.9412C118.266 40.9412 119.456 39.2948 118.928 37.6969L115.023 25.8732C113.471 21.174 109.08 18 104.131 18H102.684C96.7084 18 91.4485 21.9348 89.7496 27.6636Z" fill="#0075BB"/>
<path d="M43.2221 43.7084L42.1406 43.6787C40.3401 43.6294 38.6755 42.709 37.6764 41.2102L35.7234 38.2808C35.2397 37.5552 34.2828 37.3176 33.5158 37.7326C32.6838 38.1829 32.3843 39.2289 32.8519 40.0512L36.9724 47.2986C37.4749 48.1824 37.7391 49.1816 37.7391 50.1982C37.7391 50.7148 37.6709 51.2291 37.5362 51.7278L35.2664 60.1328H37.7391V67.7798C37.7391 69.006 38.7332 70 39.9594 70C41.1855 70 42.1796 69.006 42.1796 67.7798V60.9653C42.1796 60.5056 42.5523 60.1328 43.0121 60.1328C43.4782 60.1328 43.8535 60.5155 43.8444 60.9815L43.7145 67.6825C43.6898 68.9551 44.7147 70 45.9875 70C47.243 70 48.2609 68.9822 48.2609 67.7266V60.1328H50.3652L48.3944 51.5576C48.3057 51.1714 48.2609 50.7764 48.2609 50.3802C48.2609 49.4978 48.483 48.6296 48.9067 47.8556L53.1686 40.0714C53.6271 39.234 53.3171 38.1834 52.4775 37.729C51.7093 37.3133 50.7516 37.5382 50.2488 38.2524L48.1477 41.2372C47.0236 42.8341 45.1743 43.7619 43.2221 43.7084Z" fill="#0075BB"/>
<path d="M135 27.8333V38.2694C135 39.5934 136.073 40.6667 137.397 40.6667C138.721 40.6667 139.795 39.5934 139.795 38.2694V25.2249C139.795 24.8003 140.139 24.4561 140.563 24.4561C140.987 24.4561 141.33 24.7983 141.332 25.2216L141.508 66.9174C141.515 68.622 142.899 70 144.603 70C146.297 70 147.676 68.6392 147.699 66.9459L148.027 42.4862C148.035 41.9054 148.508 41.4386 149.089 41.4386C149.675 41.4386 150.151 41.914 150.151 42.5005V66.7397C150.151 68.5403 151.61 70 153.411 70C155.212 70 156.671 68.5403 156.671 66.7397V47.7105V25.415C156.671 24.8855 157.101 24.4561 157.63 24.4561C158.16 24.4561 158.589 24.8855 158.589 25.415V39.2331C158.589 40.4512 159.576 41.4386 160.795 41.4386C162.013 41.4386 163 40.4512 163 39.2331V28.2193C163 20.9185 157.082 15 149.781 15H147.833C140.746 15 135 20.7457 135 27.8333Z" fill="#0075BB"/>
<path d="M118.543 47.3039L115.713 55.5874C115.364 56.6114 116.125 57.6757 117.207 57.6757C117.899 57.6757 118.511 57.2241 118.715 56.5622L121.074 48.9037C121.119 48.7601 121.251 48.6622 121.401 48.6622C121.591 48.6622 121.744 48.8154 121.744 49.0045V68.6299C121.744 69.8307 122.717 70.8041 123.918 70.8041C125.1 70.8041 126.066 69.8594 126.092 68.6775L126.275 60.3001C126.283 59.9305 126.585 59.6351 126.955 59.6351C127.33 59.6351 127.634 59.9395 127.634 60.315V68.49C127.634 69.7829 128.655 70.8455 129.947 70.898C131.315 70.9537 132.455 69.8594 132.455 68.49V59.2432V49.0135C132.455 48.8195 132.612 48.6622 132.806 48.6622C132.952 48.6622 133.084 48.7531 133.135 48.8904L135.705 55.7605C136.064 56.7188 137.241 57.0654 138.061 56.4544C138.616 56.0415 138.826 55.3091 138.575 54.6649L136.055 48.1919C134.602 44.4586 131.006 42 127 42H125.96C122.608 42 119.627 44.1318 118.543 47.3039Z" fill="#0075BB"/>
<path d="M4.65882 27.7439V39.8778C4.65882 40.2147 4.93191 40.4878 5.26879 40.4878C5.65528 40.4878 5.94434 40.8427 5.86614 41.2212L0.201656 68.6406C0.0905719 69.1783 0.439199 69.7034 0.977864 69.8098C1.51085 69.915 2.02881 69.5702 2.13736 69.0379L7.81935 41.1718C7.90052 40.7738 8.25066 40.4878 8.65694 40.4878C9.12905 40.4878 9.51176 40.1051 9.51176 39.633V25.1684C9.51176 24.7386 9.86015 24.3902 10.2899 24.3902C10.7184 24.3902 11.0662 24.7366 11.068 25.165L11.2454 66.4963C11.2528 68.2218 12.6537 69.6167 14.3793 69.6167C16.0934 69.6167 17.4894 68.2396 17.5129 66.5257L17.8443 42.3146C17.8524 41.7267 18.3312 41.2544 18.9192 41.2544C19.5128 41.2544 19.9941 41.7356 19.9941 42.3293V66.3167C19.9941 68.1393 21.4716 69.6167 23.2941 69.6167C25.1167 69.6167 26.5941 68.1393 26.5941 66.3167V47.4826V25.3608C26.5941 24.8248 27.0287 24.3902 27.5647 24.3902C28.1007 24.3902 28.5353 24.8248 28.5353 25.3608V39.022C28.5353 40.2549 29.5348 41.2544 30.7676 41.2544C32.0005 41.2544 33 40.2549 33 39.022V28.1272C33 20.8772 27.1228 15 19.8728 15H17.4027C10.3645 15 4.65882 20.7056 4.65882 27.7439Z" fill="#0075BB"/>
<circle cx="18.5" cy="6.5" r="6.5" fill="#0075BB"/>
<circle cx="149.5" cy="6.5" r="6.5" fill="#0075BB"/>
<circle cx="69" cy="9" r="6" fill="#0075BB"/>
<circle cx="103" cy="9" r="6" fill="#0075BB"/>
<circle cx="42.5" cy="36.5" r="4.5" fill="#0075BB"/>
<ellipse cx="127" cy="36.5" rx="5" ry="4.5" fill="#0075BB"/>
</svg>
