<svg width="107" height="30" viewBox="0 0 107 30" fill="none" xmlns="http://www.w3.org/2000/svg">
<path d="M91.4357 0C83.2051 0 76.5321 6.71331 76.5321 14.9936C76.5321 22.4762 81.9814 28.6781 89.1076 29.8073V19.3287H85.3217V14.9936H89.1076V11.6902C89.1076 7.92941 91.3329 5.85559 94.7357 5.85559C96.3663 5.85559 98.0745 6.14799 98.0745 6.14799V9.83528H96.1905C94.3422 9.83528 93.7639 10.9929 93.7639 12.179V14.9906H97.8941L97.2338 19.3257H93.7639V29.8043C100.89 28.6811 106.339 22.4777 106.339 14.9936C106.339 6.71331 99.6663 0 91.4357 0Z" fill="white"/>
<path d="M43.5917 4.72217H55.4236C58.7223 4.72217 61.3964 7.39629 61.3964 10.695V22.5269C61.3964 25.8256 58.7223 28.4998 55.4236 28.4998H43.5917C40.293 28.4998 37.6188 25.8256 37.6188 22.5269V10.695C37.6188 7.39629 40.293 4.72217 43.5917 4.72217Z" stroke="white" stroke-width="3"/>
<path d="M56.0461 16.6111C56.0461 20.2223 53.1186 23.1498 49.5074 23.1498C45.8962 23.1498 42.9687 20.2223 42.9687 16.6111C42.9687 12.9998 45.8962 10.0724 49.5074 10.0724C53.1186 10.0724 56.0461 12.9998 56.0461 16.6111ZM44.9303 16.6111C44.9303 19.1389 46.9795 21.1882 49.5074 21.1882C52.0353 21.1882 54.0845 19.1389 54.0845 16.6111C54.0845 14.0832 52.0353 12.034 49.5074 12.034C46.9795 12.034 44.9303 14.0832 44.9303 16.6111Z" fill="white"/>
<path d="M58.5371 9.44963C58.5371 10.4814 57.7006 11.3178 56.6689 11.3178C55.6371 11.3178 54.8006 10.4814 54.8006 9.44963C54.8006 8.41784 55.6371 7.58142 56.6689 7.58142C57.7006 7.58142 58.5371 8.41784 58.5371 9.44963Z" fill="white"/>
<path d="M0.0608183 4.02771L9.69178 17.8022L0 29.0014H2.18123L10.6664 19.1963L17.5221 29.0014H24.9449L14.7721 14.4521L23.7931 4.02771H21.6119L13.7975 13.058L7.48363 4.02771H0.0608183ZM3.26848 5.74632H6.67854L21.7368 27.2825H18.3267L3.26848 5.74632Z" fill="white"/>
</svg>
