<svg width="95" height="96" viewBox="0 0 95 96" fill="none" xmlns="http://www.w3.org/2000/svg">
<g filter="url(#filter0_d_4_1486)">
<path fill-rule="evenodd" clip-rule="evenodd" d="M47.5 87.3065C71.5244 87.3065 91 67.7623 91 43.6533C91 19.5442 71.5244 0 47.5 0C23.4756 0 4 19.5442 4 43.6533C4 67.7623 23.4756 87.3065 47.5 87.3065ZM58.4793 42.0549C58.4793 44.264 56.6884 46.0549 54.4793 46.0549H49.6911C46.4955 46.0549 43.9402 41.8838 43.9402 38.6882V32.0475C43.9402 29.8384 45.7311 28.0475 47.9402 28.0475H54.4793C56.6884 28.0475 58.4793 29.8384 58.4793 32.0475V42.0549ZM70.4507 28.0475C71.8274 28.0475 72.9434 26.9315 72.9434 25.5548C72.9434 24.1781 71.8274 23.062 70.4507 23.062H24.5494C23.1727 23.062 22.0566 24.1781 22.0566 25.5548C22.0566 26.9315 23.1727 28.0475 24.5494 28.0475H34.0946C36.3037 28.0475 38.0946 29.8384 38.0946 32.0475V38.2418C38.0946 40.6725 37.57 42.4584 36.5208 43.5993C35.5215 44.6907 33.598 45.2363 30.7501 45.2363H29.3438C27.3887 45.2363 25.8038 46.8213 25.8038 48.7764C25.8038 49.4762 26.0113 50.1604 26.4 50.7425L38.9441 69.5246C39.4903 70.3424 40.4089 70.8335 41.3924 70.8335C43.7528 70.8335 45.1535 68.1951 43.8311 66.24L38.2636 58.0082C36.3105 55.1205 38.7647 51.0062 42.2501 51.079C43.3935 51.1028 44.6064 51.1148 45.8887 51.1148H54.4793C56.6884 51.1148 58.4793 52.9056 58.4793 55.1148V67.9107C58.4793 69.5249 59.7879 70.8335 61.4021 70.8335C63.0163 70.8335 64.3249 69.5249 64.3249 67.9107V32.0475C64.3249 29.8384 66.1158 28.0475 68.3249 28.0475H70.4507Z" fill="#90A955"/>
</g>
<defs>
<filter id="filter0_d_4_1486" x="0" y="0" width="95" height="95.3065" filterUnits="userSpaceOnUse" color-interpolation-filters="sRGB">
<feFlood flood-opacity="0" result="BackgroundImageFix"/>
<feColorMatrix in="SourceAlpha" type="matrix" values="0 0 0 0 0 0 0 0 0 0 0 0 0 0 0 0 0 0 127 0" result="hardAlpha"/>
<feOffset dy="4"/>
<feGaussianBlur stdDeviation="2"/>
<feComposite in2="hardAlpha" operator="out"/>
<feColorMatrix type="matrix" values="0 0 0 0 0 0 0 0 0 0 0 0 0 0 0 0 0 0 0.25 0"/>
<feBlend mode="normal" in2="BackgroundImageFix" result="effect1_dropShadow_4_1486"/>
<feBlend mode="normal" in="SourceGraphic" in2="effect1_dropShadow_4_1486" result="shape"/>
</filter>
</defs>
</svg>
