<svg width="1236" height="337" viewBox="0 0 1236 337" fill="none" xmlns="http://www.w3.org/2000/svg">
<rect width="273" height="337" fill="#D9D9D9"/>
<rect x="12.5" y="16.5" width="249" height="152" fill="#D9D9D9" stroke="black"/>
<rect x="963" width="273" height="337" fill="#D9D9D9"/>
<rect x="974.5" y="16.5" width="249" height="152" fill="#D9D9D9" stroke="black"/>
<rect x="642" width="273" height="337" fill="#D9D9D9"/>
<rect x="654.5" y="16.5" width="249" height="152" fill="#D9D9D9" stroke="black"/>
<rect x="321" width="273" height="337" fill="#D9D9D9"/>
<rect x="333.5" y="16.5" width="249" height="152" fill="#D9D9D9" stroke="black"/>
<line x1="22" y1="190" x2="137" y2="190" stroke="black" stroke-width="6"/>
<line x1="343" y1="190" x2="458" y2="190" stroke="black" stroke-width="6"/>
<line x1="675" y1="190" x2="790" y2="190" stroke="black" stroke-width="6"/>
<line x1="987" y1="190" x2="1102" y2="190" stroke="black" stroke-width="6"/>
<line x1="22" y1="214" x2="206" y2="214" stroke="black" stroke-width="6"/>
<line x1="343" y1="214" x2="527" y2="214" stroke="black" stroke-width="6"/>
<line x1="675" y1="214" x2="859" y2="214" stroke="black" stroke-width="6"/>
<line x1="987" y1="214" x2="1171" y2="214" stroke="black" stroke-width="6"/>
</svg>
