<svg width="344" height="387" viewBox="0 0 344 387" fill="none" xmlns="http://www.w3.org/2000/svg">
<ellipse cx="168" cy="354.5" rx="160" ry="32.5" fill="#CB9976"/>
<ellipse cx="167.5" cy="346.5" rx="153.5" ry="24.5" fill="#CDD575"/>
<path d="M271.426 89.2562L320.52 242.901C282.173 257.896 260.682 259.158 222.332 242.901L271.426 89.2562Z" fill="#96B64B"/>
<line x1="271.925" y1="135.766" x2="271.925" y2="342.478" stroke="#31572C"/>
<line x1="261.13" y1="167.071" x2="271.152" y2="177.092" stroke="#31572C"/>
<line y1="-0.5" x2="14.1728" y2="-0.5" transform="matrix(-0.707107 0.707107 0.707107 0.707107 282.826 175.444)" stroke="#31572C"/>
<line x1="289.171" y1="197.864" x2="271.132" y2="213.899" stroke="#31572C"/>
<path d="M271.426 89.2562L320.52 242.901C282.173 257.896 260.682 259.158 222.332 242.901L271.426 89.2562Z" fill="white" fill-opacity="0.2"/>
<line x1="271.925" y1="135.766" x2="271.925" y2="342.478" stroke="#31572C"/>
<line x1="261.13" y1="167.071" x2="271.152" y2="177.092" stroke="#31572C"/>
<line y1="-0.5" x2="14.1728" y2="-0.5" transform="matrix(-0.707107 0.707107 0.707107 0.707107 282.826 175.444)" stroke="#31572C"/>
<line x1="289.171" y1="197.864" x2="271.132" y2="213.899" stroke="#31572C"/>
<path d="M224.093 66L287.868 265.606C238.054 285.086 210.136 286.726 160.318 265.606L224.093 66Z" fill="#31572C"/>
<line x1="223.301" y1="125.431" x2="223.301" y2="342.478" stroke="#4F772D"/>
<line x1="210.235" y1="166.418" x2="223.154" y2="179.338" stroke="#4F772D"/>
<line y1="-0.5" x2="18.2709" y2="-0.5" transform="matrix(-0.707107 0.707107 0.707107 0.707107 238.304 177.106)" stroke="#4F772D"/>
<line x1="246.388" y1="205.903" x2="223.133" y2="226.574" stroke="#4F772D"/>
<path d="M224.093 66L287.868 265.606C238.054 285.086 210.136 286.726 160.318 265.606L224.093 66Z" fill="white" fill-opacity="0.3"/>
<path d="M294.68 135.766L343.774 289.411C305.428 304.406 283.937 305.668 245.586 289.411L294.68 135.766Z" fill="#4F772D"/>
<path d="M295.972 182.276L295.972 351.521" stroke="#31572C"/>
<line x1="284.385" y1="213.58" x2="294.407" y2="223.601" stroke="#31572C"/>
<line y1="-0.5" x2="14.1728" y2="-0.5" transform="matrix(-0.707107 0.707107 0.707107 0.707107 306.081 221.953)" stroke="#31572C"/>
<line x1="312.426" y1="244.374" x2="294.387" y2="260.408" stroke="#31572C"/>
<path d="M294.68 135.766L343.774 289.411C305.428 304.406 283.937 305.668 245.586 289.411L294.68 135.766Z" fill="white" fill-opacity="0.2"/>
<path d="M111.108 91.7363L160.202 245.381C121.855 260.376 100.364 261.638 62.0137 245.381L111.108 91.7363Z" fill="#96B64B"/>
<line x1="111.607" y1="138.246" x2="111.607" y2="344.958" stroke="#31572C"/>
<line x1="100.813" y1="169.551" x2="110.834" y2="179.573" stroke="#31572C"/>
<line y1="-0.5" x2="14.1728" y2="-0.5" transform="matrix(-0.707107 0.707107 0.707107 0.707107 122.508 177.924)" stroke="#31572C"/>
<line x1="128.853" y1="200.344" x2="110.814" y2="216.379" stroke="#31572C"/>
<path d="M111.108 91.7363L160.202 245.381C121.855 260.376 100.364 261.638 62.0137 245.381L111.108 91.7363Z" fill="white" fill-opacity="0.2"/>
<line x1="111.607" y1="138.246" x2="111.607" y2="344.958" stroke="#31572C"/>
<line x1="100.813" y1="169.551" x2="110.834" y2="179.573" stroke="#31572C"/>
<line y1="-0.5" x2="14.1728" y2="-0.5" transform="matrix(-0.707107 0.707107 0.707107 0.707107 122.508 177.924)" stroke="#31572C"/>
<line x1="128.853" y1="200.344" x2="110.814" y2="216.379" stroke="#31572C"/>
<path d="M63.775 68.4795L127.55 268.085C77.7366 287.566 49.8184 289.205 0 268.085L63.775 68.4795Z" fill="#31572C"/>
<line x1="62.9829" y1="127.91" x2="62.9829" y2="344.958" stroke="#4F772D"/>
<line x1="49.917" y1="168.898" x2="62.8365" y2="181.817" stroke="#4F772D"/>
<line y1="-0.5" x2="18.2709" y2="-0.5" transform="matrix(-0.707107 0.707107 0.707107 0.707107 77.9863 179.586)" stroke="#4F772D"/>
<line x1="86.07" y1="208.382" x2="62.8149" y2="229.054" stroke="#4F772D"/>
<path d="M63.775 68.4795L127.55 268.085C77.7366 287.566 49.8184 289.205 0 268.085L63.775 68.4795Z" fill="white" fill-opacity="0.3"/>
<path d="M134.363 138.246L183.457 291.891C145.11 306.886 123.619 308.148 85.2686 291.891L134.363 138.246Z" fill="#4F772D"/>
<path d="M135.654 184.756L135.654 354.001" stroke="#31572C"/>
<line x1="124.067" y1="216.06" x2="134.089" y2="226.081" stroke="#31572C"/>
<line y1="-0.5" x2="14.1728" y2="-0.5" transform="matrix(-0.707107 0.707107 0.707107 0.707107 145.763 224.433)" stroke="#31572C"/>
<line x1="152.109" y1="246.854" x2="134.07" y2="262.889" stroke="#31572C"/>
<path d="M134.363 138.246L183.457 291.891C145.11 306.886 123.619 308.148 85.2686 291.891L134.363 138.246Z" fill="white" fill-opacity="0.2"/>
<path d="M195.04 66.7748C194.779 65.9254 195.844 65.3011 196.458 65.9458C199.819 69.4869 204.03 73.8364 208.727 78.4775C210.845 80.5704 213.495 83.1545 217.465 85.9894C219.507 87.4477 221.323 88.5633 222.694 89.3513C223.006 89.5304 223.39 89.4946 223.661 89.2592C227.105 86.3015 230.645 83.088 234.242 79.593C238.995 74.9723 243.277 70.4182 247.11 66.0431C247.135 66.0175 247.156 65.9868 247.176 65.9561C248.875 63.4436 250.568 60.9311 252.267 58.4187C252.369 58.2651 252.523 58.1474 252.697 58.0912L255.843 57.0422C256.125 56.9501 256.432 57.0115 256.657 57.2008L259.246 59.4216C259.455 59.6007 259.737 59.6672 260.003 59.5956L262.991 58.828C263.39 58.7257 263.809 58.9304 263.973 59.309L264.162 59.7389C264.352 60.1738 264.147 60.6753 263.712 60.8595L260.632 62.1234C259.849 62.4458 259.972 63.5869 260.806 63.7353C261.205 63.8069 261.497 64.1498 261.502 64.5591L261.528 67.087C261.681 67.4861 261.609 67.9313 261.338 68.2332C261.011 68.6016 260.55 68.5914 260.484 68.5914C260.31 68.2178 260.136 67.8443 259.962 67.4707C259.957 67.6754 259.921 67.9569 259.808 68.2639C259.742 68.4532 259.66 68.617 259.578 68.7449L259.563 68.8472C259.604 68.9393 259.737 69.2463 259.619 69.5687C259.466 69.9781 258.964 70.2493 258.401 70.1725C258.289 70.1009 258.181 70.0293 258.069 69.9576C258.033 69.9934 257.997 70.0344 257.966 70.0855C257.833 70.2902 257.828 70.5052 257.834 70.6177L257.9 71.3853C257.92 71.6463 257.823 71.9021 257.629 72.0761L222.531 104.339C222.275 104.575 221.906 104.626 221.594 104.477L204.296 96.203C204.081 96.1007 203.923 95.9165 203.851 95.6862L195.025 66.7748H195.04Z" fill="#F58E80"/>
<path d="M198.741 5.76943C194.382 1.4097 188.642 0.406765 185.526 0.135561C182.819 -0.145877 178.772 -0.156116 174.741 1.79348C170.223 3.97847 167.895 7.56553 167.071 8.70152C163.771 13.2455 155.529 18.4598 133.283 20.6703C127.665 21.269 118.65 23.2851 112.285 30.4081C99.1669 45.0889 104.918 72.9257 120.354 84.2447C127.819 89.7199 135.994 90.1907 139.279 90.3391C171.845 91.8026 202.205 54.3201 204.149 26.6522C204.492 21.7449 205.168 12.176 198.752 5.76433L198.741 5.76943Z" fill="#13365B"/>
<path d="M177.575 39.5004L172.929 56.2229C172.832 56.7244 172.74 57.4612 172.812 58.3363C173.426 65.8993 185.377 72.2086 188.324 69.865C189.414 69.0002 189.926 66.4366 186.769 58.5716C187.869 53.0606 188.964 47.5546 190.064 42.0435L177.57 39.5004H177.575Z" fill="#F7A390"/>
<path d="M177.191 38.6219C181.484 39.4458 185.777 40.2645 190.069 41.0884L188.36 49.9767C186.948 49.5878 184.288 48.6463 181.771 46.3078C178.65 43.4115 177.57 40.0547 177.197 38.6219H177.191Z" fill="#F37458"/>
<path d="M201.673 20.425C201.008 20.0412 200.179 20.0872 199.361 20.471C198.603 10.2267 192.699 2.25427 185.521 2.25427C178.343 2.25427 172.587 10.0373 171.717 20.1077C170.208 20.2766 169.021 22.2006 169.021 24.5493C169.021 26.898 170.325 29.0063 171.932 29.0063C172.044 29.0063 172.157 28.996 172.269 28.9756C174.07 37.2089 179.32 43.1652 185.521 43.1652C191.722 43.1652 197.242 36.8917 198.905 28.3257C200.005 28.0494 201.172 27.1181 201.965 25.7416C203.198 23.6078 203.065 21.2283 201.673 20.425Z" fill="#F7A390"/>
<path d="M184.226 2.29541C187.091 1.91674 189.317 2.87363 190.1 3.22159C194.244 5.0535 195.927 8.71731 196.327 9.64862C195.733 8.91688 194.444 7.53015 192.326 6.60396C190.207 5.67777 188.319 5.67267 187.378 5.73407C184.769 10.1706 182.205 13.4864 180.241 15.784C177.887 18.5421 175.928 20.374 173.554 20.2409C172.781 20.2 172.152 19.9595 171.737 19.7548C171.835 17.6671 172.402 10.4929 177.683 5.69825C178.854 4.6339 180.952 2.72524 184.226 2.29541Z" fill="#13365B"/>
<path d="M181.182 341.382V357.572C180.773 358.14 177.416 362.914 179.289 367.54C179.576 368.246 180.056 369.131 180.906 370.032C192.704 370.124 204.508 370.211 216.306 370.303C216.598 370.134 217.002 369.848 217.038 369.444C217.099 368.778 216.122 368.164 215.339 367.745C212.223 366.077 199.611 360.791 198.056 360.136C196.419 358.606 194.787 357.071 193.149 355.541L191.036 340.133L181.182 341.387V341.382Z" fill="#F7A390"/>
<path d="M127.215 332.116C125.962 333.518 127.056 334.362 125.69 339.684C125.112 341.93 125.194 341.807 123.93 345.138C123.598 346.013 123.255 346.853 122.902 347.661C122.575 348.408 122.083 349.068 121.469 349.611C120.016 350.89 117.791 353.28 116.496 356.954C115.458 359.901 115.407 362.572 115.591 364.481C115.749 366.098 116.619 367.572 117.985 368.457C118.834 369.01 119.929 369.537 121.265 369.823C123.756 370.355 125.829 369.772 126.964 369.322C127.425 369.137 127.85 368.892 128.238 368.585C128.822 368.124 129.456 367.541 130.065 366.814C131.743 364.814 132.418 362.71 132.715 361.4C132.746 361.252 132.782 361.114 132.828 360.971C133.247 359.62 133.646 358.008 133.897 356.176C134.081 354.845 134.158 353.612 134.168 352.502C134.168 352.502 134.235 351.893 134.312 351.258C134.982 345.993 136.164 341.997 136.164 341.997C137.125 338.737 137.422 339.054 137.494 337.734C137.54 336.915 137.729 333.338 135.13 331.455C132.669 329.68 128.878 330.253 127.21 332.121L127.215 332.116Z" fill="#F7A390"/>
<path d="M205.899 154.512C206.605 161.446 207.306 168.384 208.012 175.318C208.288 178.286 208.524 182.973 207.894 188.694C207.541 191.913 207.05 194.225 206.958 194.676C205.853 200.136 201.775 237.721 191.532 343.71C186.938 343.951 182.343 344.191 177.744 344.432C176.976 333.481 176.076 319.619 175.124 302.195C174.567 291.966 174.106 282.346 176.807 269.963C177.877 265.056 179.146 261.08 180.092 258.388C179.729 250.615 179.361 242.848 178.997 235.075L182.072 155.51L205.904 154.512H205.899Z" fill="#2F548B"/>
<path d="M162.522 154.922C159.668 158.197 155.482 163.816 152.632 171.793C150.003 179.167 149.547 185.655 149.583 189.862C149.532 192.548 148.933 223.972 148.877 226.704C148.857 227.897 148.432 249.91 148.406 251.108C143.479 262.37 138.552 273.638 133.625 284.901L124.472 335.355C129.241 336.256 134.014 337.156 138.783 338.052L178.716 235.854C180.266 231.264 182.845 223.711 186.18 214.383C192.458 196.821 194.95 191.069 197.559 181.178C199.028 175.606 200.977 167.04 202.174 156.109C188.954 155.71 175.738 155.316 162.517 154.917L162.522 154.922Z" fill="#466EB5"/>
<path d="M173.068 56.3415C172.746 56.2903 172.418 56.3108 172.111 56.408C170.556 56.8942 168.698 57.6208 166.718 58.7209C164.825 59.7699 163.28 60.8957 162.073 61.9038C161.832 62.1033 161.648 62.3541 161.52 62.6355C160.098 65.7978 158.317 70.787 158.092 77.0196C157.949 81.062 158.512 84.1118 158.824 85.7493C160.43 94.1515 163.72 109.723 168.258 129.623C168.33 129.935 168.33 130.263 168.258 130.58C167.286 134.725 165.946 139.34 164.068 144.263C163.024 147.006 161.919 149.559 160.804 151.918C160.175 153.248 161.07 154.799 162.538 154.927C169.358 155.52 174.915 156.17 178.926 156.687C185.884 157.583 190.218 158.33 196.291 157.332C199.463 156.81 202.124 155.971 204.145 155.198C204.932 154.896 205.465 154.154 205.495 153.305C205.812 145.163 206.012 136.802 206.068 128.231C206.15 115.618 205.925 103.439 205.454 91.7362C205.449 91.5571 205.418 91.3831 205.367 91.2092C204.492 88.2566 203.531 85.2376 202.472 82.1571C199.878 74.6043 197.038 67.6349 194.106 61.2488C193.84 60.6654 193.323 60.2407 192.704 60.0821C190.765 59.5857 188.821 59.0894 186.882 58.593C186.821 58.5777 186.759 58.5623 186.698 58.5521L173.083 56.3364L173.068 56.3415Z" fill="#F8CC7E"/>
<rect x="252" y="49" width="24.8788" height="24.8788" rx="2" fill="#CDD575"/>
<g filter="url(#filter0_b_30_257)">
<path d="M264.458 52L266.651 53.2724L269.187 53.2671L270.45 55.4657L272.649 56.729L272.644 59.2647L273.916 61.4581L272.644 63.6514L272.649 66.1871L270.45 67.4504L269.187 69.649L266.651 69.6437L264.458 70.9161L262.265 69.6437L259.729 69.649L258.466 67.4504L256.267 66.1871L256.272 63.6514L255 61.4581L256.272 59.2647L256.267 56.729L258.466 55.4657L259.729 53.2671L262.265 53.2724L264.458 52Z" fill="white" fill-opacity="0.2"/>
</g>
<path d="M264.083 63.6173L264.422 63.1932V63.2441L264.1 62.8447H264.216L264.475 63.1732H264.441L264.7 62.8447H264.812L264.496 63.241V63.1979L264.832 63.6173H264.715L264.441 63.2673H264.475L264.197 63.6173H264.083Z" fill="#31572C"/>
<path d="M262.093 59.5038L264.047 65.6168C262.521 66.2134 261.666 66.2636 260.14 65.6168L262.093 59.5038Z" fill="#96B64B"/>
<line x1="262.143" y1="61.3529" x2="262.143" y2="69.5773" stroke="#31572C" stroke-width="0.1"/>
<line x1="261.705" y1="62.5777" x2="262.104" y2="62.9764" stroke="#31572C" stroke-width="0.1"/>
<line y1="-0.05" x2="0.563888" y2="-0.05" transform="matrix(-0.707107 0.707107 0.707107 0.707107 262.547 62.932)" stroke="#31572C" stroke-width="0.1"/>
<line x1="262.819" y1="63.8469" x2="262.101" y2="64.4849" stroke="#31572C" stroke-width="0.1"/>
<path d="M262.093 59.5038L264.047 65.6168C262.521 66.2134 261.666 66.2636 260.14 65.6168L262.093 59.5038Z" fill="white" fill-opacity="0.2"/>
<line x1="262.144" y1="61.3604" x2="262.144" y2="69.5847" stroke="#31572C" stroke-width="0.1"/>
<line x1="261.705" y1="62.5851" x2="262.104" y2="62.9839" stroke="#31572C" stroke-width="0.1"/>
<line y1="-0.05" x2="0.563888" y2="-0.05" transform="matrix(-0.707107 0.707107 0.707107 0.707107 262.548 62.9395)" stroke="#31572C" stroke-width="0.1"/>
<line x1="262.819" y1="63.8544" x2="262.102" y2="64.4924" stroke="#31572C" stroke-width="0.1"/>
<path d="M260.21 58.5814L262.747 66.5231C260.765 67.2982 259.654 67.3634 257.672 66.5231L260.21 58.5814Z" fill="#31572C"/>
<line x1="260.208" y1="60.944" x2="260.208" y2="69.5796" stroke="#4F772D" stroke-width="0.1"/>
<line x1="259.679" y1="62.5549" x2="260.193" y2="63.0689" stroke="#4F772D" stroke-width="0.1"/>
<line y1="-0.05" x2="0.72694" y2="-0.05" transform="matrix(-0.707107 0.707107 0.707107 0.707107 260.775 63.0033)" stroke="#4F772D" stroke-width="0.1"/>
<line x1="261.117" y1="64.1699" x2="260.191" y2="64.9924" stroke="#4F772D" stroke-width="0.1"/>
<path d="M260.21 58.5814L262.747 66.5231C260.765 67.2982 259.654 67.3634 257.672 66.5231L260.21 58.5814Z" fill="white" fill-opacity="0.3"/>
<path d="M263.018 61.3604L264.972 67.4734C263.446 68.07 262.591 68.1202 261.065 67.4734L263.018 61.3604Z" fill="#4F772D"/>
<path d="M263.069 63.2095L263.069 69.9432" stroke="#31572C" stroke-width="0.1"/>
<line x1="262.63" y1="64.4355" x2="263.029" y2="64.8342" stroke="#31572C" stroke-width="0.1"/>
<line y1="-0.05" x2="0.563888" y2="-0.05" transform="matrix(-0.707107 0.707107 0.707107 0.707107 263.472 64.7886)" stroke="#31572C" stroke-width="0.1"/>
<line x1="263.744" y1="65.7047" x2="263.026" y2="66.3427" stroke="#31572C" stroke-width="0.1"/>
<path d="M263.018 61.3604L264.972 67.4734C263.446 68.07 262.591 68.1202 261.065 67.4734L263.018 61.3604Z" fill="white" fill-opacity="0.2"/>
<path d="M262.771 58.2857C262.657 58.2857 262.561 58.2645 262.483 58.2223C262.405 58.1801 262.347 58.1201 262.307 58.0424C262.268 57.9647 262.248 57.8726 262.248 57.7661C262.248 57.6586 262.27 57.566 262.312 57.4883C262.354 57.4096 262.414 57.3492 262.493 57.307C262.573 57.2638 262.668 57.2422 262.78 57.2422C262.853 57.2422 262.918 57.2523 262.974 57.2724C263.029 57.2916 263.078 57.3199 263.121 57.3573L263.059 57.5013C263.028 57.4773 262.999 57.4581 262.971 57.4437C262.943 57.4293 262.914 57.4192 262.885 57.4135C262.855 57.4067 262.82 57.4034 262.781 57.4034C262.67 57.4034 262.585 57.435 262.528 57.4984C262.471 57.5607 262.443 57.6505 262.443 57.7675C262.443 57.8846 262.47 57.9738 262.523 58.0352C262.578 58.0966 262.663 58.1273 262.78 58.1273C262.819 58.1273 262.858 58.1235 262.898 58.1158C262.938 58.1081 262.977 58.0971 263.016 58.0827L262.981 58.1604V57.8568H262.744V57.7215H263.135V58.2094C263.088 58.2334 263.032 58.2521 262.967 58.2655C262.901 58.2789 262.836 58.2857 262.771 58.2857Z" fill="#99582A"/>
<path d="M263.331 58.2713V57.7301C263.331 57.6994 263.33 57.6682 263.328 57.6365C263.327 57.6049 263.325 57.5742 263.321 57.5444H263.495L263.515 57.7431H263.487C263.496 57.6951 263.512 57.6553 263.534 57.6236C263.557 57.5919 263.585 57.5684 263.618 57.5531C263.65 57.5377 263.686 57.53 263.724 57.53C263.741 57.53 263.755 57.531 263.766 57.5329C263.776 57.5339 263.787 57.5363 263.797 57.5401L263.796 57.6984C263.778 57.6908 263.762 57.686 263.748 57.684C263.736 57.6821 263.72 57.6812 263.701 57.6812C263.66 57.6812 263.625 57.6898 263.596 57.7071C263.568 57.7243 263.547 57.7483 263.533 57.779C263.519 57.8097 263.512 57.8448 263.512 57.8841V58.2713H263.331Z" fill="#99582A"/>
<path d="M264.237 58.2857C264.116 58.2857 264.02 58.2521 263.951 58.1849C263.882 58.1177 263.847 58.0256 263.847 57.9086C263.847 57.8328 263.862 57.7666 263.892 57.7099C263.922 57.6533 263.963 57.6092 264.016 57.5775C264.07 57.5459 264.132 57.53 264.203 57.53C264.273 57.53 264.332 57.5449 264.379 57.5747C264.426 57.6044 264.461 57.6461 264.485 57.6999C264.51 57.7536 264.522 57.8165 264.522 57.8884V57.9359H263.993V57.8409H264.394L264.37 57.8611C264.37 57.7939 264.356 57.7426 264.327 57.7071C264.299 57.6716 264.258 57.6538 264.204 57.6538C264.145 57.6538 264.099 57.6749 264.066 57.7171C264.035 57.7594 264.019 57.8184 264.019 57.8942V57.9129C264.019 57.9916 264.038 58.0506 264.076 58.0899C264.116 58.1283 264.171 58.1475 264.242 58.1475C264.283 58.1475 264.321 58.1422 264.357 58.1317C264.393 58.1201 264.428 58.1019 264.461 58.077L264.514 58.1979C264.479 58.2257 264.438 58.2473 264.39 58.2626C264.342 58.278 264.291 58.2857 264.237 58.2857Z" fill="#99582A"/>
<path d="M265.026 58.2857C264.904 58.2857 264.809 58.2521 264.74 58.1849C264.671 58.1177 264.636 58.0256 264.636 57.9086C264.636 57.8328 264.651 57.7666 264.681 57.7099C264.71 57.6533 264.752 57.6092 264.804 57.5775C264.858 57.5459 264.92 57.53 264.991 57.53C265.062 57.53 265.12 57.5449 265.167 57.5747C265.214 57.6044 265.25 57.6461 265.274 57.6999C265.299 57.7536 265.311 57.8165 265.311 57.8884V57.9359H264.781V57.8409H265.183L265.158 57.8611C265.158 57.7939 265.144 57.7426 265.115 57.7071C265.087 57.6716 265.047 57.6538 264.993 57.6538C264.933 57.6538 264.887 57.6749 264.855 57.7171C264.823 57.7594 264.807 57.8184 264.807 57.8942V57.9129C264.807 57.9916 264.826 58.0506 264.865 58.0899C264.904 58.1283 264.959 58.1475 265.03 58.1475C265.072 58.1475 265.11 58.1422 265.145 58.1317C265.182 58.1201 265.216 58.1019 265.249 58.077L265.302 58.1979C265.268 58.2257 265.227 58.2473 265.179 58.2626C265.131 58.278 265.08 58.2857 265.026 58.2857Z" fill="#99582A"/>
<path d="M265.463 58.2713V57.7258C265.463 57.696 265.462 57.6658 265.46 57.6351C265.459 57.6044 265.456 57.5742 265.452 57.5444H265.626L265.64 57.6884H265.623C265.646 57.6375 265.68 57.5986 265.725 57.5718C265.77 57.544 265.823 57.53 265.882 57.53C265.968 57.53 266.032 57.554 266.075 57.602C266.118 57.65 266.14 57.7248 266.14 57.8265V58.2713H265.96V57.8352C265.96 57.7766 265.948 57.7349 265.925 57.7099C265.903 57.684 265.87 57.6711 265.825 57.6711C265.769 57.6711 265.725 57.6884 265.692 57.7229C265.66 57.7574 265.643 57.8035 265.643 57.8611V58.2713H265.463Z" fill="#99582A"/>
<path d="M261.629 60.1218V59.1071H261.814V59.5302H262.334V59.1071H262.52V60.1218H262.334V59.6842H261.814V60.1218H261.629Z" fill="#99582A"/>
<path d="M263.057 60.1361C262.982 60.1361 262.917 60.1208 262.863 60.0901C262.808 60.0594 262.765 60.0157 262.735 59.9591C262.705 59.9025 262.69 59.8353 262.69 59.7576C262.69 59.6799 262.705 59.6132 262.735 59.5576C262.765 59.5009 262.808 59.4573 262.863 59.4266C262.917 59.3959 262.982 59.3805 263.057 59.3805C263.132 59.3805 263.197 59.3959 263.251 59.4266C263.307 59.4573 263.35 59.5009 263.379 59.5576C263.41 59.6132 263.425 59.6799 263.425 59.7576C263.425 59.8353 263.41 59.9025 263.379 59.9591C263.35 60.0157 263.307 60.0594 263.251 60.0901C263.197 60.1208 263.132 60.1361 263.057 60.1361ZM263.057 59.998C263.114 59.998 263.159 59.9783 263.192 59.939C263.226 59.8987 263.243 59.8382 263.243 59.7576C263.243 59.677 263.226 59.617 263.192 59.5777C263.159 59.5384 263.114 59.5187 263.057 59.5187C263 59.5187 262.955 59.5384 262.922 59.5777C262.888 59.617 262.871 59.677 262.871 59.7576C262.871 59.8382 262.888 59.8987 262.922 59.939C262.955 59.9783 263 59.998 263.057 59.998Z" fill="#99582A"/>
<path d="M263.579 60.1218V59.5806C263.579 59.5499 263.578 59.5187 263.576 59.487C263.575 59.4554 263.573 59.4247 263.569 59.3949H263.743L263.763 59.5935H263.735C263.744 59.5456 263.76 59.5057 263.782 59.4741C263.805 59.4424 263.833 59.4189 263.866 59.4036C263.898 59.3882 263.934 59.3805 263.972 59.3805C263.989 59.3805 264.003 59.3815 264.014 59.3834C264.024 59.3844 264.035 59.3868 264.045 59.3906L264.044 59.5489C264.026 59.5412 264.01 59.5365 263.997 59.5345C263.984 59.5326 263.968 59.5317 263.949 59.5317C263.908 59.5317 263.873 59.5403 263.844 59.5576C263.816 59.5748 263.795 59.5988 263.781 59.6295C263.767 59.6602 263.761 59.6952 263.761 59.7346V60.1218H263.579Z" fill="#99582A"/>
<path d="M264.146 60.1218V59.3949H264.326V60.1218H264.146ZM264.136 59.2582V59.0826H264.336V59.2582H264.136Z" fill="#99582A"/>
<path d="M264.492 60.1218V60.0037L264.947 59.487V59.5302H264.492V59.3949H265.11V59.5129L264.65 60.034L264.649 59.9865H265.125V60.1218H264.492Z" fill="#99582A"/>
<path d="M265.593 60.1361C265.518 60.1361 265.453 60.1208 265.398 60.0901C265.344 60.0594 265.301 60.0157 265.27 59.9591C265.24 59.9025 265.226 59.8353 265.226 59.7576C265.226 59.6799 265.24 59.6132 265.27 59.5576C265.301 59.5009 265.344 59.4573 265.398 59.4266C265.453 59.3959 265.518 59.3805 265.593 59.3805C265.667 59.3805 265.732 59.3959 265.787 59.4266C265.843 59.4573 265.885 59.5009 265.915 59.5576C265.946 59.6132 265.961 59.6799 265.961 59.7576C265.961 59.8353 265.946 59.9025 265.915 59.9591C265.885 60.0157 265.843 60.0594 265.787 60.0901C265.732 60.1208 265.667 60.1361 265.593 60.1361ZM265.593 59.998C265.649 59.998 265.694 59.9783 265.728 59.939C265.761 59.8987 265.778 59.8382 265.778 59.7576C265.778 59.677 265.761 59.617 265.728 59.5777C265.694 59.5384 265.649 59.5187 265.593 59.5187C265.536 59.5187 265.491 59.5384 265.457 59.5777C265.424 59.617 265.407 59.677 265.407 59.7576C265.407 59.8382 265.424 59.8987 265.457 59.939C265.491 59.9783 265.536 59.998 265.593 59.998Z" fill="#99582A"/>
<path d="M266.116 60.1218V59.5763C266.116 59.5465 266.115 59.5163 266.113 59.4856C266.111 59.4549 266.109 59.4247 266.105 59.3949H266.279L266.293 59.5388H266.276C266.299 59.488 266.333 59.4491 266.378 59.4223C266.423 59.3944 266.476 59.3805 266.535 59.3805C266.62 59.3805 266.685 59.4045 266.728 59.4525C266.771 59.5005 266.793 59.5753 266.793 59.677V60.1218H266.613V59.6857C266.613 59.6271 266.601 59.5854 266.578 59.5604C266.556 59.5345 266.523 59.5216 266.477 59.5216C266.422 59.5216 266.378 59.5388 266.345 59.5734C266.312 59.6079 266.296 59.654 266.296 59.7116V60.1218H266.116Z" fill="#99582A"/>
<path d="M260.414 61.9722V60.9576H261.083V61.1029H260.599V61.3908H261.05V61.5361H260.599V61.9722H260.414Z" fill="#99582A"/>
<path d="M261.526 61.9866C261.451 61.9866 261.386 61.9713 261.331 61.9406C261.277 61.9099 261.234 61.8662 261.203 61.8096C261.174 61.753 261.159 61.6858 261.159 61.6081C261.159 61.5304 261.174 61.4637 261.203 61.408C261.234 61.3514 261.277 61.3078 261.331 61.2771C261.386 61.2464 261.451 61.231 261.526 61.231C261.601 61.231 261.665 61.2464 261.72 61.2771C261.776 61.3078 261.818 61.3514 261.848 61.408C261.879 61.4637 261.894 61.5304 261.894 61.6081C261.894 61.6858 261.879 61.753 261.848 61.8096C261.818 61.8662 261.776 61.9099 261.72 61.9406C261.665 61.9713 261.601 61.9866 261.526 61.9866ZM261.526 61.8485C261.582 61.8485 261.627 61.8288 261.661 61.7895C261.695 61.7492 261.711 61.6887 261.711 61.6081C261.711 61.5275 261.695 61.4675 261.661 61.4282C261.627 61.3889 261.582 61.3692 261.526 61.3692C261.469 61.3692 261.424 61.3889 261.39 61.4282C261.357 61.4675 261.34 61.5275 261.34 61.6081C261.34 61.6887 261.357 61.7492 261.39 61.7895C261.424 61.8288 261.469 61.8485 261.526 61.8485Z" fill="#99582A"/>
<path d="M262.311 61.9866C262.222 61.9866 262.155 61.9622 262.111 61.9132C262.067 61.8643 262.045 61.7895 262.045 61.6887V61.2454H262.225V61.6873C262.225 61.741 262.236 61.7808 262.258 61.8067C262.28 61.8317 262.314 61.8441 262.359 61.8441C262.41 61.8441 262.451 61.8269 262.483 61.7923C262.515 61.7578 262.531 61.7122 262.531 61.6556V61.2454H262.711V61.9722H262.536V61.824H262.556C262.535 61.8758 262.503 61.9161 262.459 61.9449C262.417 61.9727 262.368 61.9866 262.311 61.9866Z" fill="#99582A"/>
<path d="M262.907 61.9722V61.4268C262.907 61.397 262.906 61.3668 262.904 61.3361C262.902 61.3054 262.899 61.2752 262.895 61.2454H263.069L263.084 61.3893H263.066C263.089 61.3385 263.124 61.2996 263.169 61.2728C263.214 61.2449 263.266 61.231 263.325 61.231C263.411 61.231 263.475 61.255 263.518 61.303C263.562 61.351 263.583 61.4258 263.583 61.5275V61.9722H263.403V61.5361C263.403 61.4776 263.392 61.4359 263.369 61.4109C263.347 61.385 263.313 61.3721 263.268 61.3721C263.212 61.3721 263.168 61.3893 263.136 61.4239C263.103 61.4584 263.087 61.5045 263.087 61.562V61.9722H262.907Z" fill="#99582A"/>
<path d="M264.056 61.9866C263.993 61.9866 263.937 61.9718 263.888 61.942C263.84 61.9113 263.802 61.8677 263.775 61.811C263.748 61.7544 263.735 61.6868 263.735 61.6081C263.735 61.5294 263.748 61.4623 263.775 61.4066C263.802 61.35 263.84 61.3068 263.888 61.2771C263.937 61.2464 263.993 61.231 264.056 61.231C264.116 61.231 264.17 61.2459 264.216 61.2756C264.263 61.3044 264.294 61.3438 264.309 61.3937H264.291V60.9129H264.47V61.9722H264.293V61.8182H264.311C264.295 61.8701 264.264 61.9113 264.217 61.942C264.171 61.9718 264.117 61.9866 264.056 61.9866ZM264.106 61.8485C264.163 61.8485 264.209 61.8288 264.243 61.7895C264.278 61.7492 264.295 61.6887 264.295 61.6081C264.295 61.5275 264.278 61.4675 264.243 61.4282C264.209 61.3889 264.163 61.3692 264.106 61.3692C264.05 61.3692 264.004 61.3889 263.968 61.4282C263.934 61.4675 263.916 61.5275 263.916 61.6081C263.916 61.6887 263.934 61.7492 263.968 61.7895C264.004 61.8288 264.05 61.8485 264.106 61.8485Z" fill="#99582A"/>
<path d="M264.947 61.9866C264.884 61.9866 264.828 61.9718 264.78 61.942C264.732 61.9113 264.695 61.8677 264.668 61.811C264.641 61.7544 264.628 61.6868 264.628 61.6081C264.628 61.5294 264.641 61.4623 264.668 61.4066C264.695 61.35 264.732 61.3068 264.78 61.2771C264.828 61.2464 264.884 61.231 264.947 61.231C265.008 61.231 265.062 61.2464 265.108 61.2771C265.155 61.3068 265.186 61.3471 265.202 61.398H265.186L265.202 61.2454H265.375C265.372 61.2752 265.369 61.3054 265.366 61.3361C265.364 61.3668 265.363 61.397 265.363 61.4268V61.9722H265.185L265.183 61.8226H265.2C265.185 61.8725 265.154 61.9123 265.107 61.942C265.06 61.9718 265.007 61.9866 264.947 61.9866ZM264.997 61.8485C265.054 61.8485 265.1 61.8288 265.134 61.7895C265.169 61.7492 265.186 61.6887 265.186 61.6081C265.186 61.5275 265.169 61.4675 265.134 61.4282C265.1 61.3889 265.054 61.3692 264.997 61.3692C264.941 61.3692 264.895 61.3889 264.861 61.4282C264.826 61.4675 264.809 61.5275 264.809 61.6081C264.809 61.6887 264.826 61.7492 264.859 61.7895C264.894 61.8288 264.94 61.8485 264.997 61.8485Z" fill="#99582A"/>
<path d="M265.87 61.9866C265.783 61.9866 265.718 61.9641 265.674 61.919C265.63 61.8739 265.608 61.8062 265.608 61.7161V61.3807H265.468V61.2454H265.608V61.0597L265.788 61.0137V61.2454H265.982V61.3807H265.788V61.7045C265.788 61.7544 265.797 61.7895 265.817 61.8096C265.836 61.8298 265.862 61.8398 265.896 61.8398C265.914 61.8398 265.929 61.8384 265.942 61.8355C265.955 61.8326 265.968 61.8288 265.981 61.824V61.9665C265.964 61.9732 265.946 61.978 265.926 61.9809C265.907 61.9847 265.888 61.9866 265.87 61.9866Z" fill="#99582A"/>
<path d="M266.104 61.9722V61.2454H266.284V61.9722H266.104ZM266.094 61.1087V60.9331H266.294V61.1087H266.094Z" fill="#99582A"/>
<path d="M266.808 61.9866C266.733 61.9866 266.668 61.9713 266.613 61.9406C266.559 61.9099 266.516 61.8662 266.485 61.8096C266.456 61.753 266.441 61.6858 266.441 61.6081C266.441 61.5304 266.456 61.4637 266.485 61.408C266.516 61.3514 266.559 61.3078 266.613 61.2771C266.668 61.2464 266.733 61.231 266.808 61.231C266.883 61.231 266.947 61.2464 267.002 61.2771C267.058 61.3078 267.1 61.3514 267.13 61.408C267.161 61.4637 267.176 61.5304 267.176 61.6081C267.176 61.6858 267.161 61.753 267.13 61.8096C267.1 61.8662 267.058 61.9099 267.002 61.9406C266.947 61.9713 266.883 61.9866 266.808 61.9866ZM266.808 61.8485C266.864 61.8485 266.909 61.8288 266.943 61.7895C266.977 61.7492 266.993 61.6887 266.993 61.6081C266.993 61.5275 266.977 61.4675 266.943 61.4282C266.909 61.3889 266.864 61.3692 266.808 61.3692C266.751 61.3692 266.706 61.3889 266.672 61.4282C266.639 61.4675 266.622 61.5275 266.622 61.6081C266.622 61.6887 266.639 61.7492 266.672 61.7895C266.706 61.8288 266.751 61.8485 266.808 61.8485Z" fill="#99582A"/>
<path d="M267.331 61.9722V61.4268C267.331 61.397 267.33 61.3668 267.328 61.3361C267.326 61.3054 267.324 61.2752 267.32 61.2454H267.494L267.508 61.3893H267.491C267.514 61.3385 267.548 61.2996 267.593 61.2728C267.638 61.2449 267.691 61.231 267.75 61.231C267.836 61.231 267.9 61.255 267.943 61.303C267.986 61.351 268.008 61.4258 268.008 61.5275V61.9722H267.828V61.5361C267.828 61.4776 267.816 61.4359 267.793 61.4109C267.771 61.385 267.738 61.3721 267.693 61.3721C267.637 61.3721 267.593 61.3893 267.56 61.4239C267.528 61.4584 267.511 61.5045 267.511 61.562V61.9722H267.331Z" fill="#99582A"/>
<path d="M258.05 63.9809L257.048 64.1425L256.976 63.6978C256.959 63.5879 256.972 63.4998 257.015 63.4334C257.059 63.3671 257.127 63.3264 257.22 63.3114C257.312 63.2966 257.39 63.3137 257.453 63.3628C257.516 63.4119 257.557 63.4914 257.575 63.6012L257.617 63.8627L258.02 63.7976L258.05 63.9809ZM257.472 63.8861L257.433 63.6459C257.423 63.5853 257.403 63.542 257.371 63.5159C257.339 63.4901 257.298 63.4811 257.249 63.489C257.2 63.497 257.164 63.5183 257.143 63.5529C257.12 63.5876 257.114 63.6353 257.123 63.6959L257.162 63.936L257.472 63.8861Z" fill="#31572C"/>
<path d="M257.881 62.4135L257.34 62.3899C257.31 62.3886 257.279 62.3882 257.247 62.3887C257.215 62.3883 257.184 62.3893 257.155 62.3919L257.162 62.2179L257.361 62.2064L257.36 62.2352C257.313 62.2235 257.274 62.206 257.243 62.1825C257.212 62.1581 257.19 62.1293 257.176 62.0961C257.162 62.0628 257.156 62.027 257.158 61.9886C257.158 61.9714 257.16 61.9575 257.162 61.9471C257.164 61.9366 257.167 61.9261 257.171 61.9158L257.329 61.9241C257.321 61.942 257.315 61.9576 257.313 61.9709C257.31 61.9833 257.309 61.9991 257.308 62.0182C257.306 62.0595 257.313 62.0948 257.329 62.1243C257.345 62.1529 257.368 62.175 257.398 62.1908C257.428 62.2055 257.463 62.2138 257.502 62.2155L257.889 62.2324L257.881 62.4135Z" fill="#31572C"/>
<path d="M258.064 60.954C258.046 61.0267 258.016 61.0859 257.973 61.1317C257.93 61.1774 257.877 61.2084 257.815 61.2247C257.753 61.24 257.684 61.2384 257.609 61.2198C257.533 61.2012 257.472 61.1708 257.425 61.1286C257.377 61.0853 257.345 61.0334 257.329 60.9729C257.312 60.9125 257.312 60.8459 257.33 60.7732C257.348 60.7006 257.379 60.6413 257.422 60.5956C257.465 60.5489 257.517 60.5179 257.579 60.5025C257.641 60.4861 257.709 60.4871 257.785 60.5057C257.86 60.5243 257.922 60.5553 257.969 60.5986C258.017 60.6411 258.049 60.693 258.066 60.7543C258.082 60.8148 258.082 60.8813 258.064 60.954ZM257.93 60.921C257.943 60.866 257.935 60.8175 257.905 60.7755C257.874 60.7332 257.819 60.7025 257.741 60.6832C257.663 60.6639 257.6 60.6658 257.554 60.689C257.508 60.7122 257.478 60.7513 257.464 60.8063C257.451 60.8612 257.459 60.9097 257.489 60.9518C257.52 60.9938 257.574 61.0244 257.652 61.0437C257.73 61.063 257.793 61.0612 257.84 61.0382C257.886 61.015 257.916 60.9759 257.93 60.921Z" fill="#31572C"/>
<path d="M258.674 60.0167C258.666 60.0333 258.657 60.0506 258.645 60.0687C258.634 60.0877 258.621 60.1032 258.609 60.1153L258.479 60.0569C258.487 60.0471 258.496 60.0362 258.504 60.0243C258.513 60.0123 258.52 60.0002 258.525 59.988C258.54 59.9565 258.541 59.9276 258.53 59.9015C258.519 59.8744 258.49 59.8507 258.445 59.8302L257.75 59.518L257.824 59.3539L258.528 59.6703C258.61 59.7073 258.664 59.754 258.689 59.8105C258.715 59.8675 258.71 59.9362 258.674 60.0167ZM257.621 59.4724L257.461 59.4004L257.543 59.2179L257.703 59.2899L257.621 59.4724Z" fill="#31572C"/>
<path d="M259.025 58.7119C258.956 58.8126 258.874 58.8726 258.78 58.8919C258.686 58.9112 258.59 58.8879 258.493 58.822C258.431 58.7793 258.384 58.7297 258.354 58.6733C258.324 58.6168 258.311 58.5579 258.315 58.4965C258.319 58.4342 258.341 58.3738 258.381 58.3151C258.42 58.2572 258.465 58.2172 258.516 58.1951C258.567 58.173 258.622 58.1671 258.68 58.1775C258.738 58.1872 258.797 58.2122 258.857 58.2527L258.896 58.2795L258.598 58.7172L258.519 58.6638L258.745 58.3319L258.748 58.3634C258.693 58.3256 258.642 58.3086 258.597 58.3124C258.552 58.3154 258.514 58.3392 258.484 58.3836C258.45 58.4327 258.442 58.4827 258.458 58.5334C258.475 58.5833 258.515 58.6297 258.578 58.6723L258.593 58.6829C258.658 58.7271 258.718 58.7445 258.772 58.7349C258.826 58.724 258.873 58.6892 258.913 58.6305C258.936 58.5964 258.953 58.5618 258.965 58.5265C258.976 58.4899 258.98 58.451 258.978 58.41L259.108 58.4341C259.111 58.4783 259.106 58.5245 259.091 58.5728C259.077 58.6211 259.055 58.6675 259.025 58.7119Z" fill="#31572C"/>
<path d="M259.933 57.6177C259.879 57.6694 259.821 57.7038 259.759 57.7208C259.698 57.7371 259.636 57.7354 259.575 57.7157C259.513 57.6954 259.455 57.6568 259.4 57.6C259.346 57.5431 259.311 57.484 259.294 57.4225C259.279 57.3605 259.281 57.2994 259.3 57.2394C259.32 57.1795 259.357 57.1236 259.411 57.0719C259.446 57.0387 259.485 57.012 259.528 56.992C259.571 56.9705 259.613 56.9599 259.653 56.9601L259.7 57.0883C259.664 57.0889 259.631 57.0963 259.599 57.1106C259.568 57.1235 259.541 57.1405 259.519 57.1618C259.473 57.2062 259.45 57.2556 259.452 57.3099C259.454 57.3636 259.481 57.4181 259.535 57.4736C259.588 57.529 259.641 57.5594 259.695 57.5647C259.75 57.5692 259.801 57.5493 259.847 57.5049C259.869 57.4843 259.887 57.4589 259.902 57.4287C259.918 57.3978 259.927 57.3644 259.93 57.3285L260.055 57.3801C260.052 57.4208 260.04 57.4626 260.017 57.5055C259.995 57.5478 259.967 57.5852 259.933 57.6177Z" fill="#31572C"/>
<path d="M260.983 56.7841C260.91 56.8312 260.843 56.8479 260.782 56.8341C260.72 56.8204 260.665 56.7758 260.615 56.7002L260.433 56.4191L260.316 56.4952L260.242 56.3819L260.359 56.3057L260.257 56.1501L260.383 56.0134L260.51 56.2076L260.672 56.1016L260.746 56.215L260.583 56.321L260.76 56.5924C260.787 56.6342 260.814 56.6583 260.841 56.6647C260.868 56.6712 260.896 56.6652 260.924 56.6469C260.94 56.637 260.952 56.6274 260.96 56.6182C260.97 56.6084 260.979 56.5981 260.987 56.5873L261.064 56.7067C261.054 56.7213 261.042 56.7352 261.027 56.7486C261.013 56.7623 260.998 56.7741 260.983 56.7841Z" fill="#31572C"/>
<path d="M263.023 55.9082C262.92 55.9325 262.827 55.9328 262.744 55.9091C262.661 55.8843 262.591 55.8387 262.534 55.7723C262.476 55.705 262.436 55.6195 262.411 55.5159C262.387 55.4122 262.385 55.3179 262.406 55.233C262.428 55.1481 262.47 55.0765 262.533 55.0182C262.597 54.9588 262.68 54.9169 262.783 54.8927C262.852 54.8764 262.917 54.8715 262.976 54.8781C263.037 54.8845 263.092 54.9021 263.141 54.9309L263.116 55.0877C263.064 55.0625 263.015 55.0474 262.971 55.0421C262.927 55.0357 262.879 55.0387 262.826 55.0511C262.726 55.0746 262.657 55.1231 262.618 55.1963C262.58 55.2685 262.574 55.3601 262.6 55.4712C262.626 55.5823 262.673 55.6621 262.74 55.7104C262.807 55.7585 262.891 55.7708 262.991 55.7472C263.043 55.7349 263.087 55.7165 263.124 55.6921C263.161 55.6665 263.198 55.6303 263.233 55.5835L263.326 55.7125C263.294 55.7593 263.253 55.7996 263.202 55.8334C263.152 55.867 263.092 55.8919 263.023 55.9082Z" fill="#31572C"/>
<path d="M264.185 55.7143L264.143 54.6558L264.323 54.6487L264.365 55.7072L264.185 55.7143Z" fill="#31572C"/>
<path d="M265.45 55.7687C265.33 55.7522 265.24 55.706 265.18 55.6301C265.121 55.5542 265.099 55.4583 265.115 55.3423C265.125 55.2672 265.149 55.2036 265.186 55.1516C265.223 55.0995 265.27 55.0613 265.327 55.0371C265.384 55.013 265.448 55.0058 265.519 55.0154C265.588 55.0249 265.644 55.0475 265.686 55.0833C265.729 55.1192 265.759 55.1653 265.775 55.2218C265.792 55.2784 265.796 55.3424 265.787 55.4137L265.78 55.4608L265.255 55.3891L265.268 55.295L265.666 55.3493L265.639 55.366C265.648 55.2994 265.641 55.2466 265.617 55.2075C265.594 55.1686 265.556 55.1455 265.503 55.1382C265.444 55.1302 265.396 55.1448 265.358 55.1823C265.321 55.2198 265.297 55.2761 265.287 55.3512L265.284 55.3698C265.274 55.4477 265.285 55.5088 265.317 55.553C265.351 55.5963 265.403 55.6228 265.473 55.6324C265.514 55.638 265.553 55.638 265.59 55.6323C265.627 55.6258 265.664 55.6124 265.7 55.5921L265.736 55.7191C265.698 55.742 265.654 55.7578 265.605 55.7665C265.555 55.7753 265.504 55.776 265.45 55.7687Z" fill="#31572C"/>
<path d="M266.787 56.0753C266.727 56.0532 266.68 56.0198 266.646 55.9752C266.612 55.9297 266.592 55.8757 266.586 55.8133C266.581 55.7509 266.592 55.6828 266.619 55.6091C266.647 55.5353 266.683 55.4771 266.727 55.4343C266.772 55.3906 266.823 55.3632 266.878 55.3521C266.934 55.34 266.991 55.345 267.05 55.3671C267.108 55.3886 267.153 55.4217 267.185 55.4665C267.219 55.5108 267.234 55.5595 267.231 55.6125L267.216 55.6069L267.284 55.4695L267.446 55.5297C267.433 55.5566 267.42 55.5839 267.406 55.6117C267.394 55.6398 267.382 55.6678 267.372 55.6957L267.182 56.2069L267.014 56.1446L267.065 56.0039L267.081 56.0099C267.05 56.0513 267.007 56.0777 266.952 56.0892C266.898 56.1007 266.843 56.096 266.787 56.0753ZM266.882 55.9634C266.935 55.9831 266.985 55.9806 267.031 55.9558C267.077 55.93 267.115 55.8794 267.143 55.8039C267.171 55.7283 267.176 55.6661 267.157 55.6172C267.138 55.5683 267.102 55.5339 267.049 55.5142C266.996 55.4944 266.947 55.497 266.901 55.5218C266.855 55.5466 266.817 55.5968 266.789 55.6723C266.761 55.7479 266.756 55.8104 266.773 55.8599C266.792 55.9088 266.828 55.9433 266.882 55.9634Z" fill="#31572C"/>
<path d="M267.93 56.5579L268.231 56.1024C268.247 56.0776 268.263 56.0518 268.278 56.0251C268.293 55.9984 268.308 55.9716 268.321 55.9447L268.466 56.0405L268.399 56.1686L268.385 56.1591C268.432 56.1293 268.482 56.1156 268.534 56.118C268.587 56.1195 268.638 56.1367 268.688 56.1694C268.759 56.2164 268.8 56.2718 268.809 56.3356C268.819 56.3994 268.796 56.4738 268.74 56.5587L268.495 56.9301L268.345 56.8311L268.585 56.467C268.617 56.4181 268.631 56.3769 268.625 56.3434C268.621 56.3096 268.6 56.2803 268.562 56.2555C268.516 56.2249 268.469 56.215 268.423 56.2259C268.377 56.2368 268.338 56.2663 268.306 56.3144L268.081 56.6569L267.93 56.5579Z" fill="#31572C"/>
<path d="M269.804 58.1247L270.626 57.53L271.026 58.0839L270.909 58.1691L270.613 57.7598L270.385 57.9243L270.662 58.3068L270.543 58.3928L270.266 58.0103L270.027 58.1832L270.323 58.5926L270.204 58.6786L269.804 58.1247Z" fill="#31572C"/>
<path d="M270.728 59.649C270.703 59.5906 270.695 59.5336 270.704 59.4778C270.714 59.4217 270.739 59.3702 270.781 59.3234C270.823 59.2766 270.88 59.2379 270.952 59.2073C271.025 59.1766 271.092 59.1628 271.153 59.1659C271.216 59.1686 271.27 59.1863 271.316 59.2189C271.363 59.2511 271.399 59.2964 271.424 59.3547C271.448 59.4113 271.454 59.4668 271.444 59.5211C271.435 59.576 271.41 59.6204 271.369 59.6544L271.363 59.6398L271.51 59.595L271.577 59.754C271.548 59.763 271.52 59.7721 271.49 59.7814C271.461 59.7916 271.433 59.8025 271.405 59.8141L270.903 60.0265L270.834 59.8621L270.971 59.8025L270.978 59.8184C270.926 59.8237 270.877 59.8105 270.831 59.7787C270.785 59.747 270.751 59.7038 270.728 59.649ZM270.875 59.6416C270.897 59.6937 270.933 59.728 270.982 59.7445C271.033 59.7606 271.095 59.753 271.17 59.7216C271.244 59.6902 271.292 59.651 271.315 59.6038C271.338 59.5567 271.338 59.5071 271.316 59.4549C271.294 59.4028 271.258 59.3685 271.209 59.352C271.159 59.3355 271.097 59.3429 271.023 59.3743C270.948 59.4057 270.899 59.4447 270.875 59.4913C270.852 59.5384 270.852 59.5885 270.875 59.6416Z" fill="#31572C"/>
<path d="M271.15 60.8093L271.68 60.7007C271.71 60.6945 271.741 60.6873 271.771 60.6791C271.802 60.6718 271.832 60.6633 271.86 60.6536L271.895 60.8242L271.705 60.8838L271.699 60.8556C271.748 60.8553 271.79 60.8629 271.825 60.8781C271.861 60.8943 271.89 60.9169 271.911 60.9458C271.933 60.9746 271.948 61.0079 271.955 61.0455C271.959 61.0624 271.961 61.0762 271.961 61.0869C271.962 61.0975 271.962 61.1083 271.96 61.1194L271.805 61.1498C271.809 61.1304 271.81 61.1139 271.809 61.1003C271.809 61.0877 271.806 61.072 271.803 61.0532C271.794 61.0128 271.779 60.9802 271.756 60.9555C271.734 60.9317 271.706 60.9158 271.673 60.9079C271.64 60.9009 271.604 60.9014 271.566 60.9092L271.187 60.9869L271.15 60.8093Z" fill="#31572C"/>
<path d="M271.326 62.2487C271.323 62.1624 271.344 62.0965 271.387 62.0509C271.431 62.0053 271.498 61.9811 271.588 61.9782L271.923 61.9673L271.919 61.8278L272.054 61.8234L272.058 61.963L272.244 61.957L272.296 62.1353L272.064 62.1428L272.07 62.337L271.935 62.3413L271.929 62.1471L271.605 62.1576C271.555 62.1592 271.521 62.17 271.501 62.1898C271.482 62.2096 271.472 62.2363 271.474 62.2699C271.474 62.2881 271.476 62.3034 271.479 62.3158C271.483 62.3291 271.487 62.3419 271.492 62.3542L271.35 62.3588C271.342 62.3428 271.337 62.3247 271.334 62.3046C271.329 62.2856 271.327 62.267 271.326 62.2487Z" fill="#31572C"/>
<path d="M271.327 63.0839L272.372 63.2585L272.342 63.436L271.871 63.3572L271.874 63.3373C271.921 63.3676 271.955 63.4077 271.973 63.4576C271.993 63.5076 271.998 63.5619 271.989 63.6206C271.974 63.7058 271.94 63.7651 271.884 63.7987C271.83 63.8324 271.754 63.8412 271.657 63.8249L271.215 63.7511L271.245 63.5736L271.678 63.646C271.734 63.6553 271.776 63.6512 271.804 63.6335C271.833 63.617 271.851 63.5855 271.859 63.5391C271.868 63.4852 271.858 63.4388 271.83 63.4C271.802 63.3623 271.76 63.3388 271.705 63.3294L271.297 63.2613L271.327 63.0839Z" fill="#31572C"/>
<path d="M262.771 58.2861C262.656 58.2861 262.561 58.265 262.483 58.2227C262.405 58.1805 262.347 58.1205 262.307 58.0428C262.268 57.9651 262.248 57.873 262.248 57.7665C262.248 57.659 262.269 57.5664 262.312 57.4887C262.354 57.41 262.414 57.3496 262.493 57.3074C262.573 57.2642 262.668 57.2426 262.779 57.2426C262.853 57.2426 262.918 57.2527 262.974 57.2728C263.029 57.292 263.078 57.3203 263.12 57.3577L263.059 57.5017C263.028 57.4777 262.999 57.4585 262.971 57.4441C262.943 57.4297 262.914 57.4196 262.884 57.4139C262.855 57.4071 262.82 57.4038 262.781 57.4038C262.669 57.4038 262.585 57.4355 262.527 57.4988C262.471 57.5611 262.443 57.6509 262.443 57.7679C262.443 57.885 262.469 57.9742 262.523 58.0356C262.578 58.097 262.663 58.1277 262.779 58.1277C262.819 58.1277 262.858 58.1239 262.897 58.1162C262.938 58.1086 262.977 58.0975 263.015 58.0831L262.981 58.1608V57.8572H262.743V57.7219H263.135V58.2098C263.088 58.2338 263.032 58.2525 262.966 58.2659C262.901 58.2793 262.836 58.2861 262.771 58.2861Z" fill="#99582A"/>
<path d="M263.331 58.2717V57.7305C263.331 57.6998 263.33 57.6686 263.328 57.637C263.327 57.6053 263.325 57.5746 263.321 57.5448H263.495L263.515 57.7435H263.486C263.496 57.6955 263.512 57.6557 263.534 57.624C263.557 57.5923 263.585 57.5688 263.617 57.5535C263.65 57.5381 263.685 57.5304 263.724 57.5304C263.741 57.5304 263.755 57.5314 263.766 57.5333C263.776 57.5343 263.787 57.5367 263.797 57.5405L263.796 57.6988C263.778 57.6912 263.762 57.6864 263.748 57.6844C263.736 57.6825 263.72 57.6816 263.701 57.6816C263.66 57.6816 263.624 57.6902 263.596 57.7075C263.568 57.7247 263.547 57.7487 263.532 57.7794C263.519 57.8101 263.512 57.8452 263.512 57.8845V58.2717H263.331Z" fill="#99582A"/>
<path d="M264.237 58.2861C264.115 58.2861 264.02 58.2525 263.951 58.1853C263.882 58.1181 263.847 58.026 263.847 57.909C263.847 57.8332 263.862 57.767 263.892 57.7104C263.922 57.6537 263.963 57.6096 264.016 57.5779C264.069 57.5463 264.132 57.5304 264.203 57.5304C264.273 57.5304 264.331 57.5453 264.378 57.5751C264.425 57.6048 264.461 57.6465 264.485 57.7003C264.51 57.754 264.522 57.8169 264.522 57.8888V57.9363H263.993V57.8413H264.394L264.37 57.8615C264.37 57.7943 264.355 57.743 264.327 57.7075C264.299 57.672 264.258 57.6542 264.204 57.6542C264.145 57.6542 264.099 57.6753 264.066 57.7176C264.034 57.7598 264.019 57.8188 264.019 57.8946V57.9133C264.019 57.992 264.038 58.051 264.076 58.0903C264.115 58.1287 264.171 58.1479 264.242 58.1479C264.283 58.1479 264.321 58.1426 264.357 58.1321C264.393 58.1205 264.428 58.1023 264.46 58.0774L264.514 58.1983C264.479 58.2261 264.438 58.2477 264.39 58.263C264.342 58.2784 264.291 58.2861 264.237 58.2861Z" fill="#99582A"/>
<path d="M265.026 58.2861C264.904 58.2861 264.808 58.2525 264.739 58.1853C264.67 58.1181 264.636 58.026 264.636 57.909C264.636 57.8332 264.651 57.767 264.68 57.7104C264.71 57.6537 264.751 57.6096 264.804 57.5779C264.858 57.5463 264.92 57.5304 264.991 57.5304C265.061 57.5304 265.12 57.5453 265.167 57.5751C265.214 57.6048 265.249 57.6465 265.273 57.7003C265.298 57.754 265.311 57.8169 265.311 57.8888V57.9363H264.781V57.8413H265.183L265.158 57.8615C265.158 57.7943 265.144 57.743 265.115 57.7075C265.087 57.672 265.046 57.6542 264.993 57.6542C264.933 57.6542 264.887 57.6753 264.855 57.7176C264.823 57.7598 264.807 57.8188 264.807 57.8946V57.9133C264.807 57.992 264.826 58.051 264.865 58.0903C264.904 58.1287 264.959 58.1479 265.03 58.1479C265.071 58.1479 265.11 58.1426 265.145 58.1321C265.182 58.1205 265.216 58.1023 265.249 58.0774L265.302 58.1983C265.268 58.2261 265.226 58.2477 265.178 58.263C265.13 58.2784 265.08 58.2861 265.026 58.2861Z" fill="#99582A"/>
<path d="M265.463 58.2717V57.7262C265.463 57.6964 265.462 57.6662 265.46 57.6355C265.458 57.6048 265.455 57.5746 265.452 57.5448H265.626L265.64 57.6888H265.623C265.646 57.6379 265.68 57.5991 265.725 57.5722C265.77 57.5444 265.822 57.5304 265.882 57.5304C265.967 57.5304 266.032 57.5544 266.075 57.6024C266.118 57.6504 266.14 57.7252 266.14 57.8269V58.2717H265.96V57.8356C265.96 57.777 265.948 57.7353 265.925 57.7104C265.903 57.6844 265.869 57.6715 265.824 57.6715C265.769 57.6715 265.725 57.6888 265.692 57.7233C265.659 57.7578 265.643 57.8039 265.643 57.8615V58.2717H265.463Z" fill="#99582A"/>
<path d="M261.628 60.1222V59.1075H261.814V59.5306H262.334V59.1075H262.519V60.1222H262.334V59.6846H261.814V60.1222H261.628Z" fill="#99582A"/>
<path d="M263.057 60.1366C262.982 60.1366 262.917 60.1212 262.862 60.0905C262.808 60.0598 262.765 60.0161 262.734 59.9595C262.705 59.9029 262.69 59.8357 262.69 59.758C262.69 59.6803 262.705 59.6136 262.734 59.558C262.765 59.5014 262.808 59.4577 262.862 59.427C262.917 59.3963 262.982 59.3809 263.057 59.3809C263.132 59.3809 263.196 59.3963 263.251 59.427C263.307 59.4577 263.349 59.5014 263.379 59.558C263.41 59.6136 263.425 59.6803 263.425 59.758C263.425 59.8357 263.41 59.9029 263.379 59.9595C263.349 60.0161 263.307 60.0598 263.251 60.0905C263.196 60.1212 263.132 60.1366 263.057 60.1366ZM263.057 59.9984C263.113 59.9984 263.159 59.9787 263.192 59.9394C263.226 59.8991 263.242 59.8386 263.242 59.758C263.242 59.6774 263.226 59.6175 263.192 59.5781C263.159 59.5388 263.113 59.5191 263.057 59.5191C263 59.5191 262.955 59.5388 262.922 59.5781C262.888 59.6175 262.871 59.6774 262.871 59.758C262.871 59.8386 262.888 59.8991 262.922 59.9394C262.955 59.9787 263 59.9984 263.057 59.9984Z" fill="#99582A"/>
<path d="M263.579 60.1222V59.581C263.579 59.5503 263.578 59.5191 263.576 59.4874C263.575 59.4558 263.573 59.4251 263.569 59.3953H263.743L263.763 59.5939H263.734C263.744 59.546 263.76 59.5062 263.782 59.4745C263.805 59.4428 263.833 59.4193 263.865 59.404C263.898 59.3886 263.933 59.3809 263.972 59.3809C263.989 59.3809 264.003 59.3819 264.014 59.3838C264.024 59.3848 264.035 59.3872 264.045 59.391L264.044 59.5493C264.026 59.5417 264.01 59.5369 263.996 59.5349C263.984 59.533 263.968 59.5321 263.949 59.5321C263.908 59.5321 263.873 59.5407 263.844 59.558C263.816 59.5752 263.795 59.5992 263.78 59.6299C263.767 59.6606 263.76 59.6957 263.76 59.735V60.1222H263.579Z" fill="#99582A"/>
<path d="M264.145 60.1222V59.3953H264.325V60.1222H264.145ZM264.135 59.2586V59.083H264.335V59.2586H264.135Z" fill="#99582A"/>
<path d="M264.492 60.1222V60.0041L264.947 59.4874V59.5306H264.492V59.3953H265.109V59.5133L264.65 60.0344L264.649 59.9869H265.125V60.1222H264.492Z" fill="#99582A"/>
<path d="M265.592 60.1366C265.518 60.1366 265.453 60.1212 265.398 60.0905C265.343 60.0598 265.301 60.0161 265.27 59.9595C265.24 59.9029 265.225 59.8357 265.225 59.758C265.225 59.6803 265.24 59.6136 265.27 59.558C265.301 59.5014 265.343 59.4577 265.398 59.427C265.453 59.3963 265.518 59.3809 265.592 59.3809C265.667 59.3809 265.732 59.3963 265.787 59.427C265.842 59.4577 265.885 59.5014 265.915 59.558C265.945 59.6136 265.961 59.6803 265.961 59.758C265.961 59.8357 265.945 59.9029 265.915 59.9595C265.885 60.0161 265.842 60.0598 265.787 60.0905C265.732 60.1212 265.667 60.1366 265.592 60.1366ZM265.592 59.9984C265.649 59.9984 265.694 59.9787 265.728 59.9394C265.761 59.8991 265.778 59.8386 265.778 59.758C265.778 59.6774 265.761 59.6175 265.728 59.5781C265.694 59.5388 265.649 59.5191 265.592 59.5191C265.536 59.5191 265.491 59.5388 265.457 59.5781C265.424 59.6175 265.407 59.6774 265.407 59.758C265.407 59.8386 265.424 59.8991 265.457 59.9394C265.491 59.9787 265.536 59.9984 265.592 59.9984Z" fill="#99582A"/>
<path d="M266.116 60.1222V59.5767C266.116 59.5469 266.115 59.5167 266.113 59.486C266.111 59.4553 266.108 59.4251 266.104 59.3953H266.279L266.293 59.5393H266.276C266.299 59.4884 266.333 59.4495 266.378 59.4227C266.423 59.3948 266.475 59.3809 266.535 59.3809C266.62 59.3809 266.684 59.4049 266.728 59.4529C266.771 59.5009 266.792 59.5757 266.792 59.6774V60.1222H266.613V59.6861C266.613 59.6275 266.601 59.5858 266.578 59.5608C266.556 59.5349 266.522 59.522 266.477 59.522C266.422 59.522 266.377 59.5393 266.345 59.5738C266.312 59.6083 266.296 59.6544 266.296 59.712V60.1222H266.116Z" fill="#99582A"/>
<path d="M260.413 61.9726V60.958H261.083V61.1033H260.599V61.3912H261.05V61.5365H260.599V61.9726H260.413Z" fill="#99582A"/>
<path d="M261.525 61.987C261.451 61.987 261.386 61.9717 261.331 61.941C261.276 61.9103 261.234 61.8666 261.203 61.81C261.173 61.7534 261.158 61.6862 261.158 61.6085C261.158 61.5308 261.173 61.4641 261.203 61.4085C261.234 61.3518 261.276 61.3082 261.331 61.2775C261.386 61.2468 261.451 61.2314 261.525 61.2314C261.6 61.2314 261.665 61.2468 261.72 61.2775C261.775 61.3082 261.818 61.3518 261.848 61.4085C261.879 61.4641 261.894 61.5308 261.894 61.6085C261.894 61.6862 261.879 61.7534 261.848 61.81C261.818 61.8666 261.775 61.9103 261.72 61.941C261.665 61.9717 261.6 61.987 261.525 61.987ZM261.525 61.8489C261.582 61.8489 261.627 61.8292 261.661 61.7899C261.694 61.7496 261.711 61.6891 261.711 61.6085C261.711 61.5279 261.694 61.4679 261.661 61.4286C261.627 61.3893 261.582 61.3696 261.525 61.3696C261.469 61.3696 261.424 61.3893 261.39 61.4286C261.357 61.4679 261.34 61.5279 261.34 61.6085C261.34 61.6891 261.357 61.7496 261.39 61.7899C261.424 61.8292 261.469 61.8489 261.525 61.8489Z" fill="#99582A"/>
<path d="M262.311 61.987C262.222 61.987 262.155 61.9626 262.111 61.9136C262.067 61.8647 262.045 61.7899 262.045 61.6891V61.2458H262.225V61.6877C262.225 61.7414 262.236 61.7812 262.258 61.8071C262.28 61.8321 262.313 61.8446 262.359 61.8446C262.409 61.8446 262.451 61.8273 262.482 61.7927C262.515 61.7582 262.531 61.7126 262.531 61.656V61.2458H262.711V61.9726H262.536V61.8244H262.556C262.535 61.8762 262.502 61.9165 262.459 61.9453C262.417 61.9731 262.368 61.987 262.311 61.987Z" fill="#99582A"/>
<path d="M262.906 61.9726V61.4272C262.906 61.3974 262.905 61.3672 262.904 61.3365C262.902 61.3058 262.899 61.2756 262.895 61.2458H263.069L263.083 61.3897H263.066C263.089 61.3389 263.123 61.3 263.168 61.2732C263.213 61.2453 263.266 61.2314 263.325 61.2314C263.411 61.2314 263.475 61.2554 263.518 61.3034C263.561 61.3514 263.583 61.4262 263.583 61.5279V61.9726H263.403V61.5365C263.403 61.478 263.391 61.4363 263.368 61.4113C263.346 61.3854 263.313 61.3725 263.268 61.3725C263.212 61.3725 263.168 61.3897 263.135 61.4243C263.103 61.4588 263.086 61.5049 263.086 61.5625V61.9726H262.906Z" fill="#99582A"/>
<path d="M264.056 61.987C263.992 61.987 263.936 61.9722 263.887 61.9424C263.839 61.9117 263.802 61.8681 263.775 61.8114C263.748 61.7548 263.735 61.6872 263.735 61.6085C263.735 61.5298 263.748 61.4627 263.775 61.407C263.802 61.3504 263.839 61.3072 263.887 61.2775C263.936 61.2468 263.992 61.2314 264.056 61.2314C264.116 61.2314 264.169 61.2463 264.216 61.276C264.263 61.3048 264.294 61.3442 264.309 61.3941H264.29V60.9133H264.47V61.9726H264.293V61.8186H264.311C264.295 61.8705 264.264 61.9117 264.217 61.9424C264.171 61.9722 264.117 61.987 264.056 61.987ZM264.106 61.8489C264.163 61.8489 264.208 61.8292 264.243 61.7899C264.277 61.7496 264.295 61.6891 264.295 61.6085C264.295 61.5279 264.277 61.4679 264.243 61.4286C264.208 61.3893 264.163 61.3696 264.106 61.3696C264.05 61.3696 264.003 61.3893 263.968 61.4286C263.933 61.4679 263.916 61.5279 263.916 61.6085C263.916 61.6891 263.933 61.7496 263.968 61.7899C264.003 61.8292 264.05 61.8489 264.106 61.8489Z" fill="#99582A"/>
<path d="M264.947 61.987C264.883 61.987 264.828 61.9722 264.78 61.9424C264.732 61.9117 264.694 61.8681 264.668 61.8114C264.641 61.7548 264.627 61.6872 264.627 61.6085C264.627 61.5298 264.641 61.4627 264.668 61.407C264.694 61.3504 264.732 61.3072 264.78 61.2775C264.828 61.2468 264.883 61.2314 264.947 61.2314C265.008 61.2314 265.062 61.2468 265.108 61.2775C265.155 61.3072 265.186 61.3475 265.202 61.3984H265.186L265.202 61.2458H265.374C265.371 61.2756 265.369 61.3058 265.366 61.3365C265.364 61.3672 265.363 61.3974 265.363 61.4272V61.9726H265.184L265.183 61.823H265.2C265.185 61.8729 265.154 61.9127 265.107 61.9424C265.06 61.9722 265.006 61.987 264.947 61.987ZM264.997 61.8489C265.054 61.8489 265.099 61.8292 265.134 61.7899C265.168 61.7496 265.186 61.6891 265.186 61.6085C265.186 61.5279 265.168 61.4679 265.134 61.4286C265.099 61.3893 265.054 61.3696 264.997 61.3696C264.941 61.3696 264.895 61.3893 264.86 61.4286C264.826 61.4679 264.809 61.5279 264.809 61.6085C264.809 61.6891 264.825 61.7496 264.859 61.7899C264.894 61.8292 264.94 61.8489 264.997 61.8489Z" fill="#99582A"/>
<path d="M265.87 61.987C265.783 61.987 265.718 61.9645 265.674 61.9194C265.63 61.8743 265.608 61.8066 265.608 61.7165V61.3811H265.468V61.2458H265.608V61.0601L265.788 61.0141V61.2458H265.982V61.3811H265.788V61.7049C265.788 61.7548 265.797 61.7899 265.816 61.81C265.836 61.8302 265.862 61.8402 265.895 61.8402C265.914 61.8402 265.929 61.8388 265.942 61.8359C265.955 61.833 265.968 61.8292 265.98 61.8244V61.9669C265.964 61.9736 265.946 61.9784 265.926 61.9813C265.907 61.9851 265.888 61.987 265.87 61.987Z" fill="#99582A"/>
<path d="M266.104 61.9726V61.2458H266.284V61.9726H266.104ZM266.094 61.1091V60.9335H266.294V61.1091H266.094Z" fill="#99582A"/>
<path d="M266.807 61.987C266.733 61.987 266.668 61.9717 266.613 61.941C266.558 61.9103 266.516 61.8666 266.485 61.81C266.455 61.7534 266.44 61.6862 266.44 61.6085C266.44 61.5308 266.455 61.4641 266.485 61.4085C266.516 61.3518 266.558 61.3082 266.613 61.2775C266.668 61.2468 266.733 61.2314 266.807 61.2314C266.882 61.2314 266.947 61.2468 267.002 61.2775C267.057 61.3082 267.1 61.3518 267.13 61.4085C267.161 61.4641 267.176 61.5308 267.176 61.6085C267.176 61.6862 267.161 61.7534 267.13 61.81C267.1 61.8666 267.057 61.9103 267.002 61.941C266.947 61.9717 266.882 61.987 266.807 61.987ZM266.807 61.8489C266.864 61.8489 266.909 61.8292 266.943 61.7899C266.976 61.7496 266.993 61.6891 266.993 61.6085C266.993 61.5279 266.976 61.4679 266.943 61.4286C266.909 61.3893 266.864 61.3696 266.807 61.3696C266.751 61.3696 266.706 61.3893 266.672 61.4286C266.639 61.4679 266.622 61.5279 266.622 61.6085C266.622 61.6891 266.639 61.7496 266.672 61.7899C266.706 61.8292 266.751 61.8489 266.807 61.8489Z" fill="#99582A"/>
<path d="M267.331 61.9726V61.4272C267.331 61.3974 267.33 61.3672 267.328 61.3365C267.326 61.3058 267.323 61.2756 267.32 61.2458H267.494L267.508 61.3897H267.491C267.514 61.3389 267.548 61.3 267.593 61.2732C267.638 61.2453 267.69 61.2314 267.75 61.2314C267.835 61.2314 267.9 61.2554 267.943 61.3034C267.986 61.3514 268.008 61.4262 268.008 61.5279V61.9726H267.828V61.5365C267.828 61.478 267.816 61.4363 267.793 61.4113C267.771 61.3854 267.737 61.3725 267.692 61.3725C267.637 61.3725 267.593 61.3897 267.56 61.4243C267.527 61.4588 267.511 61.5049 267.511 61.5625V61.9726H267.331Z" fill="#99582A"/>
<path d="M260.671 65.3796C260.589 65.3796 260.514 65.3695 260.445 65.3494C260.377 65.3283 260.318 65.2995 260.269 65.263L260.327 65.1177C260.359 65.1407 260.393 65.1604 260.429 65.1767C260.464 65.192 260.502 65.204 260.543 65.2126C260.583 65.2203 260.626 65.2242 260.671 65.2242C260.746 65.2242 260.801 65.2117 260.835 65.1867C260.868 65.1618 260.885 65.1292 260.885 65.0889C260.885 65.0534 260.874 65.0265 260.851 65.0083C260.828 64.9891 260.786 64.9732 260.727 64.9608L260.564 64.9277C260.471 64.9085 260.401 64.8763 260.355 64.8312C260.309 64.7861 260.286 64.7257 260.286 64.6499C260.286 64.5866 260.303 64.5314 260.337 64.4844C260.37 64.4374 260.417 64.4009 260.478 64.375C260.538 64.3491 260.609 64.3361 260.689 64.3361C260.761 64.3361 260.828 64.3467 260.889 64.3678C260.951 64.3879 261.002 64.4172 261.043 64.4556L260.986 64.5938C260.945 64.5592 260.899 64.5338 260.851 64.5175C260.802 64.5002 260.747 64.4916 260.686 64.4916C260.618 64.4916 260.565 64.505 260.527 64.5319C260.489 64.5578 260.471 64.5938 260.471 64.6398C260.471 64.6753 260.482 64.7036 260.505 64.7247C260.529 64.7458 260.569 64.7622 260.626 64.7737L260.787 64.8053C260.883 64.8245 260.954 64.8562 261 64.9003C261.046 64.9435 261.069 65.002 261.069 65.0759C261.069 65.1364 261.053 65.1896 261.02 65.2357C260.988 65.2808 260.942 65.3163 260.882 65.3422C260.823 65.3671 260.752 65.3796 260.671 65.3796Z" fill="#31572C"/>
<path d="M261.51 65.3796C261.447 65.3796 261.392 65.3647 261.344 65.335C261.296 65.3043 261.258 65.2606 261.231 65.204C261.204 65.1474 261.191 65.0798 261.191 65.0011C261.191 64.9224 261.204 64.8552 261.231 64.7996C261.258 64.743 261.296 64.6998 261.344 64.67C261.392 64.6393 261.447 64.624 261.51 64.624C261.572 64.624 261.626 64.6393 261.672 64.67C261.719 64.6998 261.75 64.7401 261.765 64.7909H261.749L261.765 64.6384H261.938C261.935 64.6681 261.932 64.6983 261.929 64.7291C261.927 64.7598 261.926 64.79 261.926 64.8197V65.3652H261.748L261.747 65.2155H261.764C261.748 65.2654 261.717 65.3052 261.67 65.335C261.623 65.3647 261.57 65.3796 261.51 65.3796ZM261.561 65.2414C261.617 65.2414 261.663 65.2218 261.698 65.1824C261.732 65.1421 261.749 65.0817 261.749 65.0011C261.749 64.9205 261.732 64.8605 261.698 64.8212C261.663 64.7818 261.617 64.7622 261.561 64.7622C261.504 64.7622 261.459 64.7818 261.424 64.8212C261.39 64.8605 261.372 64.9205 261.372 65.0011C261.372 65.0817 261.389 65.1421 261.423 65.1824C261.457 65.2218 261.503 65.2414 261.561 65.2414Z" fill="#31572C"/>
<path d="M262.122 65.3652V64.8197C262.122 64.79 262.121 64.7598 262.119 64.7291C262.118 64.6983 262.115 64.6681 262.111 64.6384H262.285L262.299 64.7823H262.282C262.302 64.7324 262.333 64.6935 262.374 64.6657C262.416 64.6379 262.466 64.624 262.524 64.624C262.581 64.624 262.629 64.6379 262.666 64.6657C262.705 64.6926 262.732 64.7348 262.747 64.7924H262.724C262.744 64.7406 262.777 64.6998 262.823 64.67C262.869 64.6393 262.922 64.624 262.982 64.624C263.063 64.624 263.124 64.648 263.164 64.6959C263.205 64.7439 263.225 64.8188 263.225 64.9205V65.3652H263.045V64.9277C263.045 64.8701 263.035 64.8288 263.016 64.8039C262.997 64.778 262.966 64.765 262.924 64.765C262.874 64.765 262.835 64.7828 262.806 64.8183C262.777 64.8528 262.763 64.8998 262.763 64.9593V65.3652H262.583V64.9277C262.583 64.8701 262.573 64.8288 262.554 64.8039C262.535 64.778 262.504 64.765 262.462 64.765C262.412 64.765 262.373 64.7828 262.344 64.8183C262.316 64.8528 262.302 64.8998 262.302 64.9593V65.3652H262.122Z" fill="#31572C"/>
<path d="M263.679 65.3796C263.59 65.3796 263.523 65.3551 263.479 65.3062C263.435 65.2573 263.413 65.1824 263.413 65.0817V64.6384H263.592V65.0802C263.592 65.134 263.603 65.1738 263.626 65.1997C263.648 65.2246 263.681 65.2371 263.726 65.2371C263.777 65.2371 263.818 65.2198 263.85 65.1853C263.883 65.1508 263.899 65.1052 263.899 65.0486V64.6384H264.079V65.3652H263.903V65.217H263.923C263.902 65.2688 263.87 65.3091 263.827 65.3379C263.785 65.3657 263.735 65.3796 263.679 65.3796Z" fill="#31572C"/>
<path d="M264.556 65.3796C264.493 65.3796 264.437 65.3647 264.388 65.335C264.34 65.3043 264.303 65.2606 264.276 65.204C264.249 65.1474 264.235 65.0798 264.235 65.0011C264.235 64.9224 264.249 64.8552 264.276 64.7996C264.303 64.743 264.34 64.6998 264.388 64.67C264.437 64.6393 264.493 64.624 264.556 64.624C264.617 64.624 264.67 64.6389 264.716 64.6686C264.763 64.6974 264.794 64.7367 264.81 64.7866H264.791V64.3059H264.971V65.3652H264.794V65.2112H264.811C264.796 65.263 264.765 65.3043 264.718 65.335C264.671 65.3647 264.618 65.3796 264.556 65.3796ZM264.607 65.2414C264.663 65.2414 264.709 65.2218 264.743 65.1824C264.778 65.1421 264.795 65.0817 264.795 65.0011C264.795 64.9205 264.778 64.8605 264.743 64.8212C264.709 64.7818 264.663 64.7622 264.607 64.7622C264.55 64.7622 264.504 64.7818 264.469 64.8212C264.434 64.8605 264.417 64.9205 264.417 65.0011C264.417 65.0817 264.434 65.1421 264.469 65.1824C264.504 65.2218 264.55 65.2414 264.607 65.2414Z" fill="#31572C"/>
<path d="M265.447 65.3796C265.384 65.3796 265.328 65.3647 265.28 65.335C265.232 65.3043 265.195 65.2606 265.168 65.204C265.141 65.1474 265.128 65.0798 265.128 65.0011C265.128 64.9224 265.141 64.8552 265.168 64.7996C265.195 64.743 265.232 64.6998 265.28 64.67C265.328 64.6393 265.384 64.624 265.447 64.624C265.509 64.624 265.563 64.6393 265.609 64.67C265.656 64.6998 265.687 64.7401 265.702 64.7909H265.686L265.702 64.6384H265.875C265.872 64.6681 265.869 64.6983 265.866 64.7291C265.864 64.7598 265.863 64.79 265.863 64.8197V65.3652H265.685L265.683 65.2155H265.701C265.685 65.2654 265.654 65.3052 265.607 65.335C265.56 65.3647 265.507 65.3796 265.447 65.3796ZM265.498 65.2414C265.554 65.2414 265.6 65.2218 265.635 65.1824C265.669 65.1421 265.686 65.0817 265.686 65.0011C265.686 64.9205 265.669 64.8605 265.635 64.8212C265.6 64.7818 265.554 64.7622 265.498 64.7622C265.441 64.7622 265.396 64.7818 265.361 64.8212C265.326 64.8605 265.309 64.9205 265.309 65.0011C265.309 65.0817 265.326 65.1421 265.36 65.1824C265.394 65.2218 265.44 65.2414 265.498 65.2414Z" fill="#31572C"/>
<path d="M266.34 65.3796C266.277 65.3796 266.221 65.3647 266.173 65.335C266.125 65.3043 266.088 65.2606 266.061 65.204C266.034 65.1474 266.02 65.0798 266.02 65.0011C266.02 64.9224 266.034 64.8552 266.061 64.7996C266.088 64.743 266.125 64.6998 266.173 64.67C266.221 64.6393 266.277 64.624 266.34 64.624C266.401 64.624 266.455 64.6393 266.501 64.67C266.548 64.6998 266.579 64.7401 266.595 64.7909H266.579L266.595 64.6384H266.767C266.764 64.6681 266.762 64.6983 266.759 64.7291C266.757 64.7598 266.756 64.79 266.756 64.8197V65.3652H266.577L266.576 65.2155H266.593C266.578 65.2654 266.547 65.3052 266.5 65.335C266.453 65.3647 266.399 65.3796 266.34 65.3796ZM266.39 65.2414C266.447 65.2414 266.492 65.2218 266.527 65.1824C266.562 65.1421 266.579 65.0817 266.579 65.0011C266.579 64.9205 266.562 64.8605 266.527 64.8212C266.492 64.7818 266.447 64.7622 266.39 64.7622C266.334 64.7622 266.288 64.7818 266.254 64.8212C266.219 64.8605 266.202 64.9205 266.202 65.0011C266.202 65.0817 266.219 65.1421 266.252 65.1824C266.287 65.2218 266.333 65.2414 266.39 65.2414Z" fill="#31572C"/>
<path d="M266.93 65.6919L266.889 65.5494C266.934 65.5398 266.972 65.5288 267.002 65.5163C267.033 65.5039 267.058 65.4875 267.079 65.4674C267.099 65.4472 267.116 65.4213 267.129 65.3897L267.165 65.3048L267.161 65.3753L266.844 64.6384H267.035L267.263 65.2054H267.221L267.45 64.6384H267.631L267.3 65.4055C267.278 65.4573 267.254 65.5 267.228 65.5336C267.202 65.5681 267.175 65.5955 267.145 65.6156C267.115 65.6367 267.082 65.6531 267.047 65.6646C267.011 65.6761 266.973 65.6852 266.93 65.6919Z" fill="#31572C"/>
<path d="M268.063 65.3796C267.941 65.3796 267.846 65.346 267.777 65.2789C267.708 65.2117 267.673 65.1196 267.673 65.0025C267.673 64.9267 267.688 64.8605 267.718 64.8039C267.748 64.7473 267.789 64.7031 267.842 64.6715C267.895 64.6398 267.958 64.624 268.029 64.624C268.099 64.624 268.157 64.6389 268.204 64.6686C268.251 64.6983 268.287 64.7401 268.311 64.7938C268.336 64.8476 268.348 64.9104 268.348 64.9824V65.0299H267.819V64.9349H268.22L268.196 64.955C268.196 64.8878 268.181 64.8365 268.153 64.801C268.125 64.7655 268.084 64.7478 268.03 64.7478C267.971 64.7478 267.925 64.7689 267.892 64.8111C267.86 64.8533 267.845 64.9123 267.845 64.9881V65.0068C267.845 65.0855 267.864 65.1445 267.902 65.1839C267.941 65.2222 267.997 65.2414 268.068 65.2414C268.109 65.2414 268.147 65.2362 268.183 65.2256C268.219 65.2141 268.254 65.1959 268.286 65.1709L268.34 65.2918C268.305 65.3196 268.264 65.3412 268.216 65.3566C268.168 65.3719 268.117 65.3796 268.063 65.3796Z" fill="#31572C"/>
<path d="M268.174 67.5419L267.832 67.2285C267.813 67.2107 267.792 67.1933 267.771 67.1761C267.751 67.1584 267.73 67.1421 267.709 67.1273L267.81 67.0173L267.947 67.1196L267.93 67.1378C267.905 67.1039 267.889 67.0709 267.882 67.0386C267.875 67.0057 267.877 66.9745 267.886 66.945C267.895 66.9155 267.911 66.8886 267.933 66.8644C267.943 66.8534 267.952 66.8452 267.959 66.8396C267.966 66.8335 267.973 66.8283 267.982 66.8238L268.081 66.9164C268.066 66.9235 268.054 66.9307 268.045 66.9381C268.036 66.9449 268.026 66.9543 268.015 66.9664C267.991 66.9925 267.976 67.0196 267.971 67.0478C267.966 67.0754 267.968 67.1026 267.98 67.1295C267.991 67.1558 268.009 67.1803 268.034 67.2031L268.279 67.4273L268.174 67.5419Z" fill="#99582A"/>
<path d="M267.36 68.2143C267.307 68.2505 267.253 68.2709 267.2 68.2755C267.146 68.2802 267.095 68.2698 267.046 68.2446C266.997 68.2188 266.954 68.1784 266.917 68.1234C266.879 68.0683 266.858 68.0139 266.852 67.9601C266.846 67.9052 266.855 67.8537 266.879 67.8055C266.903 67.7574 266.942 67.7153 266.995 67.6791C267.048 67.643 267.101 67.6226 267.155 67.618C267.209 67.6128 267.26 67.6232 267.309 67.6489C267.357 67.6735 267.4 67.7133 267.438 67.7684C267.475 67.8234 267.497 67.8784 267.502 67.9333C267.509 67.9878 267.5 68.0393 267.475 68.0879C267.451 68.1361 267.413 68.1782 267.36 68.2143ZM267.293 68.1165C267.333 68.0891 267.355 68.0534 267.36 68.0094C267.365 67.9646 267.347 67.9137 267.308 67.8566C267.269 67.7995 267.229 67.7651 267.186 67.7535C267.143 67.7418 267.102 67.7497 267.062 67.777C267.021 67.8043 266.999 67.84 266.994 67.8841C266.989 67.9282 267.006 67.9788 267.045 68.0358C267.084 68.0929 267.125 68.1276 267.169 68.14C267.211 68.1516 267.253 68.1438 267.293 68.1165Z" fill="#99582A"/>
<path d="M266.455 68.6848C266.386 68.7116 266.327 68.7138 266.278 68.6915C266.229 68.6691 266.19 68.6219 266.162 68.5498L266.058 68.2819L265.946 68.3252L265.904 68.2171L266.016 68.1738L265.958 68.0254L266.088 67.9328L266.16 68.118L266.315 68.0577L266.357 68.1658L266.202 68.2261L266.302 68.4848C266.318 68.5247 266.336 68.5497 266.358 68.5599C266.379 68.57 266.404 68.5699 266.43 68.5595C266.445 68.5538 266.457 68.5479 266.466 68.5417C266.476 68.5353 266.485 68.5282 266.493 68.5205L266.538 68.6343C266.527 68.6447 266.514 68.6542 266.498 68.6628C266.484 68.6718 266.47 68.6791 266.455 68.6848Z" fill="#99582A"/>
<path d="M265.087 69.0269C265.033 69.0343 264.984 69.0282 264.94 69.0085C264.895 68.9881 264.858 68.9554 264.829 68.9104C264.8 68.8655 264.78 68.8096 264.771 68.7428C264.762 68.676 264.765 68.6174 264.782 68.567C264.798 68.5158 264.825 68.4748 264.862 68.4439C264.899 68.4122 264.945 68.3927 264.998 68.3853C265.05 68.3781 265.098 68.3849 265.141 68.4055C265.184 68.4253 265.215 68.4559 265.234 68.4973L265.221 68.4991L265.216 68.3677L265.363 68.3475C265.364 68.3731 265.365 68.3991 265.366 68.4255C265.368 68.4518 265.371 68.4776 265.374 68.5029L265.438 68.9661L265.287 68.9869L265.268 68.86L265.283 68.858C265.275 68.9021 265.254 68.9396 265.217 68.9703C265.181 69.0011 265.137 69.0199 265.087 69.0269ZM265.113 68.9037C265.161 68.8971 265.198 68.875 265.223 68.8376C265.247 68.7993 265.255 68.746 265.245 68.6776C265.236 68.6091 265.214 68.5602 265.18 68.5308C265.146 68.5015 265.105 68.4901 265.057 68.4967C265.009 68.5033 264.973 68.5254 264.948 68.5628C264.923 68.6002 264.916 68.6532 264.925 68.7216C264.935 68.7901 264.956 68.8394 264.989 68.8697C265.023 68.8991 265.064 68.9104 265.113 68.9037Z" fill="#99582A"/>
<path d="M263.435 68.935L263.501 68.4721C263.505 68.4469 263.508 68.4211 263.51 68.3948C263.512 68.3686 263.513 68.3426 263.514 68.3169L263.661 68.338L263.656 68.4618L263.642 68.4597C263.667 68.4194 263.701 68.3905 263.742 68.3732C263.784 68.355 263.83 68.3496 263.881 68.3568C263.953 68.3671 264.005 68.3952 264.036 68.4412C264.066 68.4871 264.076 68.5532 264.063 68.6395L264.009 69.0169L263.857 68.9951L263.91 68.6251C263.917 68.5754 263.912 68.5386 263.895 68.5147C263.88 68.49 263.853 68.4749 263.815 68.4695C263.767 68.4627 263.728 68.472 263.696 68.4974C263.664 68.5228 263.645 68.5599 263.638 68.6087L263.588 68.9568L263.435 68.935Z" fill="#99582A"/>
<path d="M262.382 68.5786C262.324 68.5528 262.278 68.5184 262.246 68.4754C262.214 68.4324 262.195 68.3834 262.191 68.3284C262.187 68.2737 262.198 68.2159 262.225 68.1549C262.252 68.094 262.287 68.0468 262.329 68.0134C262.373 67.9796 262.422 67.9601 262.475 67.9549C262.529 67.9497 262.585 67.96 262.643 67.9859C262.702 68.0117 262.748 68.0461 262.78 68.0891C262.813 68.1324 262.831 68.1814 262.835 68.2361C262.84 68.2903 262.829 68.3479 262.802 68.4089C262.775 68.4699 262.74 68.5173 262.697 68.5511C262.654 68.5852 262.605 68.6047 262.551 68.6096C262.497 68.6148 262.441 68.6045 262.382 68.5786ZM262.43 68.4702C262.475 68.4898 262.517 68.4899 262.557 68.4707C262.597 68.4507 262.631 68.409 262.659 68.3458C262.687 68.2826 262.694 68.2297 262.681 68.1873C262.669 68.1448 262.64 68.1138 262.596 68.0942C262.551 68.0747 262.509 68.0746 262.469 68.0938C262.429 68.1131 262.395 68.1543 262.368 68.2176C262.34 68.2808 262.332 68.334 262.344 68.3772C262.357 68.4197 262.386 68.4507 262.43 68.4702Z" fill="#99582A"/>
<path d="M260.786 67.4405L261.36 66.7865L261.597 66.9946C261.672 67.0602 261.724 67.1285 261.752 67.1995C261.782 67.2704 261.789 67.3419 261.773 67.4141C261.757 67.4856 261.719 67.556 261.658 67.6253C261.598 67.694 261.533 67.7411 261.464 67.7666C261.394 67.7922 261.322 67.7952 261.247 67.7756C261.173 67.7566 261.099 67.7143 261.024 67.6487L260.786 67.4405ZM260.993 67.4462L261.103 67.5429C261.183 67.6123 261.258 67.6449 261.329 67.6408C261.401 67.6367 261.47 67.5963 261.537 67.5196C261.605 67.4423 261.636 67.3683 261.63 67.2976C261.625 67.2262 261.583 67.1559 261.504 67.0865L261.393 66.9897L260.993 67.4462Z" fill="#99582A"/>
<path d="M158.026 78.5386C158.051 78.5847 158.077 78.6256 158.108 78.6614C163.726 85.6053 172.664 94.9951 185.721 103.193C195.324 109.226 204.39 112.879 211.558 115.151C211.742 115.207 211.937 115.197 212.111 115.11C213.334 114.527 214.889 113.754 216.659 112.802C231.783 104.687 238.25 96.6121 250.565 86.5775C250.816 86.3729 252.463 85.0322 254.326 82.9393C256.28 80.7492 257.979 78.7996 258.777 75.8726C259.007 75.0283 259.243 73.8156 259.207 72.2856C259.197 71.6869 258.511 71.3389 258.02 71.6767C257.529 72.0144 256.884 72.3521 256.091 72.5414C255.794 72.6131 255.508 72.654 255.237 72.6745C254.52 72.7308 254.131 71.8506 254.653 71.3543C255.339 70.7044 255.922 70.1774 256.434 69.7475C256.705 69.5224 257.227 69.0925 257.217 68.5143C257.217 68.5143 257.217 68.5092 257.217 68.5041C257.201 68.0435 256.72 67.7365 256.275 67.8491C255.697 67.9975 255.104 68.1612 254.5 68.3403C252.116 69.0516 249.992 69.9113 248.125 70.8068C248.023 70.8579 247.93 70.9244 247.859 71.0166C247.091 71.9786 246.063 73.5034 245.347 75.5759C244.62 77.6739 244.492 79.5365 244.513 80.8157C244.513 81.1074 244.354 81.3735 244.093 81.5014C233.651 86.7771 223.203 92.0477 212.761 97.3234C212.484 97.4615 212.147 97.4206 211.916 97.2159C199.146 86.1375 189.338 77.9809 184.836 74.1635C182.774 72.4186 178.594 68.852 172.224 65.7153C169.266 64.2672 166.606 63.126 164.391 62.2357C164.319 62.205 164.242 62.1896 164.165 62.1794C161.014 61.8928 159.305 63.0186 158.732 63.4535C155.365 65.9967 154.613 72.3368 158.021 78.5233L158.026 78.5386Z" fill="#F7A390"/>
<path d="M117.555 355.219C118.446 356.417 120.917 359.415 125.296 360.853C128.279 361.836 130.883 361.672 132.337 361.467C132.275 361.943 131.543 366.774 127.205 368.979C124.519 370.345 121.935 369.946 121.04 369.767C120.308 369.67 118.763 369.353 117.525 368.114C116.067 366.656 115.918 364.798 115.795 363.289C115.524 359.876 116.691 357.082 117.555 355.485" fill="#3A8F7D"/>
<path d="M180.072 359.425C181.996 360.218 184.912 361.159 188.565 361.41C192.627 361.687 195.943 360.986 198.04 360.366C204.303 363.186 210.56 366.005 216.823 368.82C216.848 368.85 217.145 369.178 217.048 369.633C216.945 370.119 216.49 370.288 216.459 370.299L180.911 369.695C180.44 369.178 178.936 367.407 178.726 364.649C178.521 361.953 179.683 360.008 180.072 359.42V359.425Z" fill="#3A8F7D"/>
<defs>
<filter id="filter0_b_30_257" x="235" y="32" width="58.916" height="58.9161" filterUnits="userSpaceOnUse" color-interpolation-filters="sRGB">
<feFlood flood-opacity="0" result="BackgroundImageFix"/>
<feGaussianBlur in="BackgroundImageFix" stdDeviation="10"/>
<feComposite in2="SourceAlpha" operator="in" result="effect1_backgroundBlur_30_257"/>
<feBlend mode="normal" in="SourceGraphic" in2="effect1_backgroundBlur_30_257" result="shape"/>
</filter>
</defs>
</svg>
