<svg width="27" height="27" viewBox="0 0 27 27" fill="none" xmlns="http://www.w3.org/2000/svg">
<path d="M1.6189 7.69499C1.6189 4.39629 4.29302 1.72217 7.59171 1.72217H19.4237C22.7224 1.72217 25.3965 4.39629 25.3965 7.69499V19.5269C25.3965 22.8256 22.7224 25.4998 19.4237 25.4998H7.59171C4.29302 25.4998 1.6189 22.8256 1.6189 19.5269V7.69499Z" stroke="white" stroke-width="3"/>
<path d="M20.0462 13.6111C20.0462 17.2223 17.1187 20.1498 13.5075 20.1498C9.89623 20.1498 6.96875 17.2223 6.96875 13.6111C6.96875 9.99984 9.89623 7.07236 13.5075 7.07236C17.1187 7.07236 20.0462 9.99984 20.0462 13.6111ZM8.93036 13.6111C8.93036 16.1389 10.9796 18.1882 13.5075 18.1882C16.0353 18.1882 18.0846 16.1389 18.0846 13.6111C18.0846 11.0832 16.0353 9.03397 13.5075 9.03397C10.9796 9.03397 8.93036 11.0832 8.93036 13.6111Z" fill="white"/>
<path d="M22.5371 6.44963C22.5371 7.48141 21.7007 8.31783 20.6689 8.31783C19.6371 8.31783 18.8007 7.48141 18.8007 6.44963C18.8007 5.41784 19.6371 4.58142 20.6689 4.58142C21.7007 4.58142 22.5371 5.41784 22.5371 6.44963Z" fill="white"/>
</svg>
