<svg width="21" height="20" viewBox="0 0 21 20" fill="none" xmlns="http://www.w3.org/2000/svg">
<path d="M5.65739 17.9777C5.20438 17.9777 4.81657 17.8221 4.49397 17.511C4.17137 17.1999 4.01007 16.8259 4.01007 16.3889V8.44508C4.01007 8.00817 4.17137 7.63415 4.49397 7.32301C4.81657 7.01188 5.20438 6.85631 5.65739 6.85631H6.48105V5.26754C6.48105 4.16864 6.88259 3.23192 7.68566 2.4574C8.48873 1.68287 9.45996 1.29561 10.5994 1.29561C11.7388 1.29561 12.71 1.68287 13.5131 2.4574C14.3161 3.23192 14.7177 4.16864 14.7177 5.26754V6.85631H15.5413C15.9943 6.85631 16.3821 7.01188 16.7047 7.32301C17.0273 7.63415 17.1886 8.00817 17.1886 8.44508V16.3889C17.1886 16.8259 17.0273 17.1999 16.7047 17.511C16.3821 17.8221 15.9943 17.9777 15.5413 17.9777H5.65739ZM5.65739 16.3889H15.5413V8.44508H5.65739V16.3889ZM10.5994 14.0058C11.0524 14.0058 11.4402 13.8502 11.7628 13.5391C12.0854 13.2279 12.2467 12.8539 12.2467 12.417C12.2467 11.9801 12.0854 11.6061 11.7628 11.2949C11.4402 10.9838 11.0524 10.8282 10.5994 10.8282C10.1463 10.8282 9.75854 10.9838 9.43594 11.2949C9.11333 11.6061 8.95203 11.9801 8.95203 12.417C8.95203 12.8539 9.11333 13.2279 9.43594 13.5391C9.75854 13.8502 10.1463 14.0058 10.5994 14.0058ZM8.12837 6.85631H13.0703V5.26754C13.0703 4.60555 12.8301 4.04286 12.3496 3.57947C11.8692 3.11608 11.2857 2.88438 10.5994 2.88438C9.91297 2.88438 9.32955 3.11608 8.84908 3.57947C8.36861 4.04286 8.12837 4.60555 8.12837 5.26754V6.85631Z" fill="#132A13"/>
</svg>
