<svg width="22" height="22" viewBox="0 0 22 22" fill="none" xmlns="http://www.w3.org/2000/svg">
<path d="M6.03906 19.794C5.55352 19.794 5.13786 19.6205 4.79209 19.2735C4.44632 18.9265 4.27344 18.5094 4.27344 18.0221V9.16288C4.27344 8.67562 4.44632 8.2585 4.79209 7.91152C5.13786 7.56453 5.55352 7.39104 6.03906 7.39104H6.92188V5.61919C6.92188 4.39366 7.35225 3.34901 8.21299 2.48524C9.07373 1.62146 10.1147 1.18958 11.3359 1.18958C12.5572 1.18958 13.5981 1.62146 14.4589 2.48524C15.3196 3.34901 15.75 4.39366 15.75 5.61919V7.39104H16.6328C17.1184 7.39104 17.534 7.56453 17.8798 7.91152C18.2256 8.2585 18.3984 8.67562 18.3984 9.16288V18.0221C18.3984 18.5094 18.2256 18.9265 17.8798 19.2735C17.534 19.6205 17.1184 19.794 16.6328 19.794H6.03906ZM6.03906 18.0221H16.6328V9.16288H6.03906V18.0221ZM11.3359 15.3643C11.8215 15.3643 12.2371 15.1908 12.5829 14.8439C12.9287 14.4969 13.1016 14.0798 13.1016 13.5925C13.1016 13.1052 12.9287 12.6881 12.5829 12.3411C12.2371 11.9941 11.8215 11.8207 11.3359 11.8207C10.8504 11.8207 10.4347 11.9941 10.089 12.3411C9.7432 12.6881 9.57031 13.1052 9.57031 13.5925C9.57031 14.0798 9.7432 14.4969 10.089 14.8439C10.4347 15.1908 10.8504 15.3643 11.3359 15.3643ZM8.6875 7.39104H13.9844V5.61919C13.9844 4.88092 13.7269 4.25339 13.2119 3.7366C12.6969 3.21982 12.0716 2.96142 11.3359 2.96142C10.6003 2.96142 9.97494 3.21982 9.45996 3.7366C8.94499 4.25339 8.6875 4.88092 8.6875 5.61919V7.39104Z" fill="#31572C"/>
</svg>
