<svg width="21" height="20" viewBox="0 0 21 20" fill="none" xmlns="http://www.w3.org/2000/svg">
<path d="M5.36298 18.3115C4.91059 18.3115 4.5233 18.1524 4.20114 17.8342C3.87898 17.5159 3.7179 17.1334 3.7179 16.6865V8.56152C3.7179 8.11465 3.87898 7.73209 4.20114 7.41386C4.5233 7.09564 4.91059 6.93652 5.36298 6.93652H6.18553V5.31152C6.18553 4.18756 6.58652 3.22949 7.3885 2.4373C8.19048 1.64512 9.1604 1.24902 10.2983 1.24902C11.4361 1.24902 12.406 1.64512 13.208 2.4373C14.01 3.22949 14.411 4.18756 14.411 5.31152V6.93652H15.2335C15.6859 6.93652 16.0732 7.09564 16.3954 7.41386C16.7175 7.73209 16.8786 8.11465 16.8786 8.56152V16.6865C16.8786 17.1334 16.7175 17.5159 16.3954 17.8342C16.0732 18.1524 15.6859 18.3115 15.2335 18.3115H5.36298ZM5.36298 16.6865H15.2335V8.56152H5.36298V16.6865ZM10.2983 14.249C10.7507 14.249 11.1379 14.0899 11.4601 13.7717C11.7823 13.4534 11.9433 13.0709 11.9433 12.624C11.9433 12.1771 11.7823 11.7946 11.4601 11.4764C11.1379 11.1581 10.7507 10.999 10.2983 10.999C9.84585 10.999 9.45857 11.1581 9.13641 11.4764C8.81424 11.7946 8.65316 12.1771 8.65316 12.624C8.65316 13.0709 8.81424 13.4534 9.13641 13.7717C9.45857 14.0899 9.84585 14.249 10.2983 14.249ZM7.83062 6.93652H12.7659V5.31152C12.7659 4.63444 12.526 4.05892 12.0462 3.58496C11.5663 3.111 10.9837 2.87402 10.2983 2.87402C9.6128 2.87402 9.03016 3.111 8.55034 3.58496C8.07053 4.05892 7.83062 4.63444 7.83062 5.31152V6.93652Z" fill="#132A13"/>
</svg>
