<svg width="22" height="22" viewBox="0 0 22 22" fill="none" xmlns="http://www.w3.org/2000/svg">
<path d="M4.27344 18.1135C3.78789 18.1135 3.37223 17.94 3.02646 17.593C2.6807 17.246 2.50781 16.8289 2.50781 16.3416V5.71057C2.50781 5.22331 2.6807 4.80619 3.02646 4.4592C3.37223 4.11221 3.78789 3.93872 4.27344 3.93872H18.3984C18.884 3.93872 19.2996 4.11221 19.6454 4.4592C19.9912 4.80619 20.1641 5.22331 20.1641 5.71057V16.3416C20.1641 16.8289 19.9912 17.246 19.6454 17.593C19.2996 17.94 18.884 18.1135 18.3984 18.1135H4.27344ZM11.3359 11.912L4.27344 7.48241V16.3416H18.3984V7.48241L11.3359 11.912ZM11.3359 10.1402L18.3984 5.71057H4.27344L11.3359 10.1402ZM4.27344 7.48241V5.71057V16.3416V7.48241Z" fill="#31572C"/>
</svg>
