<svg width="21" height="20" viewBox="0 0 21 20" fill="none" xmlns="http://www.w3.org/2000/svg">
<path d="M4.01011 16.1821C3.5571 16.1821 3.16929 16.0266 2.84669 15.7154C2.52409 15.4043 2.36279 15.0303 2.36279 14.5934V5.06073C2.36279 4.62382 2.52409 4.24979 2.84669 3.93866C3.16929 3.62753 3.5571 3.47196 4.01011 3.47196H17.1887C17.6417 3.47196 18.0295 3.62753 18.3521 3.93866C18.6747 4.24979 18.836 4.62382 18.836 5.06073V14.5934C18.836 15.0303 18.6747 15.4043 18.3521 15.7154C18.0295 16.0266 17.6417 16.1821 17.1887 16.1821H4.01011ZM10.5994 10.6214L4.01011 6.6495V14.5934H17.1887V6.6495L10.5994 10.6214ZM10.5994 9.03266L17.1887 5.06073H4.01011L10.5994 9.03266ZM4.01011 6.6495V5.06073V14.5934V6.6495Z" fill="#132A13"/>
</svg>
