<svg width="21" height="20" viewBox="0 0 21 20" fill="none" xmlns="http://www.w3.org/2000/svg">
<path d="M3.7179 16.5616C3.2655 16.5616 2.87822 16.4025 2.55606 16.0843C2.2339 15.7661 2.07281 15.3835 2.07281 14.9366V5.18664C2.07281 4.73977 2.2339 4.35722 2.55606 4.03899C2.87822 3.72076 3.2655 3.56165 3.7179 3.56165H16.8786C17.331 3.56165 17.7183 3.72076 18.0405 4.03899C18.3626 4.35722 18.5237 4.73977 18.5237 5.18664V14.9366C18.5237 15.3835 18.3626 15.7661 18.0405 16.0843C17.7183 16.4025 17.331 16.5616 16.8786 16.5616H3.7179ZM10.2983 10.8741L3.7179 6.81164V14.9366H16.8786V6.81164L10.2983 10.8741ZM10.2983 9.24914L16.8786 5.18664H3.7179L10.2983 9.24914ZM3.7179 6.81164V5.18664V14.9366V6.81164Z" fill="#132A13"/>
</svg>
