<svg width="30" height="30" viewBox="0 0 30 30" fill="none" xmlns="http://www.w3.org/2000/svg">
<path d="M21.25 2.50006H8.75C5.3 2.50006 2.5 5.28756 2.5 8.72506V16.2001V17.4501C2.5 20.8876 5.3 23.6751 8.75 23.6751H10.625C10.9625 23.6751 11.4125 23.9001 11.625 24.1751L13.5 26.6626C14.325 27.7626 15.675 27.7626 16.5 26.6626L18.375 24.1751C18.6125 23.8626 18.9875 23.6751 19.375 23.6751H21.25C24.7 23.6751 27.5 20.8876 27.5 17.4501V8.72506C27.5 5.28756 24.7 2.50006 21.25 2.50006ZM16.25 17.1876H8.75C8.2375 17.1876 7.8125 16.7626 7.8125 16.2501C7.8125 15.7376 8.2375 15.3126 8.75 15.3126H16.25C16.7625 15.3126 17.1875 15.7376 17.1875 16.2501C17.1875 16.7626 16.7625 17.1876 16.25 17.1876ZM21.25 10.9376H8.75C8.2375 10.9376 7.8125 10.5126 7.8125 10.0001C7.8125 9.48756 8.2375 9.06256 8.75 9.06256H21.25C21.7625 9.06256 22.1875 9.48756 22.1875 10.0001C22.1875 10.5126 21.7625 10.9376 21.25 10.9376Z" fill="#132A13"/>
</svg>
