<svg width="30" height="30" viewBox="0 0 30 30" fill="none" xmlns="http://www.w3.org/2000/svg">
<path d="M23.087 21.0376L23.5745 24.9876C23.6995 26.0251 22.587 26.7501 21.6995 26.2126L17.3745 23.6376C17.0745 23.4626 16.9995 23.0876 17.162 22.7876C17.787 21.6376 18.1245 20.3376 18.1245 19.0376C18.1245 14.4626 14.1995 10.7376 9.3745 10.7376C8.387 10.7376 7.4245 10.8876 6.5245 11.1876C6.062 11.3376 5.612 10.9126 5.7245 10.4376C6.862 5.88762 11.237 2.50012 16.462 2.50012C22.562 2.50012 27.4995 7.11262 27.4995 12.8001C27.4995 16.1751 25.762 19.1626 23.087 21.0376Z" fill="#132A13"/>
<path d="M16.25 19.0373C16.25 20.5248 15.7 21.8998 14.775 22.9873C13.5375 24.4873 11.575 25.4498 9.375 25.4498L6.1125 27.3873C5.5625 27.7248 4.8625 27.2623 4.9375 26.6248L5.25 24.1623C3.575 22.9998 2.5 21.1373 2.5 19.0373C2.5 16.8373 3.675 14.8998 5.475 13.7498C6.5875 13.0248 7.925 12.6123 9.375 12.6123C13.175 12.6123 16.25 15.4873 16.25 19.0373Z" fill="#132A13"/>
</svg>
