<svg width="21" height="21" viewBox="0 0 21 21" fill="none" xmlns="http://www.w3.org/2000/svg">
<path d="M10.3125 11.1719C10.7871 11.1719 11.1719 10.7871 11.1719 10.3125C11.1719 9.83788 10.7871 9.45312 10.3125 9.45312C9.83788 9.45312 9.45312 9.83788 9.45312 10.3125C9.45312 10.7871 9.83788 11.1719 10.3125 11.1719Z" fill="#132A13" stroke="#132A13" stroke-width="2" stroke-linecap="round" stroke-linejoin="round"/>
<path d="M10.3125 5.15625C10.7871 5.15625 11.1719 4.77149 11.1719 4.29688C11.1719 3.82226 10.7871 3.4375 10.3125 3.4375C9.83788 3.4375 9.45312 3.82226 9.45312 4.29688C9.45312 4.77149 9.83788 5.15625 10.3125 5.15625Z" fill="#132A13" stroke="#132A13" stroke-width="2" stroke-linecap="round" stroke-linejoin="round"/>
<path d="M10.3125 17.1875C10.7871 17.1875 11.1719 16.8027 11.1719 16.3281C11.1719 15.8535 10.7871 15.4688 10.3125 15.4688C9.83788 15.4688 9.45312 15.8535 9.45312 16.3281C9.45312 16.8027 9.83788 17.1875 10.3125 17.1875Z" fill="#132A13" stroke="#132A13" stroke-width="2" stroke-linecap="round" stroke-linejoin="round"/>
</svg>
