<svg width="126" height="53" viewBox="0 0 126 53" fill="none" xmlns="http://www.w3.org/2000/svg">
<path d="M47.5402 26.7504C47.5402 25.3456 47.3998 23.8955 47.1657 22.5361H26.8984V30.5568H38.5065C38.0384 33.1398 36.4938 35.4055 34.2003 36.8556L41.1277 42.0668C45.1999 38.3963 47.5402 33.0492 47.5402 26.7504Z" fill="#4280EF"/>
<path d="M26.8987 47.0517C32.7028 47.0517 37.5707 45.1938 41.128 42.0217L34.2006 36.8558C32.2815 38.1247 29.8008 38.8497 26.8987 38.8497C21.2819 38.8497 16.5545 35.1792 14.8226 30.2852L7.70801 35.587C11.3589 42.6108 18.7544 47.0517 26.8987 47.0517Z" fill="#34A353"/>
<path d="M14.8222 30.2386C13.9329 27.6556 13.9329 24.8461 14.8222 22.2631L7.70761 16.916C4.66517 22.8069 4.66517 29.7401 7.70761 35.5857L14.8222 30.2386Z" fill="#F6B704"/>
<path d="M26.8987 13.6992C29.9412 13.6539 32.9368 14.7868 35.1367 16.826L41.2684 10.8444C37.3834 7.30982 32.2347 5.40659 26.8987 5.4519C18.7544 5.4519 11.3589 9.89277 7.70801 16.9166L14.8226 22.2638C16.5545 17.3244 21.2819 13.6992 26.8987 13.6992Z" fill="#E54335"/>
<path d="M98.8695 4.58667C86.7573 4.58667 76.9372 14.2868 76.9372 26.2512C76.9372 37.0628 84.9565 46.0241 95.4434 47.6556V32.515H89.872V26.2512H95.4434V21.478C95.4434 16.044 98.7182 13.0475 103.726 13.0475C106.125 13.0475 108.639 13.47 108.639 13.47V18.7978H105.867C103.147 18.7978 102.296 20.4705 102.296 22.1843V26.2468H108.374L107.402 32.5107H102.296V47.6513C112.783 46.0285 120.802 37.065 120.802 26.2512C120.802 14.2868 110.982 4.58667 98.8695 4.58667Z" fill="#4280EF"/>
</svg>
