<svg width="21" height="20" viewBox="0 0 21 20" fill="none" xmlns="http://www.w3.org/2000/svg">
<path d="M10.5994 9.62215C9.69333 9.62215 8.91772 9.31101 8.27251 8.68874C7.62731 8.06647 7.30471 7.31843 7.30471 6.4446C7.30471 5.57078 7.62731 4.82273 8.27251 4.20046C8.91772 3.57819 9.69333 3.26706 10.5994 3.26706C11.5054 3.26706 12.281 3.57819 12.9262 4.20046C13.5714 4.82273 13.894 5.57078 13.894 6.4446C13.894 7.31843 13.5714 8.06647 12.9262 8.68874C12.281 9.31101 11.5054 9.62215 10.5994 9.62215ZM4.01007 15.9772V13.753C4.01007 13.3028 4.13019 12.8891 4.37042 12.5117C4.61066 12.1344 4.92983 11.8464 5.32793 11.6478C6.17904 11.2374 7.04389 10.9296 7.92246 10.7244C8.80103 10.5191 9.69333 10.4165 10.5994 10.4165C11.5054 10.4165 12.3977 10.5191 13.2763 10.7244C14.1548 10.9296 15.0197 11.2374 15.8708 11.6478C16.2689 11.8464 16.5881 12.1344 16.8283 12.5117C17.0685 12.8891 17.1886 13.3028 17.1886 13.753V15.9772H4.01007ZM5.65739 14.3885H15.5413V13.753C15.5413 13.6073 15.5036 13.4749 15.4281 13.3558C15.3526 13.2366 15.253 13.1439 15.1295 13.0777C14.3882 12.7203 13.64 12.4521 12.885 12.2734C12.13 12.0947 11.3681 12.0053 10.5994 12.0053C9.83061 12.0053 9.06872 12.0947 8.3137 12.2734C7.55868 12.4521 6.81052 12.7203 6.06922 13.0777C5.94567 13.1439 5.84615 13.2366 5.77065 13.3558C5.69514 13.4749 5.65739 13.6073 5.65739 13.753V14.3885ZM10.5994 8.03337C11.0524 8.03337 11.4402 7.87781 11.7628 7.56667C12.0854 7.25554 12.2467 6.88152 12.2467 6.4446C12.2467 6.00769 12.0854 5.63367 11.7628 5.32253C11.4402 5.0114 11.0524 4.85583 10.5994 4.85583C10.1463 4.85583 9.75854 5.0114 9.43594 5.32253C9.11333 5.63367 8.95203 6.00769 8.95203 6.4446C8.95203 6.88152 9.11333 7.25554 9.43594 7.56667C9.75854 7.87781 10.1463 8.03337 10.5994 8.03337Z" fill="#132A13"/>
</svg>
