<svg width="21" height="20" viewBox="0 0 21 20" fill="none" xmlns="http://www.w3.org/2000/svg">
<path d="M10.2983 9.93652C9.39345 9.93652 8.61889 9.61829 7.97456 8.98183C7.33024 8.34538 7.00807 7.58027 7.00807 6.68652C7.00807 5.79277 7.33024 5.02767 7.97456 4.39121C8.61889 3.75475 9.39345 3.43652 10.2983 3.43652C11.2031 3.43652 11.9776 3.75475 12.6219 4.39121C13.2663 5.02767 13.5884 5.79277 13.5884 6.68652C13.5884 7.58027 13.2663 8.34538 12.6219 8.98183C11.9776 9.61829 11.2031 9.93652 10.2983 9.93652ZM3.7179 16.4365V14.1615C3.7179 13.7011 3.83785 13.2779 4.07776 12.892C4.31767 12.5061 4.6364 12.2115 5.03397 12.0084C5.88393 11.5886 6.7476 11.2738 7.62498 11.0639C8.50236 10.854 9.39345 10.749 10.2983 10.749C11.2031 10.749 12.0941 10.854 12.9715 11.0639C13.8489 11.2738 14.7126 11.5886 15.5625 12.0084C15.9601 12.2115 16.2788 12.5061 16.5187 12.892C16.7587 13.2779 16.8786 13.7011 16.8786 14.1615V16.4365H3.7179ZM5.36298 14.8115H15.2335V14.1615C15.2335 14.0126 15.1958 13.8771 15.1204 13.7553C15.045 13.6334 14.9456 13.5386 14.8222 13.4709C14.082 13.1053 13.3348 12.8311 12.5808 12.6482C11.8268 12.4654 11.066 12.374 10.2983 12.374C9.53054 12.374 8.76969 12.4654 8.01569 12.6482C7.26169 12.8311 6.51455 13.1053 5.77426 13.4709C5.65088 13.5386 5.55148 13.6334 5.47608 13.7553C5.40068 13.8771 5.36298 14.0126 5.36298 14.1615V14.8115ZM10.2983 8.31152C10.7507 8.31152 11.1379 8.15241 11.4601 7.83418C11.7823 7.51595 11.9433 7.1334 11.9433 6.68652C11.9433 6.23965 11.7823 5.8571 11.4601 5.53887C11.1379 5.22064 10.7507 5.06152 10.2983 5.06152C9.84585 5.06152 9.45857 5.22064 9.13641 5.53887C8.81424 5.8571 8.65316 6.23965 8.65316 6.68652C8.65316 7.1334 8.81424 7.51595 9.13641 7.83418C9.45857 8.15241 9.84585 8.31152 10.2983 8.31152Z" fill="#132A13"/>
</svg>
