<svg width="123" height="141" viewBox="0 0 123 141" fill="none" xmlns="http://www.w3.org/2000/svg">
<path d="M58.956 1.46875L60.652 0.489584L60.902 0.922596L61.5 0.57735L62.098 0.922603L62.348 0.489589L64.044 1.46876L63.794 1.90177L65.4899 2.88094L65.7399 2.44792L67.4359 3.42709L67.1859 3.8601L68.8819 4.83927L69.1319 4.40626L70.8278 5.38542L70.5778 5.81844L72.2738 6.7976L72.5238 6.36459L74.2198 7.34375L73.9698 7.77677L75.6657 8.75594L75.9157 8.32292L77.6117 9.30209L77.3617 9.7351L79.0577 10.7143L79.3077 10.2813L81.0036 11.2604L80.7536 11.6934L82.4496 12.6726L82.6996 12.2396L84.3956 13.2188L84.1456 13.6518L85.8415 14.6309L86.0915 14.1979L87.7875 15.1771L87.5375 15.6101L89.2334 16.5893L89.4834 16.1562L91.1794 17.1354L90.9294 17.5684L92.6254 18.5476L92.8754 18.1146L94.5713 19.0937L94.3213 19.5268L96.0173 20.5059L96.2673 20.0729L97.9633 21.0521L97.7133 21.4851L99.4092 22.4643L99.6592 22.0312L101.355 23.0104L101.105 23.4434L102.801 24.4226L103.051 23.9896L104.747 24.9688L104.497 25.4018L106.193 26.3809L106.443 25.9479L108.139 26.9271L107.889 27.3601L109.585 28.3393L109.835 27.9062L111.531 28.8854L111.281 29.3184L112.977 30.2976L113.227 29.8646L114.923 30.8438L114.673 31.2768L116.369 32.2559L116.619 31.8229L118.315 32.8021L118.065 33.2351L119.761 34.2143L120.011 33.7813L121.707 34.7604L121.457 35.1934L122.055 35.5387V36.2292H122.555V38.1875H122.055V40.1459H122.555V42.1042H122.055V44.0625H122.555V46.0208H122.055V47.9792H122.555V49.9375H122.055V51.8958H122.555V53.8542H122.055V55.8125H122.555V57.7708H122.055V59.7292H122.555V61.6875H122.055V63.6458H122.555V65.6042H122.055V67.5625H122.555V69.5208H122.055V71.4792H122.555V73.4375H122.055V75.3958H122.555V77.3542H122.055V79.3125H122.555V81.2708H122.055V83.2292H122.555V85.1875H122.055V87.1458H122.555V89.1042H122.055V91.0625H122.555V93.0208H122.055V94.9792H122.555V96.9375H122.055V98.8958H122.555V100.854H122.055V102.812H122.555V104.771H122.055V105.461L121.457 105.807L121.707 106.24L120.011 107.219L119.761 106.786L118.065 107.765L118.315 108.198L116.619 109.177L116.369 108.744L114.673 109.723L114.923 110.156L113.227 111.135L112.977 110.702L111.281 111.682L111.531 112.115L109.835 113.094L109.585 112.661L107.889 113.64L108.139 114.073L106.443 115.052L106.193 114.619L104.497 115.598L104.747 116.031L103.051 117.01L102.801 116.577L101.105 117.557L101.355 117.99L99.6592 118.969L99.4092 118.536L97.7133 119.515L97.9633 119.948L96.2673 120.927L96.0173 120.494L94.3214 121.473L94.5714 121.906L92.8754 122.885L92.6254 122.452L90.9294 123.432L91.1794 123.865L89.4835 124.844L89.2335 124.411L87.5375 125.39L87.7875 125.823L86.0915 126.802L85.8415 126.369L84.1455 127.348L84.3955 127.781L82.6996 128.76L82.4496 128.327L80.7536 129.307L81.0036 129.74L79.3076 130.719L79.0576 130.286L77.3617 131.265L77.6117 131.698L75.9157 132.677L75.6657 132.244L73.9697 133.223L74.2197 133.656L72.5238 134.635L72.2738 134.202L70.5778 135.182L70.8278 135.615L69.1319 136.594L68.8819 136.161L67.1859 137.14L67.4359 137.573L65.7399 138.552L65.4899 138.119L63.794 139.098L64.044 139.531L62.348 140.51L62.098 140.077L61.5 140.423L60.902 140.077L60.652 140.51L58.956 139.531L59.206 139.098L57.5101 138.119L57.2601 138.552L55.5641 137.573L55.8141 137.14L54.1181 136.161L53.8681 136.594L52.1722 135.615L52.4222 135.182L50.7262 134.202L50.4762 134.635L48.7802 133.656L49.0302 133.223L47.3343 132.244L47.0843 132.677L45.3883 131.698L45.6383 131.265L43.9423 130.286L43.6923 130.719L41.9964 129.74L42.2464 129.307L40.5504 128.327L40.3004 128.76L38.6045 127.781L38.8545 127.348L37.1585 126.369L36.9085 126.802L35.2125 125.823L35.4625 125.39L33.7666 124.411L33.5166 124.844L31.8206 123.865L32.0706 123.432L30.3746 122.452L30.1246 122.885L28.4287 121.906L28.6787 121.473L26.9827 120.494L26.7327 120.927L25.0367 119.948L25.2867 119.515L23.5908 118.536L23.3408 118.969L21.6448 117.99L21.8948 117.557L20.1988 116.577L19.9488 117.01L18.2529 116.031L18.5029 115.598L16.8069 114.619L16.5569 115.052L14.8609 114.073L15.1109 113.64L13.415 112.661L13.165 113.094L11.469 112.115L11.719 111.682L10.023 110.702L9.77302 111.135L8.07706 110.156L8.32706 109.723L6.63109 108.744L6.38109 109.177L4.68513 108.198L4.93513 107.765L3.23916 106.786L2.98916 107.219L1.29319 106.24L1.54319 105.807L0.94521 105.461V104.771H0.44521V102.812H0.94521V100.854H0.44521V98.8958H0.94521V96.9375H0.44521V94.9792H0.94521V93.0208H0.44521V91.0625H0.94521V89.1042H0.44521V87.1458H0.94521V85.1875H0.44521V83.2292H0.94521V81.2708H0.44521V79.3125H0.94521V77.3542H0.44521V75.3958H0.94521V73.4375H0.44521V71.4792H0.94521V69.5208H0.44521V67.5625H0.94521V65.6042H0.44521V63.6458H0.94521V61.6875H0.44521V59.7292H0.94521V57.7708H0.44521V55.8125H0.94521V53.8542H0.44521V51.8958H0.94521V49.9375H0.44521V47.9792H0.94521V46.0208H0.44521V44.0625H0.94521V42.1042H0.44521V40.1458H0.94521V38.1875H0.44521V36.2292H0.94521V35.5387L1.5432 35.1934L1.2932 34.7604L2.98917 33.7812L3.23917 34.2143L4.93514 33.2351L4.68514 32.8021L6.38111 31.8229L6.63111 32.2559L8.32707 31.2768L8.07707 30.8437L9.77304 29.8646L10.023 30.2976L11.719 29.3184L11.469 28.8854L13.165 27.9062L13.415 28.3393L15.1109 27.3601L14.8609 26.9271L16.5569 25.9479L16.8069 26.3809L18.5029 25.4018L18.2529 24.9687L19.9488 23.9896L20.1988 24.4226L21.8948 23.4434L21.6448 23.0104L23.3408 22.0312L23.5908 22.4643L25.2867 21.4851L25.0367 21.0521L26.7327 20.0729L26.9827 20.5059L28.6787 19.5268L28.4287 19.0938L30.1246 18.1146L30.3746 18.5476L32.0706 17.5684L31.8206 17.1354L33.5166 16.1563L33.7666 16.5893L35.4625 15.6101L35.2125 15.1771L36.9085 14.1979L37.1585 14.6309L38.8545 13.6518L38.6045 13.2188L40.3004 12.2396L40.5504 12.6726L42.2464 11.6934L41.9964 11.2604L43.6924 10.2812L43.9424 10.7143L45.6383 9.7351L45.3883 9.30208L47.0843 8.32292L47.3343 8.75593L49.0303 7.77676L48.7803 7.34375L50.4762 6.36458L50.7262 6.7976L52.4222 5.81843L52.1722 5.38542L53.8682 4.40625L54.1182 4.83926L55.8141 3.8601L55.5641 3.42708L57.2601 2.44792L57.5101 2.88093L59.206 1.90176L58.956 1.46875Z" stroke="black" stroke-dasharray="2 2"/>
</svg>
