<svg width="80" height="80" viewBox="0 0 80 80" fill="none" xmlns="http://www.w3.org/2000/svg">
<g clip-path="url(#clip0_29_358)">
<g filter="url(#filter0_d_29_358)">
<path fill-rule="evenodd" clip-rule="evenodd" d="M40.9175 70.8046C57.9292 70.8046 71.72 57.0129 71.72 40C71.72 22.9872 57.9292 9.19543 40.9175 9.19543C23.9057 9.19543 10.115 22.9872 10.115 40C10.115 57.0129 23.9057 70.8046 40.9175 70.8046ZM48.692 37.961C48.692 40.0231 47.0204 41.6947 44.9583 41.6947H42.4519C40.1988 41.6947 38.3968 38.7495 38.3968 36.4963V32.7211C38.3968 30.6592 40.0685 28.9875 42.1304 28.9875H44.9584C47.0204 28.9875 48.692 30.6592 48.692 32.7211V37.961ZM57.175 28.9875C58.1465 28.9875 58.934 28.2 58.934 27.2285C58.934 26.257 58.1465 25.4695 57.175 25.4695H24.66C23.6885 25.4695 22.901 26.257 22.901 27.2285C22.901 28.2 23.6885 28.9875 24.66 28.9875H30.5239C32.5859 28.9875 34.2575 30.6592 34.2575 32.7211V36.1813C34.2575 37.8966 33.886 39.1568 33.1431 39.9619C32.4355 40.7321 31.0735 41.1171 29.0569 41.1171H28.0508C26.672 41.1171 25.5544 42.2348 25.5544 43.6135C25.5544 44.1084 25.7016 44.5921 25.9771 45.0033L34.8594 58.257C35.2461 58.834 35.8949 59.1802 36.5894 59.1802C38.2605 59.1802 39.2509 57.311 38.3125 55.9282L35.5482 51.8551C33.7197 49.1609 36.0139 45.2528 39.2698 45.2644C39.437 45.265 39.6059 45.2653 39.7766 45.2653H44.9584C47.0204 45.2653 48.692 46.9369 48.692 48.999V57.1105C48.692 58.2536 49.6186 59.1802 50.7617 59.1802C51.9047 59.1802 52.8313 58.2536 52.8313 57.1105V32.0389C52.8313 30.3538 54.1975 28.9875 55.8826 28.9875H57.175Z" fill="#90A955"/>
<path d="M14.8948 44.3834C14.8467 44.1234 14.8352 43.8818 14.8605 43.6587C14.8887 43.4352 14.9496 43.2341 15.0431 43.0554L15.4491 43.1466C15.3888 43.2653 15.3428 43.3844 15.3112 43.5043C15.2801 43.627 15.2624 43.7537 15.2581 43.8843C15.2573 44.0173 15.2708 44.1587 15.2986 44.3086C15.3461 44.5657 15.4268 44.7454 15.5406 44.8477C15.655 44.9531 15.7873 44.9919 15.9371 44.9641C16.0656 44.9405 16.1572 44.8792 16.2117 44.7806C16.2667 44.6849 16.2962 44.5276 16.3 44.3085L16.3085 43.7897C16.3147 43.4815 16.3732 43.2414 16.4837 43.069C16.5978 42.8993 16.7758 42.7919 17.0175 42.7472C17.2133 42.7111 17.3943 42.7314 17.5603 42.8083C17.7264 42.885 17.8663 43.0079 17.9796 43.1769C18.0937 43.3487 18.1737 43.5586 18.2195 43.8064C18.2619 44.0358 18.2674 44.2532 18.2357 44.4585C18.207 44.6631 18.1406 44.843 18.0365 44.9983L17.6451 44.9094C17.7389 44.7497 17.799 44.5866 17.8252 44.4205C17.8545 44.2537 17.8507 44.0708 17.8139 43.872C17.7703 43.6364 17.6872 43.4603 17.5645 43.3438C17.4422 43.2303 17.297 43.1892 17.1287 43.2203C16.9941 43.2452 16.8961 43.306 16.8349 43.4027C16.7742 43.5026 16.7422 43.6541 16.7386 43.8573L16.7348 44.3752C16.7277 44.6962 16.6704 44.9425 16.5629 45.1143C16.4584 45.2854 16.29 45.3925 16.0575 45.4356C15.8709 45.4701 15.6979 45.4498 15.5384 45.375C15.3796 45.3031 15.2434 45.1827 15.13 45.0138C15.0195 44.8444 14.9411 44.6342 14.8948 44.3834Z" fill="white"/>
<path d="M17.88 52.9673C17.7729 52.7884 17.7206 52.6076 17.7235 52.4245C17.7263 52.2415 17.784 52.0654 17.8967 51.8963C18.0109 51.7299 18.1763 51.5819 18.3925 51.4524C18.6112 51.3213 18.8197 51.2454 19.0177 51.2248C19.2172 51.2067 19.3983 51.2396 19.5611 51.3235C19.7263 51.4058 19.8627 51.5364 19.9698 51.7152C20.0753 51.8913 20.1232 52.0712 20.1135 52.2547C20.1037 52.4384 20.0356 52.597 19.9091 52.7309L19.8827 52.6868L20.363 52.4534L20.5981 52.8458C20.5105 52.8873 20.4231 52.9289 20.3355 52.9705C20.2522 53.0132 20.1719 53.0576 20.0945 53.1039L18.5612 54.0227L18.3189 53.6182L18.7674 53.3496L18.7938 53.3937C18.6187 53.4406 18.4472 53.4236 18.2792 53.3429C18.1153 53.2633 17.9824 53.1381 17.88 52.9673ZM18.2562 52.8779C18.3602 53.0514 18.5046 53.1534 18.6898 53.1839C18.8765 53.217 19.09 53.1618 19.3302 53.0178C19.5704 52.8739 19.7185 52.7126 19.7747 52.5339C19.8351 52.3562 19.8134 52.1806 19.7095 52.0072C19.604 51.8309 19.4578 51.7264 19.2711 51.6931C19.0886 51.661 18.8772 51.7169 18.6371 51.8608C18.3969 52.0047 18.2465 52.1655 18.1862 52.3431C18.1257 52.5208 18.1492 52.6991 18.2562 52.8779Z" fill="white"/>
<path d="M23.1094 59.624L24.1973 58.2057C24.2522 58.1341 24.3044 58.0584 24.3538 57.9787C24.4075 57.8984 24.4601 57.8171 24.5113 57.7349L24.8742 58.0132L24.6065 58.4314L24.5621 58.3972C24.718 58.3013 24.8775 58.257 25.0405 58.2643C25.2059 58.2735 25.3639 58.3359 25.5145 58.4515C25.6676 58.5689 25.7638 58.7015 25.8034 58.8494C25.8471 58.9967 25.8298 59.1599 25.7513 59.3389L25.6921 59.2935C25.8457 59.1956 26.0119 59.1526 26.1909 59.1645C26.372 59.1739 26.5403 59.2383 26.6958 59.3576C26.9031 59.5167 27.0123 59.6964 27.0232 59.897C27.0342 60.0974 26.942 60.3249 26.747 60.5792L25.8608 61.7345L25.4868 61.4477L26.3588 60.3108C26.4838 60.1478 26.5453 60.0088 26.5434 59.8937C26.546 59.7779 26.4855 59.6727 26.3621 59.578C26.2189 59.4682 26.0674 59.4304 25.9078 59.4648C25.7481 59.4992 25.6039 59.6003 25.4751 59.7682L24.6685 60.8199L24.2945 60.533L25.1664 59.3961C25.2914 59.2332 25.353 59.0941 25.3511 58.9789C25.3535 58.8633 25.2931 58.7581 25.1696 58.6633C25.0264 58.5534 24.8763 58.5168 24.7191 58.553C24.5619 58.5892 24.4189 58.6914 24.2901 58.8592L23.4834 59.911L23.1094 59.624Z" fill="white"/>
<path d="M32.7989 65.1795C32.5281 65.0965 32.3468 64.9611 32.2545 64.7734C32.1664 64.5836 32.1691 64.3356 32.263 64.0292L32.6883 62.6415L33.139 62.7796L32.7163 64.1584C32.659 64.3458 32.6553 64.4959 32.7053 64.6088C32.7552 64.7219 32.859 64.8025 33.0167 64.8509C33.1952 64.9055 33.3577 64.8903 33.5043 64.805C33.6508 64.7197 33.7541 64.579 33.8144 64.3826L34.2054 63.1065L34.6561 63.2446L33.9668 65.4935L33.5296 65.3596L33.6773 64.8776L33.7353 64.8954C33.6218 65.0429 33.4824 65.1417 33.3173 65.1919C33.1531 65.2392 32.9803 65.2351 32.7989 65.1795Z" fill="white"/>
<path d="M41.0816 66.4497C40.8765 66.4578 40.6927 66.4169 40.5303 66.3268C40.371 66.2366 40.2443 66.1015 40.1499 65.9214C40.0587 65.7414 40.0082 65.5254 39.9981 65.2736C39.9879 65.0187 40.0213 64.7994 40.0981 64.6157C40.178 64.432 40.2938 64.2889 40.4453 64.1863C40.6 64.0805 40.7798 64.0236 40.9851 64.0153C41.1871 64.0073 41.3664 64.0516 41.5227 64.1482C41.6822 64.2415 41.7902 64.3742 41.8469 64.5463L41.791 64.5486L41.7273 62.9443L42.1983 62.9257L42.3345 66.3579L41.8681 66.3764L41.8471 65.8448L41.903 65.8426C41.8572 66.0219 41.7602 66.1658 41.6118 66.2745C41.4636 66.3831 41.2868 66.4415 41.0816 66.4497ZM41.1837 66.0766C41.3857 66.0686 41.5461 65.9907 41.6647 65.8427C41.7835 65.6948 41.8372 65.4809 41.8262 65.2011C41.8151 64.9212 41.7445 64.7139 41.6146 64.579C41.4846 64.4408 41.3185 64.3759 41.1165 64.3839C40.9113 64.392 40.7494 64.47 40.6306 64.618C40.515 64.7626 40.4627 64.9749 40.4738 65.2548C40.4848 65.5346 40.5539 65.7436 40.6808 65.8817C40.8108 66.0198 40.9785 66.0848 41.1837 66.0766Z" fill="white"/>
<path d="M50.2549 64.7104C50.0627 64.791 49.8762 64.8167 49.6954 64.7879C49.5147 64.759 49.3487 64.6767 49.1974 64.5411C49.049 64.4041 48.9262 64.2195 48.8288 63.987C48.7303 63.7517 48.685 63.5346 48.6927 63.3357C48.7034 63.1355 48.7619 62.9609 48.8681 62.8119C48.9731 62.66 49.1218 62.5438 49.3141 62.4633C49.5035 62.3839 49.6883 62.3621 49.8686 62.398C50.0489 62.4338 50.1963 62.5239 50.3107 62.6682L50.2633 62.6881L50.1008 62.1793L50.5228 62.0026C50.5514 62.0952 50.58 62.1878 50.6086 62.2804C50.6389 62.3689 50.6716 62.4547 50.7063 62.5379L51.3967 64.1868L50.962 64.3688L50.7601 63.8867L50.8075 63.8668C50.8288 64.0468 50.7875 64.2142 50.6838 64.369C50.5816 64.5196 50.4387 64.6335 50.2549 64.7104ZM50.2203 64.3253C50.4068 64.2472 50.5284 64.1186 50.5851 63.9397C50.6445 63.7596 50.6202 63.5405 50.512 63.2822C50.4038 63.0238 50.2654 62.8542 50.0965 62.7731C49.9293 62.688 49.7524 62.6845 49.5659 62.7626C49.3764 62.8419 49.252 62.9716 49.1925 63.1517C49.1347 63.3276 49.1598 63.5449 49.268 63.8031C49.376 64.0614 49.5138 64.2332 49.6811 64.3183C49.8482 64.4034 50.028 64.4058 50.2203 64.3253Z" fill="white"/>
<path d="M58.2428 59.8752C58.0907 60.0178 57.9251 60.1073 57.7456 60.1434C57.5662 60.1794 57.3818 60.1603 57.1927 60.086C57.0058 60.0097 56.8262 59.8795 56.6538 59.6957C56.4793 59.5096 56.3609 59.322 56.2987 59.1329C56.2387 58.9417 56.2326 58.7577 56.28 58.5809C56.3253 58.4018 56.424 58.241 56.5761 58.0984C56.7259 57.9579 56.8915 57.873 57.0729 57.8435C57.2543 57.8141 57.4239 57.8471 57.5814 57.9423L57.544 57.9775L57.2141 57.5575L57.5477 57.2445C57.6068 57.3213 57.666 57.398 57.7252 57.4748C57.7846 57.547 57.8451 57.6162 57.9068 57.682L59.1296 58.9858L58.7859 59.3082L58.4282 58.9269L58.4657 58.8918C58.5486 59.053 58.5685 59.2242 58.5253 59.4055C58.4822 59.5824 58.388 59.739 58.2428 59.8752ZM58.0756 59.5265C58.2232 59.3882 58.2922 59.2253 58.2827 59.0379C58.2756 58.8483 58.1762 58.6514 57.9847 58.4472C57.793 58.2429 57.6041 58.1324 57.4175 58.1154C57.231 58.094 57.0641 58.1526 56.9166 58.2909C56.7668 58.4314 56.6956 58.5964 56.7027 58.7859C56.71 58.971 56.8094 59.1658 57.0009 59.37C57.1926 59.5743 57.3815 59.6871 57.568 59.7084C57.7544 59.7298 57.9236 59.6692 58.0756 59.5265Z" fill="white"/>
<path d="M64.4784 53.8874L64.0873 53.81C64.1272 53.6658 64.1502 53.541 64.1561 53.4353C64.1634 53.327 64.1506 53.2271 64.1173 53.1362C64.0868 53.0466 64.034 52.956 63.9589 52.8643L63.7687 52.6335L63.934 52.7302L61.3386 52.5305L61.5714 52.0835L63.6764 52.2854L63.6182 52.3972L62.2464 50.7879L62.4706 50.3574L64.2075 52.478C64.3139 52.6107 64.396 52.7358 64.4538 52.8537C64.5118 52.9716 64.5488 53.0857 64.565 53.1958C64.5814 53.306 64.5809 53.418 64.5636 53.532C64.5464 53.6457 64.5181 53.7642 64.4784 53.8874Z" fill="white"/>
<path d="M66.7688 44.5219C66.7072 44.8964 66.5529 45.1737 66.3057 45.3537C66.0585 45.5338 65.7476 45.5931 65.373 45.5315C65.1305 45.4915 64.9263 45.4107 64.7602 45.2887C64.5947 45.1638 64.4766 45.0103 64.4056 44.8283C64.3321 44.6429 64.3134 44.4395 64.3499 44.2186C64.3856 44.0005 64.4618 43.8255 64.5781 43.6932C64.6944 43.561 64.8434 43.4704 65.0249 43.4214C65.2032 43.372 65.406 43.3659 65.6333 43.4033L65.7807 43.4276L65.4927 45.1775L65.2256 45.1335L65.4612 43.7013L65.5083 43.7894C65.278 43.7516 65.0913 43.7745 64.9483 43.8581C64.8027 43.9382 64.7139 44.075 64.6821 44.2685C64.6469 44.4833 64.6947 44.6615 64.8259 44.8029C64.9542 44.9438 65.1488 45.0358 65.4097 45.0787L65.4557 45.0863C65.729 45.1312 65.9455 45.099 66.1053 44.9897C66.2657 44.8774 66.3661 44.6984 66.4066 44.4528C66.4288 44.3178 66.431 44.1889 66.4134 44.0661C66.3933 43.9399 66.3474 43.8155 66.2761 43.6935L66.6188 43.5938C66.6963 43.717 66.7485 43.8596 66.7754 44.0216C66.7993 44.1832 66.7971 44.35 66.7688 44.5219Z" fill="white"/>
</g>
</g>
<defs>
<filter id="filter0_d_29_358" x="6.11499" y="9.19543" width="69.605" height="69.6093" filterUnits="userSpaceOnUse" color-interpolation-filters="sRGB">
<feFlood flood-opacity="0" result="BackgroundImageFix"/>
<feColorMatrix in="SourceAlpha" type="matrix" values="0 0 0 0 0 0 0 0 0 0 0 0 0 0 0 0 0 0 127 0" result="hardAlpha"/>
<feOffset dy="4"/>
<feGaussianBlur stdDeviation="2"/>
<feComposite in2="hardAlpha" operator="out"/>
<feColorMatrix type="matrix" values="0 0 0 0 0 0 0 0 0 0 0 0 0 0 0 0 0 0 0.25 0"/>
<feBlend mode="normal" in2="BackgroundImageFix" result="effect1_dropShadow_29_358"/>
<feBlend mode="normal" in="SourceGraphic" in2="effect1_dropShadow_29_358" result="shape"/>
</filter>
<clipPath id="clip0_29_358">
<rect width="80" height="80" fill="white"/>
</clipPath>
</defs>
</svg>
