<svg width="35" height="36" viewBox="0 0 35 36" fill="none" xmlns="http://www.w3.org/2000/svg">
<path d="M28.4992 30.8653L19.3397 21.4442C18.6106 22.0634 17.772 22.548 16.8241 22.898C15.8762 23.248 14.8956 23.423 13.8822 23.423C11.3897 23.423 9.28017 22.5353 7.5537 20.76C5.82723 18.9846 4.96399 16.8154 4.96399 14.2524C4.96399 11.6893 5.82701 9.51925 7.55304 7.74232C9.27908 5.96542 11.388 5.07697 13.8799 5.07697C16.3718 5.07697 18.4815 5.96487 20.2091 7.74067C21.9367 9.51647 22.8005 11.6862 22.8005 14.25C22.8005 15.3211 22.6256 16.3442 22.276 17.3192C21.9264 18.2942 21.4599 19.1423 20.8766 19.8634L30.036 29.2846L28.4992 30.8653ZM13.8822 21.1731C15.7612 21.1731 17.3528 20.5024 18.6569 19.1611C19.961 17.8197 20.613 16.1827 20.613 14.25C20.613 12.3173 19.961 10.6803 18.6569 9.33892C17.3528 7.99757 15.7612 7.3269 13.8822 7.3269C12.0032 7.3269 10.4116 7.99757 9.10755 9.33892C7.80349 10.6803 7.15145 12.3173 7.15145 14.25C7.15145 16.1827 7.80349 17.8197 9.10755 19.1611C10.4116 20.5024 12.0032 21.1731 13.8822 21.1731Z" fill="#132A13"/>
</svg>
