<svg width="26" height="24" viewBox="0 0 26 24" fill="none" xmlns="http://www.w3.org/2000/svg">
<path d="M18.4167 3.5H7.58332C4.33332 3.5 2.16666 5 2.16666 8.5V15.5C2.16666 19 4.33332 20.5 7.58332 20.5H18.4167C21.6667 20.5 23.8333 19 23.8333 15.5V8.5C23.8333 5 21.6667 3.5 18.4167 3.5ZM18.9258 9.59L15.535 12.09C14.82 12.62 13.91 12.88 13 12.88C12.09 12.88 11.1692 12.62 10.465 12.09L7.07416 9.59C6.72749 9.33 6.67332 8.85 6.94416 8.53C7.22582 8.21 7.73499 8.15 8.08166 8.41L11.4725 10.91C12.2958 11.52 13.6933 11.52 14.5167 10.91L17.9075 8.41C18.2542 8.15 18.7742 8.2 19.045 8.53C19.3267 8.85 19.2725 9.33 18.9258 9.59Z" fill="white"/>
</svg>
