<svg width="68" height="68" viewBox="0 0 68 68" fill="none" xmlns="http://www.w3.org/2000/svg">
<g filter="url(#filter0_d_25_379)">
<path fill-rule="evenodd" clip-rule="evenodd" d="M34 60C50.5685 60 64 46.5685 64 30C64 13.4315 50.5685 0 34 0C17.4315 0 4 13.4315 4 30C4 46.5685 17.4315 60 34 60ZM41.572 27.8594C41.572 29.9532 39.8746 31.6506 37.7807 31.6506H35.4941C33.2998 31.6506 31.545 28.7823 31.545 26.588V23.2753C31.545 21.0662 33.3359 19.2753 35.545 19.2753H37.572C39.7811 19.2753 41.572 21.0662 41.572 23.2753V27.8594ZM49.8341 19.2753C50.7802 19.2753 51.5472 18.5083 51.5472 17.5622C51.5472 16.6161 50.7802 15.8491 49.8341 15.8491H18.166C17.2199 15.8491 16.4529 16.6161 16.4529 17.5622C16.4529 18.5083 17.2199 19.2753 18.166 19.2753H23.5135C25.7227 19.2753 27.5135 21.0662 27.5135 23.2753V26.2811C27.5135 27.9516 27.1517 29.1789 26.4282 29.963C25.739 30.713 24.4124 31.0881 22.4484 31.0881H21.4683C20.1256 31.0881 19.0371 32.1765 19.0371 33.5192C19.0371 34.0012 19.1804 34.4724 19.4488 34.8727L28.0998 47.7803C28.4763 48.3421 29.1082 48.6793 29.7846 48.6793C31.4121 48.6793 32.3767 46.8587 31.4627 45.5121L29.0475 41.9537C27.1611 39.1743 29.5297 35.1279 32.8888 35.1279H37.572C39.7811 35.1279 41.572 36.9188 41.572 39.1279V46.6636C41.572 47.7768 42.4744 48.6793 43.5877 48.6793C44.7009 48.6793 45.6034 47.7768 45.6034 46.6636V22.2472C45.6034 20.6059 46.934 19.2753 48.5753 19.2753H49.8341Z" fill="white"/>
</g>
<defs>
<filter id="filter0_d_25_379" x="0" y="0" width="68" height="68" filterUnits="userSpaceOnUse" color-interpolation-filters="sRGB">
<feFlood flood-opacity="0" result="BackgroundImageFix"/>
<feColorMatrix in="SourceAlpha" type="matrix" values="0 0 0 0 0 0 0 0 0 0 0 0 0 0 0 0 0 0 127 0" result="hardAlpha"/>
<feOffset dy="4"/>
<feGaussianBlur stdDeviation="2"/>
<feComposite in2="hardAlpha" operator="out"/>
<feColorMatrix type="matrix" values="0 0 0 0 0 0 0 0 0 0 0 0 0 0 0 0 0 0 0.25 0"/>
<feBlend mode="normal" in2="BackgroundImageFix" result="effect1_dropShadow_25_379"/>
<feBlend mode="normal" in="SourceGraphic" in2="effect1_dropShadow_25_379" result="shape"/>
</filter>
</defs>
</svg>
