<svg width="33" height="33" viewBox="0 0 33 33" fill="none" xmlns="http://www.w3.org/2000/svg">
<path d="M30.6419 32.5817L18.8654 20.8052C17.9279 21.5792 16.8498 22.185 15.631 22.6225C14.4123 23.06 13.1515 23.2788 11.8486 23.2788C8.64392 23.2788 5.9317 22.1692 3.71195 19.95C1.4922 17.7308 0.382324 15.0193 0.382324 11.8154C0.382324 8.61155 1.49192 5.89903 3.71111 3.67788C5.93029 1.45675 8.64182 0.346191 11.8457 0.346191C15.0495 0.346191 17.762 1.45607 19.9832 3.67582C22.2044 5.89557 23.3149 8.60779 23.3149 11.8125C23.3149 13.1514 23.0902 14.4303 22.6406 15.649C22.1911 16.8678 21.5913 17.9278 20.8413 18.8293L32.6178 30.6057L30.6419 32.5817ZM11.8486 20.4663C14.2645 20.4663 16.3108 19.628 17.9874 17.9513C19.6641 16.2746 20.5025 14.2283 20.5025 11.8125C20.5025 9.3966 19.6641 7.35032 17.9874 5.67363C16.3108 3.99694 14.2645 3.1586 11.8486 3.1586C9.43273 3.1586 7.38645 3.99694 5.70976 5.67363C4.03311 7.35032 3.19478 9.3966 3.19478 11.8125C3.19478 14.2283 4.03311 16.2746 5.70976 17.9513C7.38645 19.628 9.43273 20.4663 11.8486 20.4663Z" fill="#132A13"/>
</svg>
