<svg width="44" height="20" viewBox="0 0 44 20" fill="none" xmlns="http://www.w3.org/2000/svg">
<path d="M40.6072 2.47833C39.5321 1.96089 38.2556 1.55043 36.8506 1.27038C35.4456 0.990332 33.9397 0.846191 32.4189 0.846191C30.8981 0.846191 29.3922 0.990332 27.9873 1.27038C26.5823 1.55043 25.3058 1.96089 24.2307 2.47833L21.9994 3.55168L19.7682 2.47833C17.5965 1.43363 14.6511 0.846733 11.5799 0.846733C8.50875 0.846733 5.56334 1.43363 3.39169 2.47833C1.22003 3.52302 2.28822e-08 4.93992 0 6.41734C-2.28822e-08 7.89475 1.22003 9.31166 3.39169 10.3563L5.62293 11.4297L21.9994 19.3077L38.3759 11.4297L40.6072 10.3563C41.6828 9.83916 42.5361 9.22509 43.1182 8.54922C43.7004 7.87335 44 7.14893 44 6.41734C44 5.68575 43.7004 4.96132 43.1182 4.28546C42.5361 3.60959 41.6828 2.99552 40.6072 2.47833Z" fill="#0075BB"/>
</svg>
