<svg width="20" height="25" viewBox="0 0 20 25" fill="none" xmlns="http://www.w3.org/2000/svg">
<path d="M0.625061 20.6057V18.7308H2.88469V9.40381C2.88469 7.72273 3.40351 6.23636 4.44115 4.94469C5.47882 3.65302 6.81096 2.82691 8.43756 2.46635V1.6875C8.43756 1.25348 8.58933 0.884564 8.89287 0.580751C9.19642 0.276918 9.565 0.125 9.99862 0.125C10.4322 0.125 10.8013 0.276918 11.1058 0.580751C11.4103 0.884564 11.5625 1.25348 11.5625 1.6875V2.46635C13.1891 2.82691 14.5212 3.65302 15.5589 4.94469C16.5965 6.23636 17.1154 7.72273 17.1154 9.40381V18.7308H19.375V20.6057H0.625061ZM9.9979 24.1153C9.37593 24.1153 8.84419 23.8941 8.40269 23.4516C7.96119 23.0091 7.74044 22.4771 7.74044 21.8557H12.2596C12.2596 22.4791 12.0382 23.0116 11.5952 23.4531C11.1523 23.8946 10.6199 24.1153 9.9979 24.1153Z" fill="#132A13"/>
</svg>
