<svg width="22" height="22" viewBox="0 0 22 22" fill="none" xmlns="http://www.w3.org/2000/svg">
<path d="M10.8672 14.4784C11.9707 14.4784 12.9087 14.0908 13.6812 13.3157C14.4536 12.5405 14.8398 11.5992 14.8398 10.4918C14.8398 9.38437 14.4536 8.44308 13.6812 7.66789C12.9087 6.89271 11.9707 6.50512 10.8672 6.50512C9.76367 6.50512 8.82568 6.89271 8.05322 7.66789C7.28076 8.44308 6.89453 9.38437 6.89453 10.4918C6.89453 11.5992 7.28076 12.5405 8.05322 13.3157C8.82568 14.0908 9.76367 14.4784 10.8672 14.4784ZM10.8672 12.8838C10.2051 12.8838 9.64228 12.6512 9.17881 12.1861C8.71533 11.721 8.48359 11.1562 8.48359 10.4918C8.48359 9.82733 8.71533 9.26256 9.17881 8.79745C9.64228 8.33234 10.2051 8.09978 10.8672 8.09978C11.5293 8.09978 12.0921 8.33234 12.5556 8.79745C13.019 9.26256 13.2508 9.82733 13.2508 10.4918C13.2508 11.1562 13.019 11.721 12.5556 12.1861C12.0921 12.6512 11.5293 12.8838 10.8672 12.8838ZM10.8672 17.1362C8.71901 17.1362 6.76211 16.5345 4.99648 15.3311C3.23086 14.1277 1.95078 12.5146 1.15625 10.4918C1.95078 8.46892 3.23086 6.8558 4.99648 5.65242C6.76211 4.44904 8.71901 3.84735 10.8672 3.84735C13.0154 3.84735 14.9723 4.44904 16.7379 5.65242C18.5035 6.8558 19.7836 8.46892 20.5781 10.4918C19.7836 12.5146 18.5035 14.1277 16.7379 15.3311C14.9723 16.5345 13.0154 17.1362 10.8672 17.1362ZM10.8672 15.3644C12.5298 15.3644 14.0563 14.9251 15.4468 14.0465C16.8372 13.168 17.9003 11.9831 18.6359 10.4918C17.9003 9.00047 16.8372 7.81555 15.4468 6.93701C14.0563 6.05847 12.5298 5.6192 10.8672 5.6192C9.20456 5.6192 7.67803 6.05847 6.2876 6.93701C4.89717 7.81555 3.83411 9.00047 3.09844 10.4918C3.83411 11.9831 4.89717 13.168 6.2876 14.0465C7.67803 14.9251 9.20456 15.3644 10.8672 15.3644Z" fill="white"/>
</svg>
