<svg width="41" height="41" viewBox="0 0 41 41" fill="none" xmlns="http://www.w3.org/2000/svg">
<path d="M24.6515 32.1512C24.3269 32.1512 24.0023 32.0316 23.7461 31.7753C23.2507 31.2799 23.2507 30.4599 23.7461 29.9645L33.2102 20.5003L23.7461 11.0362C23.2507 10.5407 23.2507 9.72074 23.7461 9.22532C24.2415 8.72991 25.0615 8.72991 25.5569 9.22532L35.9265 19.5949C36.4219 20.0903 36.4219 20.9103 35.9265 21.4057L25.5569 31.7753C25.3007 32.0316 24.9761 32.1512 24.6515 32.1512Z" fill="#132A13"/>
<path d="M34.7303 21.7813H5.979C5.27859 21.7813 4.69775 21.2004 4.69775 20.5C4.69775 19.7996 5.27859 19.2188 5.979 19.2188H34.7303C35.4307 19.2188 36.0115 19.7996 36.0115 20.5C36.0115 21.2004 35.4307 21.7813 34.7303 21.7813Z" fill="#132A13"/>
</svg>
