<svg width="30" height="30" viewBox="0 0 30 30" fill="none" xmlns="http://www.w3.org/2000/svg">
<path d="M15 2.50006C8.1 2.50006 2.5 8.10006 2.5 15.0001C2.5 21.9001 8.1 27.5001 15 27.5001C21.9 27.5001 27.5 21.9001 27.5 15.0001C27.5 8.10006 21.9 2.50006 15 2.50006ZM15.4125 21.2501C15.1875 21.3251 14.8 21.3251 14.575 21.2501C12.625 20.5876 8.25 17.8001 8.25 13.0751C8.25 10.9876 9.925 9.30006 12 9.30006C13.225 9.30006 14.3125 9.88756 15 10.8126C15.675 9.90006 16.775 9.30006 18 9.30006C20.075 9.30006 21.75 10.9876 21.75 13.0751C21.75 17.8001 17.375 20.5876 15.4125 21.2501Z" fill="#132A13"/>
</svg>
